# MagicaVoxel @ Ephtracy

# group
o 

# material
mtllib TowerHead.mtl
usemtl palette

# normals
vn -1 0 0
vn 1 0 0
vn 0 0 1
vn 0 0 -1
vn 0 -1 0
vn 0 1 0

# texcoords
vt 0.970703 0.5
vt 0.974609 0.5
vt 0.978516 0.5

# verts
v -0.5 1.2 0.3
v -0.5 1.2 0.2
v -0.5 1.3 0.4
v -0.5 1.3 0.3
v -0.5 1.3 0.2
v -0.5 1.3 0.1
v -0.5 1.4 0.4
v -0.5 1.4 0.3
v -0.5 1.4 0.2
v -0.5 1.4 0.1
v -0.5 1.5 0.3
v -0.5 1.5 0.2
v -0.4 1.1 0.3
v -0.4 1.1 0.2
v -0.4 1.2 0.4
v -0.4 1.2 0.3
v -0.4 1.2 0.2
v -0.4 1.2 0.1
v -0.4 1.3 0.5
v -0.4 1.3 0.4
v -0.4 1.3 0.3
v -0.4 1.3 0.2
v -0.4 1.3 0.1
v -0.4 1.3 -0.2
v -0.4 1.4 0.5
v -0.4 1.4 0.4
v -0.4 1.4 0.3
v -0.4 1.4 0.2
v -0.4 1.4 0.1
v -0.4 1.4 -0.2
v -0.4 1.5 0.4
v -0.4 1.5 0.3
v -0.4 1.5 0.2
v -0.4 1.5 0.1
v -0.4 1.6 0.3
v -0.4 1.6 0.2
v -0.3 1.1 0.4
v -0.3 1.1 0.3
v -0.3 1.1 0.2
v -0.3 1.1 0.1
v -0.3 1.2 0.5
v -0.3 1.2 0.4
v -0.3 1.2 0.3
v -0.3 1.2 0.2
v -0.3 1.2 0.1
v -0.3 1.2 -0.2
v -0.3 1.3 0.5
v -0.3 1.3 0.4
v -0.3 1.3 0.1
v -0.3 1.3 -0.2
v -0.3 1.3 -0.6
v -0.3 1.3 -0.8
v -0.3 1.4 0.5
v -0.3 1.4 0.4
v -0.3 1.4 0.1
v -0.3 1.4 -0.2
v -0.3 1.4 -0.6
v -0.3 1.4 -0.8
v -0.3 1.5 0.5
v -0.3 1.5 0.4
v -0.3 1.5 0.3
v -0.3 1.5 0.2
v -0.3 1.5 0.1
v -0.3 1.5 -0.2
v -0.3 1.6 0.4
v -0.3 1.6 0.3
v -0.3 1.6 0.2
v -0.3 1.6 0.1
v -0.2 1.1 0.4
v -0.2 1.1 0.3
v -0.2 1.1 0.2
v -0.2 1.1 0.1
v -0.2 1.2 0.5
v -0.2 1.2 0.4
v -0.2 1.2 0.3
v -0.2 1.2 0.2
v -0.2 1.2 0.1
v -0.2 1.2 -0.2
v -0.2 1.3 0.5
v -0.2 1.3 0.4
v -0.2 1.3 0.1
v -0.2 1.3 -0.2
v -0.2 1.3 -0.6
v -0.2 1.3 -0.8
v -0.2 1.4 0.5
v -0.2 1.4 0.4
v -0.2 1.4 0.1
v -0.2 1.4 -0.2
v -0.2 1.4 -0.6
v -0.2 1.4 -0.8
v -0.2 1.5 0.5
v -0.2 1.5 0.4
v -0.2 1.5 0.3
v -0.2 1.5 0.2
v -0.2 1.5 0.1
v -0.2 1.5 -0.2
v -0.2 1.6 0.4
v -0.2 1.6 0.3
v -0.2 1.6 0.2
v -0.2 1.6 0.1
v -0.1 1.1 0.3
v -0.1 1.1 0.2
v -0.1 1.2 0.4
v -0.1 1.2 0.3
v -0.1 1.2 0.2
v -0.1 1.2 0.1
v -0.1 1.3 0.5
v -0.1 1.3 0.4
v -0.1 1.3 0.3
v -0.1 1.3 0.2
v -0.1 1.3 0.1
v -0.1 1.3 -0.2
v -0.1 1.4 0.5
v -0.1 1.4 0.4
v -0.1 1.4 0.3
v -0.1 1.4 0.2
v -0.1 1.4 0.1
v -0.1 1.4 -0.2
v -0.1 1.5 0.4
v -0.1 1.5 0.3
v -0.1 1.5 0.2
v -0.1 1.5 0.1
v -0.1 1.6 0.3
v -0.1 1.6 0.2
v 0 1.2 0.3
v 0 1.2 0.2
v 0 1.3 0.4
v 0 1.3 0.3
v 0 1.3 0.2
v 0 1.3 0.1
v 0 1.4 0.4
v 0 1.4 0.3
v 0 1.4 0.2
v 0 1.4 0.1
v 0 1.5 0.3
v 0 1.5 0.2
v -0.4 1.3 0.5
v -0.4 1.4 0.5
v -0.3 1.2 0.5
v -0.3 1.3 0.5
v -0.3 1.4 0.5
v -0.3 1.5 0.5
v -0.2 1.2 0.5
v -0.2 1.3 0.5
v -0.2 1.4 0.5
v -0.2 1.5 0.5
v -0.1 1.3 0.5
v -0.1 1.4 0.5
v -0.5 1.3 0.4
v -0.5 1.4 0.4
v -0.4 1.2 0.4
v -0.4 1.3 0.4
v -0.4 1.4 0.4
v -0.4 1.5 0.4
v -0.3 1.1 0.4
v -0.3 1.2 0.4
v -0.3 1.3 0.4
v -0.3 1.4 0.4
v -0.3 1.5 0.4
v -0.3 1.6 0.4
v -0.2 1.1 0.4
v -0.2 1.2 0.4
v -0.2 1.3 0.4
v -0.2 1.4 0.4
v -0.2 1.5 0.4
v -0.2 1.6 0.4
v -0.1 1.2 0.4
v -0.1 1.3 0.4
v -0.1 1.4 0.4
v -0.1 1.5 0.4
v 0 1.3 0.4
v 0 1.4 0.4
v -0.5 1.2 0.3
v -0.5 1.3 0.3
v -0.5 1.4 0.3
v -0.5 1.5 0.3
v -0.4 1.1 0.3
v -0.4 1.2 0.3
v -0.4 1.3 0.3
v -0.4 1.4 0.3
v -0.4 1.5 0.3
v -0.4 1.6 0.3
v -0.3 1.1 0.3
v -0.3 1.2 0.3
v -0.3 1.5 0.3
v -0.3 1.6 0.3
v -0.2 1.1 0.3
v -0.2 1.2 0.3
v -0.2 1.5 0.3
v -0.2 1.6 0.3
v -0.1 1.1 0.3
v -0.1 1.2 0.3
v -0.1 1.3 0.3
v -0.1 1.4 0.3
v -0.1 1.5 0.3
v -0.1 1.6 0.3
v 0 1.2 0.3
v 0 1.3 0.3
v 0 1.4 0.3
v 0 1.5 0.3
v -0.5 1.2 0.2
v -0.5 1.3 0.2
v -0.5 1.4 0.2
v -0.5 1.5 0.2
v -0.4 1.1 0.2
v -0.4 1.2 0.2
v -0.4 1.3 0.2
v -0.4 1.4 0.2
v -0.4 1.5 0.2
v -0.4 1.6 0.2
v -0.3 1.1 0.2
v -0.3 1.2 0.2
v -0.3 1.5 0.2
v -0.3 1.6 0.2
v -0.2 1.1 0.2
v -0.2 1.2 0.2
v -0.2 1.5 0.2
v -0.2 1.6 0.2
v -0.1 1.1 0.2
v -0.1 1.2 0.2
v -0.1 1.3 0.2
v -0.1 1.4 0.2
v -0.1 1.5 0.2
v -0.1 1.6 0.2
v 0 1.2 0.2
v 0 1.3 0.2
v 0 1.4 0.2
v 0 1.5 0.2
v -0.5 1.3 0.1
v -0.5 1.4 0.1
v -0.4 1.2 0.1
v -0.4 1.3 0.1
v -0.4 1.4 0.1
v -0.4 1.5 0.1
v -0.3 1.1 0.1
v -0.3 1.2 0.1
v -0.3 1.3 0.1
v -0.3 1.4 0.1
v -0.3 1.5 0.1
v -0.3 1.6 0.1
v -0.2 1.1 0.1
v -0.2 1.2 0.1
v -0.2 1.3 0.1
v -0.2 1.4 0.1
v -0.2 1.5 0.1
v -0.2 1.6 0.1
v -0.1 1.2 0.1
v -0.1 1.3 0.1
v -0.1 1.4 0.1
v -0.1 1.5 0.1
v 0 1.3 0.1
v 0 1.4 0.1
v -0.4 1.3 -0.2
v -0.4 1.4 -0.2
v -0.3 1.2 -0.2
v -0.3 1.3 -0.2
v -0.3 1.4 -0.2
v -0.3 1.5 -0.2
v -0.2 1.2 -0.2
v -0.2 1.3 -0.2
v -0.2 1.4 -0.2
v -0.2 1.5 -0.2
v -0.1 1.3 -0.2
v -0.1 1.4 -0.2
v -0.3 1.3 -0.8
v -0.3 1.4 -0.8
v -0.2 1.3 -0.8
v -0.2 1.4 -0.8
v -0.3 1.1 0.4
v -0.2 1.1 0.4
v -0.4 1.1 0.3
v -0.3 1.1 0.3
v -0.2 1.1 0.3
v -0.1 1.1 0.3
v -0.4 1.1 0.2
v -0.3 1.1 0.2
v -0.2 1.1 0.2
v -0.1 1.1 0.2
v -0.3 1.1 0.1
v -0.2 1.1 0.1
v -0.3 1.2 0.5
v -0.2 1.2 0.5
v -0.4 1.2 0.4
v -0.3 1.2 0.4
v -0.2 1.2 0.4
v -0.1 1.2 0.4
v -0.5 1.2 0.3
v -0.4 1.2 0.3
v -0.3 1.2 0.3
v -0.2 1.2 0.3
v -0.1 1.2 0.3
v 0 1.2 0.3
v -0.5 1.2 0.2
v -0.4 1.2 0.2
v -0.3 1.2 0.2
v -0.2 1.2 0.2
v -0.1 1.2 0.2
v 0 1.2 0.2
v -0.4 1.2 0.1
v -0.3 1.2 0.1
v -0.2 1.2 0.1
v -0.1 1.2 0.1
v -0.3 1.2 -0.2
v -0.2 1.2 -0.2
v -0.4 1.3 0.5
v -0.3 1.3 0.5
v -0.2 1.3 0.5
v -0.1 1.3 0.5
v -0.5 1.3 0.4
v -0.4 1.3 0.4
v -0.3 1.3 0.4
v -0.2 1.3 0.4
v -0.1 1.3 0.4
v 0 1.3 0.4
v -0.5 1.3 0.3
v -0.4 1.3 0.3
v -0.1 1.3 0.3
v 0 1.3 0.3
v -0.5 1.3 0.2
v -0.4 1.3 0.2
v -0.1 1.3 0.2
v 0 1.3 0.2
v -0.5 1.3 0.1
v -0.4 1.3 0.1
v -0.3 1.3 0.1
v -0.2 1.3 0.1
v -0.1 1.3 0.1
v 0 1.3 0.1
v -0.4 1.3 -0.2
v -0.3 1.3 -0.2
v -0.2 1.3 -0.2
v -0.1 1.3 -0.2
v -0.3 1.3 -0.6
v -0.2 1.3 -0.6
v -0.3 1.3 -0.8
v -0.2 1.3 -0.8
v -0.4 1.4 0.5
v -0.3 1.4 0.5
v -0.2 1.4 0.5
v -0.1 1.4 0.5
v -0.5 1.4 0.4
v -0.4 1.4 0.4
v -0.3 1.4 0.4
v -0.2 1.4 0.4
v -0.1 1.4 0.4
v 0 1.4 0.4
v -0.5 1.4 0.3
v -0.4 1.4 0.3
v -0.1 1.4 0.3
v 0 1.4 0.3
v -0.5 1.4 0.2
v -0.4 1.4 0.2
v -0.1 1.4 0.2
v 0 1.4 0.2
v -0.5 1.4 0.1
v -0.4 1.4 0.1
v -0.3 1.4 0.1
v -0.2 1.4 0.1
v -0.1 1.4 0.1
v 0 1.4 0.1
v -0.4 1.4 -0.2
v -0.3 1.4 -0.2
v -0.2 1.4 -0.2
v -0.1 1.4 -0.2
v -0.3 1.4 -0.6
v -0.2 1.4 -0.6
v -0.3 1.4 -0.8
v -0.2 1.4 -0.8
v -0.3 1.5 0.5
v -0.2 1.5 0.5
v -0.4 1.5 0.4
v -0.3 1.5 0.4
v -0.2 1.5 0.4
v -0.1 1.5 0.4
v -0.5 1.5 0.3
v -0.4 1.5 0.3
v -0.3 1.5 0.3
v -0.2 1.5 0.3
v -0.1 1.5 0.3
v 0 1.5 0.3
v -0.5 1.5 0.2
v -0.4 1.5 0.2
v -0.3 1.5 0.2
v -0.2 1.5 0.2
v -0.1 1.5 0.2
v 0 1.5 0.2
v -0.4 1.5 0.1
v -0.3 1.5 0.1
v -0.2 1.5 0.1
v -0.1 1.5 0.1
v -0.3 1.5 -0.2
v -0.2 1.5 -0.2
v -0.3 1.6 0.4
v -0.2 1.6 0.4
v -0.4 1.6 0.3
v -0.3 1.6 0.3
v -0.2 1.6 0.3
v -0.1 1.6 0.3
v -0.4 1.6 0.2
v -0.3 1.6 0.2
v -0.2 1.6 0.2
v -0.1 1.6 0.2
v -0.3 1.6 0.1
v -0.2 1.6 0.1

# faces
f 4/2/1 2/2/1 1/2/1
f 5/2/1 2/2/1 4/2/1
f 7/1/1 4/1/1 3/1/1
f 8/3/1 5/3/1 4/3/1
f 8/1/1 4/1/1 7/1/1
f 9/1/1 6/1/1 5/1/1
f 9/3/1 5/3/1 8/3/1
f 10/1/1 6/1/1 9/1/1
f 11/2/1 9/2/1 8/2/1
f 12/2/1 9/2/1 11/2/1
f 16/2/1 14/2/1 13/2/1
f 17/2/1 14/2/1 16/2/1
f 20/1/1 16/1/1 15/1/1
f 21/1/1 16/1/1 20/1/1
f 22/1/1 18/1/1 17/1/1
f 23/1/1 18/1/1 22/1/1
f 25/1/1 20/1/1 19/1/1
f 26/1/1 20/1/1 25/1/1
f 29/2/1 24/2/1 23/2/1
f 30/2/1 24/2/1 29/2/1
f 31/1/1 27/1/1 26/1/1
f 32/1/1 27/1/1 31/1/1
f 33/1/1 29/1/1 28/1/1
f 34/1/1 29/1/1 33/1/1
f 35/2/1 33/2/1 32/2/1
f 36/2/1 33/2/1 35/2/1
f 42/2/1 38/2/1 37/2/1
f 43/2/1 38/2/1 42/2/1
f 44/2/1 40/2/1 39/2/1
f 45/2/1 40/2/1 44/2/1
f 47/2/1 42/2/1 41/2/1
f 48/2/1 42/2/1 47/2/1
f 49/2/1 46/2/1 45/2/1
f 50/2/1 46/2/1 49/2/1
f 56/2/1 51/2/1 50/2/1
f 57/3/1 52/3/1 51/3/1
f 57/2/1 51/2/1 56/2/1
f 58/3/1 52/3/1 57/3/1
f 59/2/1 54/2/1 53/2/1
f 60/2/1 54/2/1 59/2/1
f 63/2/1 56/2/1 55/2/1
f 64/2/1 56/2/1 63/2/1
f 65/2/1 61/2/1 60/2/1
f 66/2/1 61/2/1 65/2/1
f 67/2/1 63/2/1 62/2/1
f 68/2/1 63/2/1 67/2/1
f 69/2/2 70/2/2 74/2/2
f 74/2/2 70/2/2 75/2/2
f 71/2/2 72/2/2 76/2/2
f 76/2/2 72/2/2 77/2/2
f 73/2/2 74/2/2 79/2/2
f 79/2/2 74/2/2 80/2/2
f 77/2/2 78/2/2 81/2/2
f 81/2/2 78/2/2 82/2/2
f 82/2/2 83/2/2 88/2/2
f 83/3/2 84/3/2 89/3/2
f 88/2/2 83/2/2 89/2/2
f 89/3/2 84/3/2 90/3/2
f 85/2/2 86/2/2 91/2/2
f 91/2/2 86/2/2 92/2/2
f 87/2/2 88/2/2 95/2/2
f 95/2/2 88/2/2 96/2/2
f 92/2/2 93/2/2 97/2/2
f 97/2/2 93/2/2 98/2/2
f 94/2/2 95/2/2 99/2/2
f 99/2/2 95/2/2 100/2/2
f 101/2/2 102/2/2 104/2/2
f 104/2/2 102/2/2 105/2/2
f 103/1/2 104/1/2 108/1/2
f 108/1/2 104/1/2 109/1/2
f 105/1/2 106/1/2 110/1/2
f 110/1/2 106/1/2 111/1/2
f 107/1/2 108/1/2 113/1/2
f 113/1/2 108/1/2 114/1/2
f 111/2/2 112/2/2 117/2/2
f 117/2/2 112/2/2 118/2/2
f 114/1/2 115/1/2 119/1/2
f 119/1/2 115/1/2 120/1/2
f 116/1/2 117/1/2 121/1/2
f 121/1/2 117/1/2 122/1/2
f 120/2/2 121/2/2 123/2/2
f 123/2/2 121/2/2 124/2/2
f 125/2/2 126/2/2 128/2/2
f 128/2/2 126/2/2 129/2/2
f 127/1/2 128/1/2 131/1/2
f 128/3/2 129/3/2 132/3/2
f 131/1/2 128/1/2 132/1/2
f 129/1/2 130/1/2 133/1/2
f 132/3/2 129/3/2 133/3/2
f 133/1/2 130/1/2 134/1/2
f 132/2/2 133/2/2 135/2/2
f 135/2/2 133/2/2 136/2/2
f 140/1/3 138/1/3 137/1/3
f 141/1/3 138/1/3 140/1/3
f 143/2/3 140/2/3 139/2/3
f 144/3/3 141/3/3 140/3/3
f 144/2/3 140/2/3 143/2/3
f 145/2/3 142/2/3 141/2/3
f 145/3/3 141/3/3 144/3/3
f 146/2/3 142/2/3 145/2/3
f 147/1/3 145/1/3 144/1/3
f 148/1/3 145/1/3 147/1/3
f 152/1/3 150/1/3 149/1/3
f 153/1/3 150/1/3 152/1/3
f 156/1/3 152/1/3 151/1/3
f 157/1/3 152/1/3 156/1/3
f 158/1/3 154/1/3 153/1/3
f 159/1/3 154/1/3 158/1/3
f 161/2/3 156/2/3 155/2/3
f 162/2/3 156/2/3 161/2/3
f 165/2/3 160/2/3 159/2/3
f 166/2/3 160/2/3 165/2/3
f 167/1/3 163/1/3 162/1/3
f 168/1/3 163/1/3 167/1/3
f 169/1/3 165/1/3 164/1/3
f 170/1/3 165/1/3 169/1/3
f 171/1/3 169/1/3 168/1/3
f 172/1/3 169/1/3 171/1/3
f 178/2/3 174/2/3 173/2/3
f 179/2/3 174/2/3 178/2/3
f 180/2/3 176/2/3 175/2/3
f 181/2/3 176/2/3 180/2/3
f 183/2/3 178/2/3 177/2/3
f 184/2/3 178/2/3 183/2/3
f 185/2/3 182/2/3 181/2/3
f 186/2/3 182/2/3 185/2/3
f 191/2/3 188/2/3 187/2/3
f 192/2/3 188/2/3 191/2/3
f 195/2/3 190/2/3 189/2/3
f 196/2/3 190/2/3 195/2/3
f 197/2/3 193/2/3 192/2/3
f 198/2/3 193/2/3 197/2/3
f 199/2/3 195/2/3 194/2/3
f 200/2/3 195/2/3 199/2/3
f 201/2/4 202/2/4 206/2/4
f 206/2/4 202/2/4 207/2/4
f 203/2/4 204/2/4 208/2/4
f 208/2/4 204/2/4 209/2/4
f 205/2/4 206/2/4 211/2/4
f 211/2/4 206/2/4 212/2/4
f 209/2/4 210/2/4 213/2/4
f 213/2/4 210/2/4 214/2/4
f 215/2/4 216/2/4 219/2/4
f 219/2/4 216/2/4 220/2/4
f 217/2/4 218/2/4 223/2/4
f 223/2/4 218/2/4 224/2/4
f 220/2/4 221/2/4 225/2/4
f 225/2/4 221/2/4 226/2/4
f 222/2/4 223/2/4 227/2/4
f 227/2/4 223/2/4 228/2/4
f 229/1/4 230/1/4 232/1/4
f 232/1/4 230/1/4 233/1/4
f 231/1/4 232/1/4 236/1/4
f 236/1/4 232/1/4 237/1/4
f 233/1/4 234/1/4 238/1/4
f 238/1/4 234/1/4 239/1/4
f 235/2/4 236/2/4 241/2/4
f 241/2/4 236/2/4 242/2/4
f 239/2/4 240/2/4 245/2/4
f 245/2/4 240/2/4 246/2/4
f 242/1/4 243/1/4 247/1/4
f 247/1/4 243/1/4 248/1/4
f 244/1/4 245/1/4 249/1/4
f 249/1/4 245/1/4 250/1/4
f 248/1/4 249/1/4 251/1/4
f 251/1/4 249/1/4 252/1/4
f 253/2/4 254/2/4 256/2/4
f 256/2/4 254/2/4 257/2/4
f 255/2/4 256/2/4 259/2/4
f 259/2/4 256/2/4 260/2/4
f 257/2/4 258/2/4 261/2/4
f 261/2/4 258/2/4 262/2/4
f 260/2/4 261/2/4 263/2/4
f 263/2/4 261/2/4 264/2/4
f 265/3/4 266/3/4 267/3/4
f 267/3/4 266/3/4 268/3/4
f 272/2/5 270/2/5 269/2/5
f 273/2/5 270/2/5 272/2/5
f 275/2/5 272/2/5 271/2/5
f 276/3/5 273/3/5 272/3/5
f 276/2/5 272/2/5 275/2/5
f 277/2/5 274/2/5 273/2/5
f 277/3/5 273/3/5 276/3/5
f 278/2/5 274/2/5 277/2/5
f 279/2/5 277/2/5 276/2/5
f 280/2/5 277/2/5 279/2/5
f 284/2/5 282/2/5 281/2/5
f 285/2/5 282/2/5 284/2/5
f 288/1/5 284/1/5 283/1/5
f 289/1/5 284/1/5 288/1/5
f 290/1/5 286/1/5 285/1/5
f 291/1/5 286/1/5 290/1/5
f 293/2/5 288/2/5 287/2/5
f 294/2/5 288/2/5 293/2/5
f 297/2/5 292/2/5 291/2/5
f 298/2/5 292/2/5 297/2/5
f 299/1/5 295/1/5 294/1/5
f 300/1/5 295/1/5 299/1/5
f 301/1/5 297/1/5 296/1/5
f 302/1/5 297/1/5 301/1/5
f 303/2/5 301/2/5 300/2/5
f 304/2/5 301/2/5 303/2/5
f 310/1/5 306/1/5 305/1/5
f 311/1/5 306/1/5 310/1/5
f 312/1/5 308/1/5 307/1/5
f 313/1/5 308/1/5 312/1/5
f 315/1/5 310/1/5 309/1/5
f 316/1/5 310/1/5 315/1/5
f 317/1/5 314/1/5 313/1/5
f 318/1/5 314/1/5 317/1/5
f 323/1/5 320/1/5 319/1/5
f 324/1/5 320/1/5 323/1/5
f 327/1/5 322/1/5 321/1/5
f 328/1/5 322/1/5 327/1/5
f 329/2/5 325/2/5 324/2/5
f 330/2/5 325/2/5 329/2/5
f 331/2/5 327/2/5 326/2/5
f 332/2/5 327/2/5 331/2/5
f 333/2/5 331/2/5 330/2/5
f 334/2/5 331/2/5 333/2/5
f 335/3/5 334/3/5 333/3/5
f 336/3/5 334/3/5 335/3/5
f 337/1/6 338/1/6 342/1/6
f 342/1/6 338/1/6 343/1/6
f 339/1/6 340/1/6 344/1/6
f 344/1/6 340/1/6 345/1/6
f 341/1/6 342/1/6 347/1/6
f 347/1/6 342/1/6 348/1/6
f 345/1/6 346/1/6 349/1/6
f 349/1/6 346/1/6 350/1/6
f 351/1/6 352/1/6 355/1/6
f 355/1/6 352/1/6 356/1/6
f 353/1/6 354/1/6 359/1/6
f 359/1/6 354/1/6 360/1/6
f 356/2/6 357/2/6 361/2/6
f 361/2/6 357/2/6 362/2/6
f 358/2/6 359/2/6 363/2/6
f 363/2/6 359/2/6 364/2/6
f 362/2/6 363/2/6 365/2/6
f 365/2/6 363/2/6 366/2/6
f 365/3/6 366/3/6 367/3/6
f 367/3/6 366/3/6 368/3/6
f 369/2/6 370/2/6 372/2/6
f 372/2/6 370/2/6 373/2/6
f 371/1/6 372/1/6 376/1/6
f 376/1/6 372/1/6 377/1/6
f 373/1/6 374/1/6 378/1/6
f 378/1/6 374/1/6 379/1/6
f 375/2/6 376/2/6 381/2/6
f 381/2/6 376/2/6 382/2/6
f 379/2/6 380/2/6 385/2/6
f 385/2/6 380/2/6 386/2/6
f 382/1/6 383/1/6 387/1/6
f 387/1/6 383/1/6 388/1/6
f 384/1/6 385/1/6 389/1/6
f 389/1/6 385/1/6 390/1/6
f 388/2/6 389/2/6 391/2/6
f 391/2/6 389/2/6 392/2/6
f 393/2/6 394/2/6 396/2/6
f 396/2/6 394/2/6 397/2/6
f 395/2/6 396/2/6 399/2/6
f 396/3/6 397/3/6 400/3/6
f 399/2/6 396/2/6 400/2/6
f 397/2/6 398/2/6 401/2/6
f 400/3/6 397/3/6 401/3/6
f 401/2/6 398/2/6 402/2/6
f 400/2/6 401/2/6 403/2/6
f 403/2/6 401/2/6 404/2/6
