# MagicaVoxel @ Ephtracy

# group
o 

# material
mtllib enemyShip.mtl
usemtl palette

# normals
vn -1 0 0
vn 1 0 0
vn 0 0 1
vn 0 0 -1
vn 0 -1 0
vn 0 1 0

# texcoords
vt 0.970703 0.5
vt 0.974609 0.5
vt 0.978516 0.5

# verts
v -0.8 0.1 0.4
v -0.8 0.1 0.3
v -0.8 0.1 0.1
v -0.8 0.1 0
v -0.8 0.2 0.4
v -0.8 0.2 0.3
v -0.8 0.2 0.1
v -0.8 0.2 0
v -0.7 0.1 0
v -0.7 0.1 -0.1
v -0.7 0.2 0
v -0.7 0.2 -0.1
v -0.5 0.1 -0.1
v -0.5 0.1 -0.2
v -0.5 0.2 -0.1
v -0.5 0.2 -0.2
v -0.2 0 0.2
v -0.2 0 0
v -0.2 0 -0.1
v -0.2 0 -0.2
v -0.2 0.1 0.5
v -0.2 0.1 0.2
v -0.2 0.1 0.1
v -0.2 0.1 0
v -0.2 0.1 -0.1
v -0.2 0.1 -0.2
v -0.2 0.1 -0.3
v -0.2 0.2 0.5
v -0.2 0.2 0.2
v -0.2 0.2 0.1
v -0.2 0.2 0
v -0.2 0.2 -0.1
v -0.2 0.2 -0.2
v -0.2 0.2 -0.3
v -0.2 0.3 0.2
v -0.2 0.3 0
v -0.2 0.3 -0.1
v -0.2 0.3 -0.2
v -0.1 0 0.5
v -0.1 0 0.2
v -0.1 0 -0.2
v -0.1 0 -0.4
v -0.1 0.1 0.9
v -0.1 0.1 0.7
v -0.1 0.1 0.5
v -0.1 0.1 0.2
v -0.1 0.1 -0.2
v -0.1 0.1 -0.3
v -0.1 0.1 -0.4
v -0.1 0.2 0.9
v -0.1 0.2 0.7
v -0.1 0.2 0.5
v -0.1 0.2 0.2
v -0.1 0.2 -0.2
v -0.1 0.2 -0.3
v -0.1 0.2 -0.4
v -0.1 0.3 0.5
v -0.1 0.3 0.2
v -0.1 0.3 -0.2
v -0.1 0.3 -0.4
v 0.4 0.1 0.2
v 0.4 0.1 0.1
v 0.4 0.2 0.2
v 0.4 0.2 0.1
v 0.6 0.1 0.4
v 0.6 0.1 0.3
v 0.6 0.1 0.2
v 0.6 0.2 0.4
v 0.6 0.2 0.3
v 0.6 0.2 0.2
v -0.7 0.1 0.4
v -0.7 0.1 0.3
v -0.7 0.1 0.2
v -0.7 0.2 0.4
v -0.7 0.2 0.3
v -0.7 0.2 0.2
v -0.5 0.1 0.2
v -0.5 0.1 0.1
v -0.5 0.2 0.2
v -0.5 0.2 0.1
v 0 0 0.5
v 0 0 0.2
v 0 0 -0.2
v 0 0 -0.4
v 0 0.1 0.9
v 0 0.1 0.7
v 0 0.1 0.5
v 0 0.1 0.2
v 0 0.1 -0.2
v 0 0.1 -0.3
v 0 0.1 -0.4
v 0 0.2 0.9
v 0 0.2 0.7
v 0 0.2 0.5
v 0 0.2 0.2
v 0 0.2 -0.2
v 0 0.2 -0.3
v 0 0.2 -0.4
v 0 0.3 0.5
v 0 0.3 0.2
v 0 0.3 -0.2
v 0 0.3 -0.4
v 0.1 0 0.2
v 0.1 0 0
v 0.1 0 -0.1
v 0.1 0 -0.2
v 0.1 0.1 0.5
v 0.1 0.1 0.2
v 0.1 0.1 0.1
v 0.1 0.1 0
v 0.1 0.1 -0.1
v 0.1 0.1 -0.2
v 0.1 0.1 -0.3
v 0.1 0.2 0.5
v 0.1 0.2 0.2
v 0.1 0.2 0.1
v 0.1 0.2 0
v 0.1 0.2 -0.1
v 0.1 0.2 -0.2
v 0.1 0.2 -0.3
v 0.1 0.3 0.2
v 0.1 0.3 0
v 0.1 0.3 -0.1
v 0.1 0.3 -0.2
v 0.4 0.1 -0.1
v 0.4 0.1 -0.2
v 0.4 0.2 -0.1
v 0.4 0.2 -0.2
v 0.6 0.1 0
v 0.6 0.1 -0.1
v 0.6 0.2 0
v 0.6 0.2 -0.1
v 0.7 0.1 0.4
v 0.7 0.1 0.3
v 0.7 0.1 0.1
v 0.7 0.1 0
v 0.7 0.2 0.4
v 0.7 0.2 0.3
v 0.7 0.2 0.1
v 0.7 0.2 0
v -0.1 0.1 0.9
v -0.1 0.2 0.9
v 0 0.1 0.9
v 0 0.2 0.9
v -0.2 0.1 0.5
v -0.2 0.2 0.5
v -0.1 0 0.5
v -0.1 0.1 0.5
v -0.1 0.2 0.5
v -0.1 0.3 0.5
v 0 0 0.5
v 0 0.1 0.5
v 0 0.2 0.5
v 0 0.3 0.5
v 0.1 0.1 0.5
v 0.1 0.2 0.5
v -0.8 0.1 0.4
v -0.8 0.2 0.4
v -0.7 0.1 0.4
v -0.7 0.2 0.4
v 0.6 0.1 0.4
v 0.6 0.2 0.4
v 0.7 0.1 0.4
v 0.7 0.2 0.4
v -0.7 0.1 0.2
v -0.7 0.2 0.2
v -0.5 0.1 0.2
v -0.5 0.2 0.2
v -0.2 0 0.2
v -0.2 0.1 0.2
v -0.2 0.2 0.2
v -0.2 0.3 0.2
v -0.1 0 0.2
v -0.1 0.1 0.2
v -0.1 0.2 0.2
v -0.1 0.3 0.2
v 0 0 0.2
v 0 0.1 0.2
v 0 0.2 0.2
v 0 0.3 0.2
v 0.1 0 0.2
v 0.1 0.1 0.2
v 0.1 0.2 0.2
v 0.1 0.3 0.2
v 0.4 0.1 0.2
v 0.4 0.2 0.2
v 0.6 0.1 0.2
v 0.6 0.2 0.2
v -0.5 0.1 0.1
v -0.5 0.2 0.1
v -0.2 0.1 0.1
v -0.2 0.2 0.1
v 0.1 0.1 0.1
v 0.1 0.2 0.1
v 0.4 0.1 0.1
v 0.4 0.2 0.1
v -0.8 0.1 0
v -0.8 0.2 0
v -0.7 0.1 0
v -0.7 0.2 0
v 0.6 0.1 0
v 0.6 0.2 0
v 0.7 0.1 0
v 0.7 0.2 0
v -0.7 0.1 -0.1
v -0.7 0.2 -0.1
v -0.5 0.1 -0.1
v -0.5 0.2 -0.1
v 0.4 0.1 -0.1
v 0.4 0.2 -0.1
v 0.6 0.1 -0.1
v 0.6 0.2 -0.1
v -0.5 0.1 -0.2
v -0.5 0.2 -0.2
v -0.2 0 -0.2
v -0.2 0.1 -0.2
v -0.2 0.2 -0.2
v -0.2 0.3 -0.2
v -0.1 0 -0.2
v -0.1 0.1 -0.2
v -0.1 0.2 -0.2
v -0.1 0.3 -0.2
v 0 0 -0.2
v 0 0.1 -0.2
v 0 0.2 -0.2
v 0 0.3 -0.2
v 0.1 0 -0.2
v 0.1 0.1 -0.2
v 0.1 0.2 -0.2
v 0.1 0.3 -0.2
v 0.4 0.1 -0.2
v 0.4 0.2 -0.2
v -0.2 0.1 -0.3
v -0.2 0.2 -0.3
v -0.1 0.1 -0.3
v -0.1 0.2 -0.3
v 0 0.1 -0.3
v 0 0.2 -0.3
v 0.1 0.1 -0.3
v 0.1 0.2 -0.3
v -0.1 0 -0.4
v -0.1 0.1 -0.4
v -0.1 0.2 -0.4
v -0.1 0.3 -0.4
v 0 0 -0.4
v 0 0.1 -0.4
v 0 0.2 -0.4
v 0 0.3 -0.4
v -0.1 0 0.5
v 0 0 0.5
v -0.2 0 0.2
v -0.1 0 0.2
v 0 0 0.2
v 0.1 0 0.2
v -0.2 0 0
v -0.1 0 0
v 0 0 0
v 0.1 0 0
v -0.2 0 -0.1
v -0.1 0 -0.1
v 0 0 -0.1
v 0.1 0 -0.1
v -0.2 0 -0.2
v -0.1 0 -0.2
v 0 0 -0.2
v 0.1 0 -0.2
v -0.1 0 -0.4
v 0 0 -0.4
v -0.1 0.1 0.9
v 0 0.1 0.9
v -0.1 0.1 0.7
v 0 0.1 0.7
v -0.2 0.1 0.5
v -0.1 0.1 0.5
v 0 0.1 0.5
v 0.1 0.1 0.5
v -0.8 0.1 0.4
v -0.7 0.1 0.4
v 0.6 0.1 0.4
v 0.7 0.1 0.4
v -0.8 0.1 0.3
v -0.7 0.1 0.3
v 0.6 0.1 0.3
v 0.7 0.1 0.3
v -0.7 0.1 0.2
v -0.5 0.1 0.2
v -0.2 0.1 0.2
v -0.1 0.1 0.2
v 0 0.1 0.2
v 0.1 0.1 0.2
v 0.4 0.1 0.2
v 0.6 0.1 0.2
v -0.8 0.1 0.1
v -0.7 0.1 0.1
v -0.5 0.1 0.1
v -0.2 0.1 0.1
v 0.1 0.1 0.1
v 0.4 0.1 0.1
v 0.6 0.1 0.1
v 0.7 0.1 0.1
v -0.8 0.1 0
v -0.7 0.1 0
v -0.5 0.1 0
v -0.2 0.1 0
v 0.1 0.1 0
v 0.4 0.1 0
v 0.6 0.1 0
v 0.7 0.1 0
v -0.7 0.1 -0.1
v -0.5 0.1 -0.1
v -0.2 0.1 -0.1
v 0.1 0.1 -0.1
v 0.4 0.1 -0.1
v 0.6 0.1 -0.1
v -0.5 0.1 -0.2
v -0.2 0.1 -0.2
v -0.1 0.1 -0.2
v 0 0.1 -0.2
v 0.1 0.1 -0.2
v 0.4 0.1 -0.2
v -0.2 0.1 -0.3
v -0.1 0.1 -0.3
v 0 0.1 -0.3
v 0.1 0.1 -0.3
v -0.1 0.2 -0.3
v 0 0.2 -0.3
v -0.1 0.2 -0.4
v 0 0.2 -0.4
v -0.1 0.1 -0.3
v 0 0.1 -0.3
v -0.1 0.1 -0.4
v 0 0.1 -0.4
v -0.1 0.2 0.9
v 0 0.2 0.9
v -0.1 0.2 0.7
v 0 0.2 0.7
v -0.2 0.2 0.5
v -0.1 0.2 0.5
v 0 0.2 0.5
v 0.1 0.2 0.5
v -0.8 0.2 0.4
v -0.7 0.2 0.4
v 0.6 0.2 0.4
v 0.7 0.2 0.4
v -0.8 0.2 0.3
v -0.7 0.2 0.3
v 0.6 0.2 0.3
v 0.7 0.2 0.3
v -0.7 0.2 0.2
v -0.5 0.2 0.2
v -0.2 0.2 0.2
v -0.1 0.2 0.2
v 0 0.2 0.2
v 0.1 0.2 0.2
v 0.4 0.2 0.2
v 0.6 0.2 0.2
v -0.8 0.2 0.1
v -0.7 0.2 0.1
v -0.5 0.2 0.1
v -0.2 0.2 0.1
v 0.1 0.2 0.1
v 0.4 0.2 0.1
v 0.6 0.2 0.1
v 0.7 0.2 0.1
v -0.8 0.2 0
v -0.7 0.2 0
v -0.5 0.2 0
v -0.2 0.2 0
v 0.1 0.2 0
v 0.4 0.2 0
v 0.6 0.2 0
v 0.7 0.2 0
v -0.7 0.2 -0.1
v -0.5 0.2 -0.1
v -0.2 0.2 -0.1
v 0.1 0.2 -0.1
v 0.4 0.2 -0.1
v 0.6 0.2 -0.1
v -0.5 0.2 -0.2
v -0.2 0.2 -0.2
v -0.1 0.2 -0.2
v 0 0.2 -0.2
v 0.1 0.2 -0.2
v 0.4 0.2 -0.2
v -0.2 0.2 -0.3
v -0.1 0.2 -0.3
v 0 0.2 -0.3
v 0.1 0.2 -0.3
v -0.1 0.3 0.5
v 0 0.3 0.5
v -0.2 0.3 0.2
v -0.1 0.3 0.2
v 0 0.3 0.2
v 0.1 0.3 0.2
v -0.2 0.3 0
v -0.1 0.3 0
v 0 0.3 0
v 0.1 0.3 0
v -0.2 0.3 -0.1
v -0.1 0.3 -0.1
v 0 0.3 -0.1
v 0.1 0.3 -0.1
v -0.2 0.3 -0.2
v -0.1 0.3 -0.2
v 0 0.3 -0.2
v 0.1 0.3 -0.2
v -0.1 0.3 -0.4
v 0 0.3 -0.4

# faces
f 5/3/1 2/3/1 1/3/1
f 6/2/1 3/2/1 2/2/1
f 6/3/1 2/3/1 5/3/1
f 7/1/1 4/1/1 3/1/1
f 7/2/1 3/2/1 6/2/1
f 8/1/1 4/1/1 7/1/1
f 11/1/1 10/1/1 9/1/1
f 12/1/1 10/1/1 11/1/1
f 15/1/1 14/1/1 13/1/1
f 16/1/1 14/1/1 15/1/1
f 22/1/1 18/1/1 17/1/1
f 23/1/1 18/1/1 22/1/1
f 24/2/1 19/2/1 18/2/1
f 24/1/1 18/1/1 23/1/1
f 25/1/1 20/1/1 19/1/1
f 25/2/1 19/2/1 24/2/1
f 26/1/1 20/1/1 25/1/1
f 28/2/1 23/2/1 22/2/1
f 28/2/1 22/2/1 21/2/1
f 29/2/1 23/2/1 28/2/1
f 30/2/1 23/2/1 29/2/1
f 33/1/1 27/1/1 26/1/1
f 34/1/1 27/1/1 33/1/1
f 35/1/1 30/1/1 29/1/1
f 35/1/1 31/1/1 30/1/1
f 36/2/1 32/2/1 31/2/1
f 36/1/1 31/1/1 35/1/1
f 37/1/1 33/1/1 32/1/1
f 37/2/1 32/2/1 36/2/1
f 38/1/1 33/1/1 37/1/1
f 45/2/1 40/2/1 39/2/1
f 46/2/1 40/2/1 45/2/1
f 47/2/1 42/2/1 41/2/1
f 48/2/1 42/2/1 47/2/1
f 49/2/1 42/2/1 48/2/1
f 50/3/1 44/3/1 43/3/1
f 51/2/1 45/2/1 44/2/1
f 51/3/1 44/3/1 50/3/1
f 52/2/1 45/2/1 51/2/1
f 57/2/1 53/2/1 52/2/1
f 58/2/1 53/2/1 57/2/1
f 59/2/1 56/2/1 55/2/1
f 59/2/1 55/2/1 54/2/1
f 60/2/1 56/2/1 59/2/1
f 63/1/1 62/1/1 61/1/1
f 64/1/1 62/1/1 63/1/1
f 68/3/1 66/3/1 65/3/1
f 69/2/1 67/2/1 66/2/1
f 69/3/1 66/3/1 68/3/1
f 70/2/1 67/2/1 69/2/1
f 71/3/2 72/3/2 74/3/2
f 72/2/2 73/2/2 75/2/2
f 74/3/2 72/3/2 75/3/2
f 75/2/2 73/2/2 76/2/2
f 77/1/2 78/1/2 79/1/2
f 79/1/2 78/1/2 80/1/2
f 81/2/2 82/2/2 87/2/2
f 87/2/2 82/2/2 88/2/2
f 83/2/2 84/2/2 89/2/2
f 89/2/2 84/2/2 90/2/2
f 90/2/2 84/2/2 91/2/2
f 85/3/2 86/3/2 92/3/2
f 86/2/2 87/2/2 93/2/2
f 92/3/2 86/3/2 93/3/2
f 93/2/2 87/2/2 94/2/2
f 94/2/2 95/2/2 99/2/2
f 99/2/2 95/2/2 100/2/2
f 97/2/2 98/2/2 101/2/2
f 96/2/2 97/2/2 101/2/2
f 101/2/2 98/2/2 102/2/2
f 103/1/2 104/1/2 108/1/2
f 108/1/2 104/1/2 109/1/2
f 104/2/2 105/2/2 110/2/2
f 109/1/2 104/1/2 110/1/2
f 105/1/2 106/1/2 111/1/2
f 110/2/2 105/2/2 111/2/2
f 111/1/2 106/1/2 112/1/2
f 108/2/2 109/2/2 114/2/2
f 107/2/2 108/2/2 114/2/2
f 114/2/2 109/2/2 115/2/2
f 115/2/2 109/2/2 116/2/2
f 112/1/2 113/1/2 119/1/2
f 119/1/2 113/1/2 120/1/2
f 115/1/2 116/1/2 121/1/2
f 116/1/2 117/1/2 121/1/2
f 117/2/2 118/2/2 122/2/2
f 121/1/2 117/1/2 122/1/2
f 118/1/2 119/1/2 123/1/2
f 122/2/2 118/2/2 123/2/2
f 123/1/2 119/1/2 124/1/2
f 125/1/2 126/1/2 127/1/2
f 127/1/2 126/1/2 128/1/2
f 129/1/2 130/1/2 131/1/2
f 131/1/2 130/1/2 132/1/2
f 133/3/2 134/3/2 137/3/2
f 134/2/2 135/2/2 138/2/2
f 137/3/2 134/3/2 138/3/2
f 135/1/2 136/1/2 139/1/2
f 138/2/2 135/2/2 139/2/2
f 139/1/2 136/1/2 140/1/2
f 143/3/3 142/3/3 141/3/3
f 144/3/3 142/3/3 143/3/3
f 148/2/3 146/2/3 145/2/3
f 149/2/3 146/2/3 148/2/3
f 151/2/3 148/2/3 147/2/3
f 152/2/3 148/2/3 151/2/3
f 153/2/3 150/2/3 149/2/3
f 154/2/3 150/2/3 153/2/3
f 155/2/3 153/2/3 152/2/3
f 156/2/3 153/2/3 155/2/3
f 159/3/3 158/3/3 157/3/3
f 160/3/3 158/3/3 159/3/3
f 163/3/3 162/3/3 161/3/3
f 164/3/3 162/3/3 163/3/3
f 167/1/3 166/1/3 165/1/3
f 168/1/3 166/1/3 167/1/3
f 173/1/3 170/1/3 169/1/3
f 174/1/3 170/1/3 173/1/3
f 175/1/3 172/1/3 171/1/3
f 176/1/3 172/1/3 175/1/3
f 181/1/3 178/1/3 177/1/3
f 182/1/3 178/1/3 181/1/3
f 183/1/3 180/1/3 179/1/3
f 184/1/3 180/1/3 183/1/3
f 187/1/3 186/1/3 185/1/3
f 188/1/3 186/1/3 187/1/3
f 191/1/3 190/1/3 189/1/3
f 192/1/3 190/1/3 191/1/3
f 195/1/3 194/1/3 193/1/3
f 196/1/3 194/1/3 195/1/3
f 197/1/4 198/1/4 199/1/4
f 199/1/4 198/1/4 200/1/4
f 201/1/4 202/1/4 203/1/4
f 203/1/4 202/1/4 204/1/4
f 205/1/4 206/1/4 207/1/4
f 207/1/4 206/1/4 208/1/4
f 209/1/4 210/1/4 211/1/4
f 211/1/4 210/1/4 212/1/4
f 213/1/4 214/1/4 216/1/4
f 216/1/4 214/1/4 217/1/4
f 215/1/4 216/1/4 219/1/4
f 219/1/4 216/1/4 220/1/4
f 217/1/4 218/1/4 221/1/4
f 221/1/4 218/1/4 222/1/4
f 223/1/4 224/1/4 227/1/4
f 227/1/4 224/1/4 228/1/4
f 225/1/4 226/1/4 229/1/4
f 229/1/4 226/1/4 230/1/4
f 228/1/4 229/1/4 231/1/4
f 231/1/4 229/1/4 232/1/4
f 233/1/4 234/1/4 235/1/4
f 235/1/4 234/1/4 236/1/4
f 235/3/4 236/3/4 237/3/4
f 237/3/4 236/3/4 238/3/4
f 237/1/4 238/1/4 239/1/4
f 239/1/4 238/1/4 240/1/4
f 241/2/4 242/2/4 245/2/4
f 245/2/4 242/2/4 246/2/4
f 243/2/4 244/2/4 247/2/4
f 247/2/4 244/2/4 248/2/4
f 252/2/5 250/2/5 249/2/5
f 253/2/5 250/2/5 252/2/5
f 255/1/5 252/1/5 251/1/5
f 256/2/5 253/2/5 252/2/5
f 256/1/5 252/1/5 255/1/5
f 257/1/5 254/1/5 253/1/5
f 257/2/5 253/2/5 256/2/5
f 258/1/5 254/1/5 257/1/5
f 259/2/5 256/2/5 255/2/5
f 259/2/5 257/2/5 256/2/5
f 259/2/5 258/2/5 257/2/5
f 260/2/5 258/2/5 259/2/5
f 261/2/5 258/2/5 260/2/5
f 262/2/5 258/2/5 261/2/5
f 263/1/5 260/1/5 259/1/5
f 264/2/5 261/2/5 260/2/5
f 264/1/5 260/1/5 263/1/5
f 265/1/5 262/1/5 261/1/5
f 265/2/5 261/2/5 264/2/5
f 266/1/5 262/1/5 265/1/5
f 267/2/5 265/2/5 264/2/5
f 268/2/5 265/2/5 267/2/5
f 271/3/5 270/3/5 269/3/5
f 272/3/5 270/3/5 271/3/5
f 274/2/5 272/2/5 271/2/5
f 275/2/5 272/2/5 274/2/5
f 281/3/5 278/3/5 277/3/5
f 282/3/5 278/3/5 281/3/5
f 283/3/5 280/3/5 279/3/5
f 284/3/5 280/3/5 283/3/5
f 285/2/5 282/2/5 281/2/5
f 287/2/5 274/2/5 273/2/5
f 288/2/5 274/2/5 287/2/5
f 289/2/5 276/2/5 275/2/5
f 290/2/5 276/2/5 289/2/5
f 292/2/5 284/2/5 283/2/5
f 293/2/5 285/2/5 281/2/5
f 294/1/5 286/1/5 285/1/5
f 294/2/5 285/2/5 293/2/5
f 295/1/5 286/1/5 294/1/5
f 298/1/5 292/1/5 291/1/5
f 299/2/5 284/2/5 292/2/5
f 299/1/5 292/1/5 298/1/5
f 300/2/5 284/2/5 299/2/5
f 301/1/5 294/1/5 293/1/5
f 302/2/5 295/2/5 294/2/5
f 302/1/5 294/1/5 301/1/5
f 303/1/5 296/1/5 295/1/5
f 303/2/5 295/2/5 302/2/5
f 304/1/5 296/1/5 303/1/5
f 305/1/5 298/1/5 297/1/5
f 306/2/5 299/2/5 298/2/5
f 306/1/5 298/1/5 305/1/5
f 307/1/5 300/1/5 299/1/5
f 307/2/5 299/2/5 306/2/5
f 308/1/5 300/1/5 307/1/5
f 309/1/5 303/1/5 302/1/5
f 310/2/5 304/2/5 303/2/5
f 310/1/5 303/1/5 309/1/5
f 311/2/5 304/2/5 310/2/5
f 312/2/5 306/2/5 305/2/5
f 313/1/5 307/1/5 306/1/5
f 313/2/5 306/2/5 312/2/5
f 314/1/5 307/1/5 313/1/5
f 315/1/5 311/1/5 310/1/5
f 316/1/5 311/1/5 315/1/5
f 319/1/5 313/1/5 312/1/5
f 320/1/5 313/1/5 319/1/5
f 321/1/5 317/1/5 316/1/5
f 322/1/5 317/1/5 321/1/5
f 323/1/5 319/1/5 318/1/5
f 324/1/5 319/1/5 323/1/5
f 327/2/5 326/2/5 325/2/5
f 328/2/5 326/2/5 327/2/5
f 329/2/6 330/2/6 331/2/6
f 331/2/6 330/2/6 332/2/6
f 333/3/6 334/3/6 335/3/6
f 335/3/6 334/3/6 336/3/6
f 335/2/6 336/2/6 338/2/6
f 338/2/6 336/2/6 339/2/6
f 341/3/6 342/3/6 345/3/6
f 345/3/6 342/3/6 346/3/6
f 343/3/6 344/3/6 347/3/6
f 347/3/6 344/3/6 348/3/6
f 345/2/6 346/2/6 349/2/6
f 337/2/6 338/2/6 351/2/6
f 351/2/6 338/2/6 352/2/6
f 339/2/6 340/2/6 353/2/6
f 353/2/6 340/2/6 354/2/6
f 347/2/6 348/2/6 356/2/6
f 345/2/6 349/2/6 357/2/6
f 349/1/6 350/1/6 358/1/6
f 357/2/6 349/2/6 358/2/6
f 358/1/6 350/1/6 359/1/6
f 355/1/6 356/1/6 362/1/6
f 356/2/6 348/2/6 363/2/6
f 362/1/6 356/1/6 363/1/6
f 363/2/6 348/2/6 364/2/6
f 357/1/6 358/1/6 365/1/6
f 358/2/6 359/2/6 366/2/6
f 365/1/6 358/1/6 366/1/6
f 359/1/6 360/1/6 367/1/6
f 366/2/6 359/2/6 367/2/6
f 367/1/6 360/1/6 368/1/6
f 361/1/6 362/1/6 369/1/6
f 362/2/6 363/2/6 370/2/6
f 369/1/6 362/1/6 370/1/6
f 363/1/6 364/1/6 371/1/6
f 370/2/6 363/2/6 371/2/6
f 371/1/6 364/1/6 372/1/6
f 366/1/6 367/1/6 373/1/6
f 367/2/6 368/2/6 374/2/6
f 373/1/6 367/1/6 374/1/6
f 374/2/6 368/2/6 375/2/6
f 369/2/6 370/2/6 376/2/6
f 370/1/6 371/1/6 377/1/6
f 376/2/6 370/2/6 377/2/6
f 377/1/6 371/1/6 378/1/6
f 374/1/6 375/1/6 379/1/6
f 379/1/6 375/1/6 380/1/6
f 376/1/6 377/1/6 383/1/6
f 383/1/6 377/1/6 384/1/6
f 380/1/6 381/1/6 385/1/6
f 385/1/6 381/1/6 386/1/6
f 382/1/6 383/1/6 387/1/6
f 387/1/6 383/1/6 388/1/6
f 389/2/6 390/2/6 392/2/6
f 392/2/6 390/2/6 393/2/6
f 391/1/6 392/1/6 395/1/6
f 392/2/6 393/2/6 396/2/6
f 395/1/6 392/1/6 396/1/6
f 393/1/6 394/1/6 397/1/6
f 396/2/6 393/2/6 397/2/6
f 397/1/6 394/1/6 398/1/6
f 395/2/6 396/2/6 399/2/6
f 396/2/6 397/2/6 399/2/6
f 397/2/6 398/2/6 399/2/6
f 399/2/6 398/2/6 400/2/6
f 400/2/6 398/2/6 401/2/6
f 401/2/6 398/2/6 402/2/6
f 399/1/6 400/1/6 403/1/6
f 400/2/6 401/2/6 404/2/6
f 403/1/6 400/1/6 404/1/6
f 401/1/6 402/1/6 405/1/6
f 404/2/6 401/2/6 405/2/6
f 405/1/6 402/1/6 406/1/6
f 404/2/6 405/2/6 407/2/6
f 407/2/6 405/2/6 408/2/6
