# Blender v2.90.1 OBJ File: 'ship2.blend'
# www.blender.org
mtllib ship2.mtl
o Cube
v 0.758387 0.134128 -0.770000
v 0.758387 -0.026987 -0.770000
v 0.758387 0.134128 0.770000
v 0.758387 -0.026987 0.770000
v -0.758387 0.134128 -0.770000
v -0.758387 -0.026987 -0.770000
v -0.758387 0.134128 0.770000
v -0.758387 -0.026987 0.770000
v -0.317847 -0.171489 2.810524
v -0.317847 0.364128 2.810524
v 0.317847 0.364128 2.810524
v 0.317847 -0.171489 2.810524
v -0.072824 0.035949 7.795835
v -0.072824 0.071192 7.795835
v -0.027176 0.071192 7.795835
v -0.027176 0.035949 7.795835
v 0.324758 0.706489 1.000000
v -0.324758 0.706489 1.000000
v 0.324758 0.706489 -1.000000
v -0.324758 0.706489 -1.000000
v -0.202646 -0.052450 -2.451526
v 0.202646 -0.052450 -2.451526
v 0.202646 0.304278 -2.451526
v -0.202646 0.304278 -2.451526
v -0.000000 -0.330918 -1.000000
v -0.000000 -0.330918 1.000000
v -0.000000 -0.236883 2.835102
v 0.301684 -0.112300 -2.451526
v -0.301684 -0.112300 -2.451526
v 0.301684 0.364128 -2.451526
v -0.301684 0.364128 -2.451526
v 0.221477 -0.062007 -3.000019
v -0.221477 -0.062007 -3.000019
v 0.221477 0.313835 -3.000019
v -0.221477 0.313835 -3.000019
v 0.324537 -0.124287 -3.000019
v -0.324537 -0.124287 -3.000019
v 0.324537 0.376114 -3.000019
v -0.324537 0.376114 -3.000019
v 0.221477 -0.062007 -2.679730
v -0.221477 -0.062007 -2.679730
v 0.221477 0.313835 -2.679730
v -0.221477 0.313835 -2.679730
v -0.758387 -0.256987 -1.000000
v -0.758387 -0.256987 1.000000
v 0.758387 0.364128 -1.000000
v 0.758387 -0.256987 -1.000000
v -0.758387 0.364128 1.000000
v 0.758387 0.364128 1.000000
v 0.758387 -0.256987 1.000000
v -0.758387 0.364128 -1.000000
v -5.258388 0.038005 4.052281
v -5.258388 0.069136 4.052281
v -5.258388 0.069136 3.264283
v -5.258388 0.038005 3.264283
v 5.258388 0.038005 3.264283
v 5.258388 0.069136 3.264283
v 5.258388 0.069136 4.052281
v 5.258388 0.038005 4.052281
vt 0.625000 0.500000
vt 0.625000 0.500000
vt 0.625000 0.500000
vt 0.625000 0.000000
vt 0.375000 0.000000
vt 0.375000 0.000000
vt 0.625000 0.000000
vt 0.375000 0.750000
vt 0.625000 0.750000
vt 0.625000 0.750000
vt 0.375000 0.750000
vt 0.625000 0.000000
vt 0.375000 0.000000
vt 0.375000 0.750000
vt 0.625000 0.750000
vt 0.625000 1.000000
vt 0.375000 1.000000
vt 0.875000 0.750000
vt 0.875000 0.750000
vt 0.875000 0.500000
vt 0.875000 0.750000
vt 0.625000 0.750000
vt 0.625000 0.250000
vt 0.625000 0.000000
vt 0.625000 0.250000
vt 0.593594 0.280820
vt 0.593594 0.469180
vt 0.593594 0.469180
vt 0.593594 0.280820
vt 0.625000 0.250000
vt 0.375000 0.500000
vt 0.375000 0.500000
vt 0.375000 0.250000
vt 0.375000 0.250000
vt 0.375000 0.250000
vt 0.375000 0.000000
vt 0.375000 0.750000
vt 0.375000 0.500000
vt 0.375000 0.000000
vt 0.375000 0.750000
vt 0.406406 0.280820
vt 0.406406 0.469180
vt 0.406406 0.469180
vt 0.406406 0.280820
vt 0.429703 0.303683
vt 0.429703 0.446317
vt 0.570297 0.446317
vt 0.570297 0.303683
vt 0.467575 0.028750
vt 0.467575 0.221250
vt 0.532425 0.528750
vt 0.467575 0.528750
vt 0.532425 0.028750
vt 0.467575 0.721250
vt 0.532424 0.721250
vt 0.532424 0.221250
vt 0.467575 0.028750
vt 0.532425 0.028750
vt 0.532424 0.221250
vt 0.467575 0.221250
vt 0.467575 0.528750
vt 0.532425 0.528750
vt 0.532424 0.721250
vt 0.467575 0.721250
vt 0.429703 0.303683
vt 0.429703 0.446317
vt 0.570297 0.303683
vt 0.570297 0.446317
vn 0.6082 0.7704 -0.1914
vn -0.9988 0.0000 0.0491
vn 0.9716 0.0000 0.2364
vn -0.9716 0.0000 0.2364
vn 0.0000 0.0000 1.0000
vn 0.9976 0.0000 0.0690
vn 0.0000 0.9983 0.0587
vn 0.0000 1.0000 0.0000
vn -0.6197 0.7849 0.0000
vn 0.6197 0.7849 0.0000
vn 0.0000 0.9915 0.1299
vn -0.6082 0.7704 -0.1914
vn 0.9539 0.0000 -0.3001
vn -0.9539 0.0000 -0.3001
vn 0.0000 0.9733 -0.2296
vn -0.0970 -0.9953 0.0000
vn 0.0970 -0.9953 0.0000
vn 0.0962 -0.9870 -0.1287
vn 0.0000 -0.9888 -0.1489
vn -0.0962 -0.9870 -0.1287
vn -0.1296 -0.9895 0.0644
vn 0.1296 -0.9895 0.0644
vn -0.2050 -0.9774 0.0507
vn 0.2053 -0.9772 0.0549
vn 0.0000 -0.9985 0.0549
vn 0.0000 0.0000 -1.0000
vn 0.9762 0.0000 0.2169
vn -0.9762 0.0000 0.2169
vn 0.0000 -0.9915 0.1299
vn -1.0000 0.0000 0.0000
vn 1.0000 0.0000 0.0000
vn 0.5893 0.0000 0.8079
vn -0.0144 0.9999 0.0000
vn -0.6675 0.0000 -0.7446
vn -0.0144 -0.9999 0.0000
vn 0.6675 0.0000 -0.7446
vn 0.0144 0.9999 0.0000
vn -0.5893 0.0000 0.8079
vn 0.0144 -0.9999 0.0000
vn 0.0000 0.9826 0.1858
vn 0.6127 0.7761 0.1491
vn -0.6127 0.7761 0.1491
vn 0.0000 -1.0000 0.0000
usemtl 1
s off
f 30/1/1 19/2/1 46/3/1
f 10/4/2 9/5/2 13/6/2 14/7/2
f 50/8/3 49/9/3 11/10/3 12/11/3
f 48/12/4 45/13/4 9/5/4 10/4/4
f 16/14/5 15/15/5 14/16/5 13/17/5
f 12/11/6 11/10/6 15/15/6 16/14/6
f 11/10/7 10/18/7 14/19/7 15/15/7
f 19/2/8 20/20/8 18/21/8 17/22/8
f 51/23/9 48/12/9 18/24/9 20/25/9
f 49/9/10 46/3/10 19/2/10 17/22/10
f 24/26/11 23/27/11 38/28/11 39/29/11
f 51/23/12 20/25/12 31/30/12
f 46/3/13 47/31/13 28/32/13 30/1/13
f 44/33/14 51/23/14 31/30/14 29/34/14
f 30/1/15 31/30/15 20/25/15 19/2/15
f 45/13/16 44/33/16 25/35/16 26/36/16
f 47/31/17 50/8/17 26/37/17 25/38/17
f 47/31/18 25/38/18 28/32/18
f 29/34/19 28/32/19 25/38/19
f 29/34/20 25/38/20 44/33/20
f 9/5/21 45/13/21 26/36/21 27/39/21
f 50/8/22 12/11/22 27/40/22 26/37/22
f 9/5/23 27/39/23 13/6/23
f 16/14/24 27/40/24 12/11/24
f 16/14/25 13/6/25 27/40/25
f 21/41/26 22/42/26 28/32/26 29/34/26
f 22/42/26 23/27/26 30/1/26 28/32/26
f 24/26/26 21/41/26 29/34/26 31/30/26
f 23/27/26 24/26/26 31/30/26 30/1/26
f 23/27/27 22/42/27 36/43/27 38/28/27
f 21/41/28 24/26/28 39/29/28 37/44/28
f 22/42/29 21/41/29 37/44/29 36/43/29
f 33/45/26 32/46/26 36/43/26 37/44/26
f 32/46/26 34/47/26 38/28/26 36/43/26
f 35/48/26 33/45/26 37/44/26 39/29/26
f 34/47/26 35/48/26 39/29/26 38/28/26
f 8/49/30 6/50/30 44/33/30 45/13/30
f 1/51/31 2/52/31 47/31/31 46/3/31
f 7/53/30 8/49/30 45/13/30 48/12/30
f 4/54/31 3/55/31 49/9/31 50/8/31
f 6/50/30 5/56/30 51/23/30 44/33/30
f 3/55/31 1/51/31 46/3/31 49/9/31
f 5/56/30 7/53/30 48/12/30 51/23/30
f 2/52/31 4/54/31 50/8/31 47/31/31
f 52/57/30 53/58/30 54/59/30 55/60/30
f 7/53/32 53/58/32 52/57/32 8/49/32
f 5/56/33 54/59/33 53/58/33 7/53/33
f 6/50/34 55/60/34 54/59/34 5/56/34
f 8/49/35 52/57/35 55/60/35 6/50/35
f 56/61/31 57/62/31 58/63/31 59/64/31
f 1/51/36 57/62/36 56/61/36 2/52/36
f 3/55/37 58/63/37 57/62/37 1/51/37
f 4/54/38 59/64/38 58/63/38 3/55/38
f 2/52/39 56/61/39 59/64/39 4/54/39
usemtl 2
f 10/18/40 11/10/40 17/22/40 18/21/40
f 49/9/41 17/22/41 11/10/41
f 48/12/42 10/18/42 18/24/42
f 32/46/8 33/45/8 41/65/8 40/66/8
f 41/65/26 43/67/26 42/68/26 40/66/26
f 35/48/43 34/47/43 42/68/43 43/67/43
f 34/47/30 32/46/30 40/66/30 42/68/30
f 33/45/31 35/48/31 43/67/31 41/65/31
