# Blender v2.92.0 OBJ File: 'untitled.blend'
# www.blender.org
mtllib powerCell.mtl
o Cube
v 0.382683 1.000000 -0.923880
v 0.382683 -1.000000 -0.923880
v 0.195090 1.000000 -0.980785
v 0.195090 -1.000000 -0.980785
v 0.000000 1.000000 -1.000000
v 0.000000 -1.000000 -1.000000
v 0.555570 -1.000000 -0.831470
v 0.555570 1.000000 -0.831470
v 0.707107 -1.000000 -0.707107
v 0.707107 1.000000 -0.707107
v 0.831470 -1.000000 -0.555570
v 0.831470 1.000000 -0.555570
v 0.923880 -1.000000 -0.382683
v 0.923880 1.000000 -0.382683
v 0.980785 -1.000000 -0.195090
v 0.980785 1.000000 -0.195090
v 1.000000 -1.000000 -0.000000
v 1.000000 1.000000 -0.000000
v 0.980785 -1.000000 0.195090
v 0.980785 1.000000 0.195090
v 0.923880 -1.000000 0.382683
v 0.923880 1.000000 0.382683
v 0.831470 -1.000000 0.555570
v 0.831470 1.000000 0.555570
v 0.707107 -1.000000 0.707107
v 0.707107 1.000000 0.707107
v 0.555570 -1.000000 0.831470
v 0.555570 1.000000 0.831470
v 0.382683 -1.000000 0.923880
v 0.382683 1.000000 0.923880
v 0.195090 -1.000000 0.980785
v 0.195090 1.000000 0.980785
v -0.000000 -1.000000 1.000000
v -0.000000 1.000000 1.000000
v -0.195091 -1.000000 0.980785
v -0.195091 1.000000 0.980785
v -0.382684 -1.000000 0.923879
v -0.382684 1.000000 0.923879
v -0.555571 -1.000000 0.831469
v -0.555571 1.000000 0.831469
v -0.707107 -1.000000 0.707106
v -0.707107 1.000000 0.707106
v -0.831470 -1.000000 0.555570
v -0.831470 1.000000 0.555570
v -0.923880 -1.000000 0.382683
v -0.923880 1.000000 0.382683
v -0.980785 -1.000000 0.195089
v -0.980785 1.000000 0.195089
v -1.000000 -1.000000 -0.000001
v -1.000000 1.000000 -0.000001
v -0.980785 -1.000000 -0.195091
v -0.980785 1.000000 -0.195091
v -0.923879 -1.000000 -0.382684
v -0.923879 1.000000 -0.382684
v -0.831469 -1.000000 -0.555571
v -0.831469 1.000000 -0.555571
v -0.707106 -1.000000 -0.707108
v -0.707106 1.000000 -0.707108
v -0.555569 -1.000000 -0.831470
v -0.555569 1.000000 -0.831470
v -0.382682 -1.000000 -0.923880
v -0.382682 1.000000 -0.923880
v -0.195089 -1.000000 -0.980786
v -0.195089 1.000000 -0.980786
v 0.240402 1.374552 -0.580382
v 0.382683 1.004542 -0.923880
v 0.195090 1.004542 -0.980785
v 0.122556 1.374552 -0.616130
v -0.000000 1.004542 -1.000000
v -0.000000 1.374552 -0.628201
v 0.349010 1.374552 -0.522330
v 0.555570 1.004542 -0.831470
v 0.444205 1.374552 -0.444205
v 0.707107 1.004542 -0.707107
v 0.522330 1.374552 -0.349009
v 0.831470 1.004542 -0.555570
v 0.580382 1.374552 -0.240402
v 0.923880 1.004542 -0.382683
v 0.616130 1.374552 -0.122556
v 0.980785 1.004542 -0.195090
v 0.628201 1.374552 0.000000
v 1.000000 1.004542 -0.000000
v 0.616130 1.374552 0.122556
v 0.980785 1.004542 0.195090
v 0.580382 1.374552 0.240402
v 0.923880 1.004542 0.382683
v 0.522330 1.374552 0.349009
v 0.831470 1.004542 0.555570
v 0.444205 1.374552 0.444205
v 0.707107 1.004542 0.707107
v 0.349009 1.374552 0.522330
v 0.555570 1.004542 0.831470
v 0.240402 1.374552 0.580382
v 0.382683 1.004542 0.923880
v 0.122555 1.374552 0.616130
v 0.195090 1.004542 0.980785
v -0.000000 1.374552 0.628201
v -0.000000 1.004542 1.000000
v -0.122556 1.374552 0.616130
v -0.195091 1.004542 0.980785
v -0.240402 1.374552 0.580382
v -0.382684 1.004542 0.923879
v -0.349010 1.374552 0.522330
v -0.555571 1.004542 0.831469
v -0.444205 1.374552 0.444205
v -0.707107 1.004542 0.707106
v -0.522330 1.374552 0.349009
v -0.831470 1.004542 0.555570
v -0.580382 1.374552 0.240402
v -0.923880 1.004542 0.382683
v -0.616130 1.374552 0.122555
v -0.980785 1.004542 0.195089
v -0.628201 1.374552 -0.000001
v -1.000000 1.004542 -0.000001
v -0.616130 1.374552 -0.122557
v -0.980785 1.004542 -0.195091
v -0.580382 1.374552 -0.240402
v -0.923879 1.004542 -0.382684
v -0.522329 1.374552 -0.349010
v -0.831469 1.004542 -0.555571
v -0.444204 1.374552 -0.444206
v -0.707106 1.004542 -0.707108
v -0.349009 1.374552 -0.522330
v -0.555569 1.004542 -0.831470
v -0.240401 1.374552 -0.580382
v -0.382682 1.004542 -0.923880
v -0.122555 1.374552 -0.616130
v -0.195089 1.004542 -0.980786
v 0.122556 1.599632 -0.616130
v 0.240402 1.599632 -0.580382
v -0.000000 1.599632 -0.628201
v 0.349010 1.599632 -0.522330
v 0.444205 1.599632 -0.444205
v 0.522330 1.599632 -0.349009
v 0.580382 1.599632 -0.240402
v 0.616130 1.599632 -0.122556
v 0.628201 1.599632 0.000000
v 0.616130 1.599632 0.122556
v 0.580382 1.599632 0.240402
v 0.522330 1.599632 0.349009
v 0.444205 1.599632 0.444205
v 0.349009 1.599632 0.522330
v 0.240402 1.599632 0.580382
v 0.122555 1.599632 0.616130
v -0.000000 1.599632 0.628201
v -0.122556 1.599632 0.616130
v -0.240402 1.599632 0.580382
v -0.349010 1.599632 0.522330
v -0.444205 1.599632 0.444205
v -0.522330 1.599632 0.349009
v -0.580382 1.599632 0.240402
v -0.616130 1.599632 0.122555
v -0.628201 1.599632 -0.000001
v -0.616130 1.599632 -0.122557
v -0.580382 1.599632 -0.240402
v -0.522329 1.599632 -0.349010
v -0.444204 1.599632 -0.444206
v -0.349009 1.599632 -0.522330
v -0.240401 1.599632 -0.580382
v -0.122555 1.599632 -0.616130
v 0.382683 -1.000000 -0.923880
v 0.382683 1.000000 -0.923880
v 0.195090 -1.000000 -0.980785
v 0.195090 1.000000 -0.980785
v 0.000000 -1.000000 -1.000000
v 0.000000 1.000000 -1.000000
v 0.555570 1.000000 -0.831470
v 0.555570 -1.000000 -0.831470
v 0.707107 1.000000 -0.707107
v 0.707107 -1.000000 -0.707107
v 0.831470 1.000000 -0.555570
v 0.831470 -1.000000 -0.555570
v 0.923880 1.000000 -0.382683
v 0.923880 -1.000000 -0.382683
v 0.980785 1.000000 -0.195090
v 0.980785 -1.000000 -0.195090
v 1.000000 1.000000 -0.000000
v 1.000000 -1.000000 -0.000000
v 0.980785 1.000000 0.195090
v 0.980785 -1.000000 0.195090
v 0.923880 1.000000 0.382683
v 0.923880 -1.000000 0.382683
v 0.831470 1.000000 0.555570
v 0.831470 -1.000000 0.555570
v 0.707107 1.000000 0.707107
v 0.707107 -1.000000 0.707107
v 0.555570 1.000000 0.831470
v 0.555570 -1.000000 0.831470
v 0.382683 1.000000 0.923880
v 0.382683 -1.000000 0.923880
v 0.195090 1.000000 0.980785
v 0.195090 -1.000000 0.980785
v -0.000000 1.000000 1.000000
v -0.000000 -1.000000 1.000000
v -0.195091 1.000000 0.980785
v -0.195091 -1.000000 0.980785
v -0.382684 1.000000 0.923879
v -0.382684 -1.000000 0.923879
v -0.555571 1.000000 0.831469
v -0.555571 -1.000000 0.831469
v -0.707107 1.000000 0.707106
v -0.707107 -1.000000 0.707106
v -0.831470 1.000000 0.555570
v -0.831470 -1.000000 0.555570
v -0.923880 1.000000 0.382683
v -0.923880 -1.000000 0.382683
v -0.980785 1.000000 0.195089
v -0.980785 -1.000000 0.195089
v -1.000000 1.000000 -0.000001
v -1.000000 -1.000000 -0.000001
v -0.980785 1.000000 -0.195091
v -0.980785 -1.000000 -0.195091
v -0.923879 1.000000 -0.382684
v -0.923879 -1.000000 -0.382684
v -0.831469 1.000000 -0.555571
v -0.831469 -1.000000 -0.555571
v -0.707106 1.000000 -0.707108
v -0.707106 -1.000000 -0.707108
v -0.555569 1.000000 -0.831470
v -0.555569 -1.000000 -0.831470
v -0.382682 1.000000 -0.923880
v -0.382682 -1.000000 -0.923880
v -0.195089 1.000000 -0.980786
v -0.195089 -1.000000 -0.980786
v 0.240402 -1.374552 -0.580382
v 0.382683 -1.004542 -0.923880
v 0.195090 -1.004542 -0.980785
v 0.122556 -1.374552 -0.616130
v -0.000000 -1.004542 -1.000000
v -0.000000 -1.374552 -0.628201
v 0.349010 -1.374552 -0.522330
v 0.555570 -1.004542 -0.831470
v 0.444205 -1.374552 -0.444205
v 0.707107 -1.004542 -0.707107
v 0.522330 -1.374552 -0.349009
v 0.831470 -1.004542 -0.555570
v 0.580382 -1.374552 -0.240402
v 0.923880 -1.004542 -0.382683
v 0.616130 -1.374552 -0.122556
v 0.980785 -1.004542 -0.195090
v 0.628201 -1.374552 0.000000
v 1.000000 -1.004542 -0.000000
v 0.616130 -1.374552 0.122556
v 0.980785 -1.004542 0.195090
v 0.580382 -1.374552 0.240402
v 0.923880 -1.004542 0.382683
v 0.522330 -1.374552 0.349009
v 0.831470 -1.004542 0.555570
v 0.444205 -1.374552 0.444205
v 0.707107 -1.004542 0.707107
v 0.349009 -1.374552 0.522330
v 0.555570 -1.004542 0.831470
v 0.240402 -1.374552 0.580382
v 0.382683 -1.004542 0.923880
v 0.122555 -1.374552 0.616130
v 0.195090 -1.004542 0.980785
v -0.000000 -1.374552 0.628201
v -0.000000 -1.004542 1.000000
v -0.122556 -1.374552 0.616130
v -0.195091 -1.004542 0.980785
v -0.240402 -1.374552 0.580382
v -0.382684 -1.004542 0.923879
v -0.349010 -1.374552 0.522330
v -0.555571 -1.004542 0.831469
v -0.444205 -1.374552 0.444205
v -0.707107 -1.004542 0.707106
v -0.522330 -1.374552 0.349009
v -0.831470 -1.004542 0.555570
v -0.580382 -1.374552 0.240402
v -0.923880 -1.004542 0.382683
v -0.616130 -1.374552 0.122555
v -0.980785 -1.004542 0.195089
v -0.628201 -1.374552 -0.000001
v -1.000000 -1.004542 -0.000001
v -0.616130 -1.374552 -0.122557
v -0.980785 -1.004542 -0.195091
v -0.580382 -1.374552 -0.240402
v -0.923879 -1.004542 -0.382684
v -0.522329 -1.374552 -0.349010
v -0.831469 -1.004542 -0.555571
v -0.444204 -1.374552 -0.444206
v -0.707106 -1.004542 -0.707108
v -0.349009 -1.374552 -0.522330
v -0.555569 -1.004542 -0.831470
v -0.240401 -1.374552 -0.580382
v -0.382682 -1.004542 -0.923880
v -0.122555 -1.374552 -0.616130
v -0.195089 -1.004542 -0.980786
v 0.122556 -1.599632 -0.616130
v 0.240402 -1.599632 -0.580382
v -0.000000 -1.599632 -0.628201
v 0.349010 -1.599632 -0.522330
v 0.444205 -1.599632 -0.444205
v 0.522330 -1.599632 -0.349009
v 0.580382 -1.599632 -0.240402
v 0.616130 -1.599632 -0.122556
v 0.628201 -1.599632 0.000000
v 0.616130 -1.599632 0.122556
v 0.580382 -1.599632 0.240402
v 0.522330 -1.599632 0.349009
v 0.444205 -1.599632 0.444205
v 0.349009 -1.599632 0.522330
v 0.240402 -1.599632 0.580382
v 0.122555 -1.599632 0.616130
v -0.000000 -1.599632 0.628201
v -0.122556 -1.599632 0.616130
v -0.240402 -1.599632 0.580382
v -0.349010 -1.599632 0.522330
v -0.444205 -1.599632 0.444205
v -0.522330 -1.599632 0.349009
v -0.580382 -1.599632 0.240402
v -0.616130 -1.599632 0.122555
v -0.628201 -1.599632 -0.000001
v -0.616130 -1.599632 -0.122557
v -0.580382 -1.599632 -0.240402
v -0.522329 -1.599632 -0.349010
v -0.444204 -1.599632 -0.444206
v -0.349009 -1.599632 -0.522330
v -0.240401 -1.599632 -0.580382
v -0.122555 -1.599632 -0.616130
vt 1.000000 0.500000
vt 1.000000 1.000000
vt 0.968750 1.000000
vt 0.968750 0.500000
vt 0.937500 1.000000
vt 0.937500 0.500000
vt 0.906250 1.000000
vt 0.906250 0.500000
vt 0.875000 1.000000
vt 0.875000 0.500000
vt 0.843750 1.000000
vt 0.843750 0.500000
vt 0.812500 1.000000
vt 0.812500 0.500000
vt 0.781250 1.000000
vt 0.781250 0.500000
vt 0.750000 1.000000
vt 0.750000 0.500000
vt 0.718750 1.000000
vt 0.718750 0.500000
vt 0.687500 1.000000
vt 0.687500 0.500000
vt 0.656250 1.000000
vt 0.656250 0.500000
vt 0.625000 1.000000
vt 0.625000 0.500000
vt 0.593750 1.000000
vt 0.593750 0.500000
vt 0.562500 1.000000
vt 0.562500 0.500000
vt 0.531250 1.000000
vt 0.531250 0.500000
vt 0.500000 1.000000
vt 0.500000 0.500000
vt 0.468750 1.000000
vt 0.468750 0.500000
vt 0.437500 1.000000
vt 0.437500 0.500000
vt 0.406250 1.000000
vt 0.406250 0.500000
vt 0.375000 1.000000
vt 0.375000 0.500000
vt 0.343750 1.000000
vt 0.343750 0.500000
vt 0.312500 1.000000
vt 0.312500 0.500000
vt 0.281250 1.000000
vt 0.281250 0.500000
vt 0.250000 1.000000
vt 0.250000 0.500000
vt 0.218750 1.000000
vt 0.218750 0.500000
vt 0.187500 1.000000
vt 0.187500 0.500000
vt 0.156250 1.000000
vt 0.156250 0.500000
vt 0.125000 1.000000
vt 0.125000 0.500000
vt 0.093750 1.000000
vt 0.093750 0.500000
vt 0.062500 1.000000
vt 0.062500 0.500000
vt 0.437500 1.000000
vt 0.406250 1.000000
vt 0.031250 1.000000
vt 0.031250 0.500000
vt 0.000000 1.000000
vt 0.000000 0.500000
vt 0.796822 0.485388
vt 0.841844 0.471731
vt 0.883337 0.449553
vt 0.919706 0.419706
vt 0.949553 0.383337
vt 0.971731 0.341844
vt 0.985388 0.296822
vt 0.990000 0.250000
vt 0.985388 0.203178
vt 0.971731 0.158156
vt 0.949553 0.116663
vt 0.919706 0.080294
vt 0.883337 0.050447
vt 0.841844 0.028269
vt 0.796822 0.014612
vt 0.750000 0.010000
vt 0.703178 0.014612
vt 0.658156 0.028269
vt 0.616663 0.050447
vt 0.580294 0.080294
vt 0.550447 0.116663
vt 0.528269 0.158156
vt 0.514611 0.203179
vt 0.510000 0.250000
vt 0.514612 0.296822
vt 0.528269 0.341844
vt 0.550447 0.383337
vt 0.580295 0.419706
vt 0.616663 0.449553
vt 0.658156 0.471731
vt 0.703179 0.485389
vt 0.750000 0.490000
vt 0.937500 1.000000
vt 0.906250 1.000000
vt 0.156250 1.000000
vt 0.125000 1.000000
vt 0.843750 1.000000
vt 0.812500 1.000000
vt 0.562500 1.000000
vt 0.531250 1.000000
vt 0.281250 1.000000
vt 0.250000 1.000000
vt 0.662059 1.000000
vt 0.681691 1.000000
vt 0.681691 1.000000
vt 0.662059 1.000000
vt 0.875000 1.000000
vt 0.031250 1.000000
vt 0.000000 1.000000
vt 0.687500 1.000000
vt 0.656250 1.000000
vt 0.375000 1.000000
vt 0.093750 1.000000
vt 0.781250 1.000000
vt 0.500000 1.000000
vt 0.218750 1.000000
vt 0.625000 1.000000
vt 0.343750 1.000000
vt 0.062500 1.000000
vt 0.750000 1.000000
vt 0.468750 1.000000
vt 0.187500 1.000000
vt 1.000000 1.000000
vt 0.968750 1.000000
vt 0.593750 1.000000
vt 0.312500 1.000000
vt 0.718750 1.000000
vt 0.962941 1.000000
vt 0.943309 1.000000
vt 0.994191 1.000000
vt 0.974559 1.000000
vt 0.931691 1.000000
vt 0.912059 1.000000
vt 0.900441 1.000000
vt 0.880809 1.000000
vt 0.869191 1.000000
vt 0.849559 1.000000
vt 0.837941 1.000000
vt 0.818309 1.000000
vt 0.806691 1.000000
vt 0.787059 1.000000
vt 0.775441 1.000000
vt 0.755809 1.000000
vt 0.744191 1.000000
vt 0.724559 1.000000
vt 0.712941 1.000000
vt 0.693309 1.000000
vt 0.650441 1.000000
vt 0.630809 1.000000
vt 0.619191 1.000000
vt 0.599559 1.000000
vt 0.587941 1.000000
vt 0.568309 1.000000
vt 0.556691 1.000000
vt 0.537059 1.000000
vt 0.525441 1.000000
vt 0.505809 1.000000
vt 0.494191 1.000000
vt 0.474559 1.000000
vt 0.462941 1.000000
vt 0.443309 1.000000
vt 0.431691 1.000000
vt 0.412059 1.000000
vt 0.400441 1.000000
vt 0.380809 1.000000
vt 0.369191 1.000000
vt 0.349559 1.000000
vt 0.337941 1.000000
vt 0.318309 1.000000
vt 0.306691 1.000000
vt 0.287059 1.000000
vt 0.275441 1.000000
vt 0.255809 1.000000
vt 0.244191 1.000000
vt 0.224559 1.000000
vt 0.212941 1.000000
vt 0.193309 1.000000
vt 0.181691 1.000000
vt 0.162059 1.000000
vt 0.150441 1.000000
vt 0.130809 1.000000
vt 0.119191 1.000000
vt 0.099559 1.000000
vt 0.087941 1.000000
vt 0.068309 1.000000
vt 0.056691 1.000000
vt 0.037059 1.000000
vt 0.025441 1.000000
vt 0.005809 1.000000
vt 0.279413 0.397871
vt 0.250000 0.400768
vt 0.220587 0.397871
vt 0.192304 0.389292
vt 0.166238 0.375359
vt 0.143391 0.356609
vt 0.124641 0.333762
vt 0.110708 0.307697
vt 0.102129 0.279414
vt 0.099232 0.250000
vt 0.102129 0.220587
vt 0.110708 0.192304
vt 0.124641 0.166238
vt 0.143391 0.143391
vt 0.166238 0.124641
vt 0.192304 0.110708
vt 0.220587 0.102129
vt 0.250000 0.099232
vt 0.279413 0.102129
vt 0.307696 0.110708
vt 0.333762 0.124641
vt 0.356609 0.143391
vt 0.375359 0.166238
vt 0.389292 0.192304
vt 0.397871 0.220587
vt 0.400768 0.250000
vt 0.397871 0.279413
vt 0.389292 0.307696
vt 0.375359 0.333762
vt 0.356609 0.356609
vt 0.333762 0.375359
vt 0.307696 0.389292
vt 0.400441 1.000000
vt 0.380809 1.000000
vt 0.119191 1.000000
vt 0.099559 1.000000
vt 0.806691 1.000000
vt 0.787059 1.000000
vt 0.525441 1.000000
vt 0.505809 1.000000
vt 0.244191 1.000000
vt 0.224559 1.000000
vt 0.931691 1.000000
vt 0.912059 1.000000
vt 0.650441 1.000000
vt 0.630809 1.000000
vt 0.369191 1.000000
vt 0.349559 1.000000
vt 0.087941 1.000000
vt 0.068309 1.000000
vt 0.775441 1.000000
vt 0.755809 1.000000
vt 0.494191 1.000000
vt 0.474559 1.000000
vt 0.212941 1.000000
vt 0.193309 1.000000
vt 0.900441 1.000000
vt 0.880809 1.000000
vt 0.619191 1.000000
vt 0.599559 1.000000
vt 0.337941 1.000000
vt 0.318309 1.000000
vt 0.056691 1.000000
vt 0.037059 1.000000
vt 0.744191 1.000000
vt 0.724559 1.000000
vt 0.462941 1.000000
vt 0.443309 1.000000
vt 0.181691 1.000000
vt 0.162059 1.000000
vt 0.025441 1.000000
vt 0.005809 1.000000
vt 0.869191 1.000000
vt 0.849559 1.000000
vt 0.587941 1.000000
vt 0.568309 1.000000
vt 0.306691 1.000000
vt 0.287059 1.000000
vt 0.962941 1.000000
vt 0.943309 1.000000
vt 0.712941 1.000000
vt 0.693309 1.000000
vt 0.431691 1.000000
vt 0.412059 1.000000
vt 0.150441 1.000000
vt 0.130809 1.000000
vt 0.837941 1.000000
vt 0.818309 1.000000
vt 0.556691 1.000000
vt 0.537059 1.000000
vt 0.275441 1.000000
vt 0.255809 1.000000
vt 0.994191 1.000000
vt 0.974559 1.000000
vt 1.000000 0.500000
vt 0.968750 0.500000
vt 0.968750 1.000000
vt 1.000000 1.000000
vt 0.937500 0.500000
vt 0.937500 1.000000
vt 0.906250 0.500000
vt 0.906250 1.000000
vt 0.875000 0.500000
vt 0.875000 1.000000
vt 0.843750 0.500000
vt 0.843750 1.000000
vt 0.812500 0.500000
vt 0.812500 1.000000
vt 0.781250 0.500000
vt 0.781250 1.000000
vt 0.750000 0.500000
vt 0.750000 1.000000
vt 0.718750 0.500000
vt 0.718750 1.000000
vt 0.687500 0.500000
vt 0.687500 1.000000
vt 0.656250 0.500000
vt 0.656250 1.000000
vt 0.625000 0.500000
vt 0.625000 1.000000
vt 0.593750 0.500000
vt 0.593750 1.000000
vt 0.562500 0.500000
vt 0.562500 1.000000
vt 0.531250 0.500000
vt 0.531250 1.000000
vt 0.500000 0.500000
vt 0.500000 1.000000
vt 0.468750 0.500000
vt 0.468750 1.000000
vt 0.437500 0.500000
vt 0.437500 1.000000
vt 0.406250 0.500000
vt 0.406250 1.000000
vt 0.375000 0.500000
vt 0.375000 1.000000
vt 0.343750 0.500000
vt 0.343750 1.000000
vt 0.312500 0.500000
vt 0.312500 1.000000
vt 0.281250 0.500000
vt 0.281250 1.000000
vt 0.250000 0.500000
vt 0.250000 1.000000
vt 0.218750 0.500000
vt 0.218750 1.000000
vt 0.187500 0.500000
vt 0.187500 1.000000
vt 0.156250 0.500000
vt 0.156250 1.000000
vt 0.125000 0.500000
vt 0.125000 1.000000
vt 0.093750 0.500000
vt 0.093750 1.000000
vt 0.062500 0.500000
vt 0.062500 1.000000
vt 0.406250 1.000000
vt 0.437500 1.000000
vt 0.031250 0.500000
vt 0.031250 1.000000
vt 0.000000 0.500000
vt 0.000000 1.000000
vt 0.796822 0.485388
vt 0.750000 0.490000
vt 0.703179 0.485389
vt 0.658156 0.471731
vt 0.616663 0.449553
vt 0.580295 0.419706
vt 0.550447 0.383337
vt 0.528269 0.341844
vt 0.514612 0.296822
vt 0.510000 0.250000
vt 0.514611 0.203179
vt 0.528269 0.158156
vt 0.550447 0.116663
vt 0.580294 0.080294
vt 0.616663 0.050447
vt 0.658156 0.028269
vt 0.703178 0.014612
vt 0.750000 0.010000
vt 0.796822 0.014612
vt 0.841844 0.028269
vt 0.883337 0.050447
vt 0.919706 0.080294
vt 0.949553 0.116663
vt 0.971731 0.158156
vt 0.985388 0.203178
vt 0.990000 0.250000
vt 0.985388 0.296822
vt 0.971731 0.341844
vt 0.949553 0.383337
vt 0.919706 0.419706
vt 0.883337 0.449553
vt 0.841844 0.471731
vt 0.906250 1.000000
vt 0.937500 1.000000
vt 0.125000 1.000000
vt 0.156250 1.000000
vt 0.812500 1.000000
vt 0.843750 1.000000
vt 0.531250 1.000000
vt 0.562500 1.000000
vt 0.250000 1.000000
vt 0.281250 1.000000
vt 0.662059 1.000000
vt 0.662059 1.000000
vt 0.681691 1.000000
vt 0.681691 1.000000
vt 0.875000 1.000000
vt 0.000000 1.000000
vt 0.031250 1.000000
vt 0.656250 1.000000
vt 0.687500 1.000000
vt 0.375000 1.000000
vt 0.093750 1.000000
vt 0.781250 1.000000
vt 0.500000 1.000000
vt 0.218750 1.000000
vt 0.625000 1.000000
vt 0.343750 1.000000
vt 0.062500 1.000000
vt 0.750000 1.000000
vt 0.468750 1.000000
vt 0.187500 1.000000
vt 0.968750 1.000000
vt 1.000000 1.000000
vt 0.593750 1.000000
vt 0.312500 1.000000
vt 0.718750 1.000000
vt 0.943309 1.000000
vt 0.962941 1.000000
vt 0.974559 1.000000
vt 0.994191 1.000000
vt 0.912059 1.000000
vt 0.931691 1.000000
vt 0.880809 1.000000
vt 0.900441 1.000000
vt 0.849559 1.000000
vt 0.869191 1.000000
vt 0.818309 1.000000
vt 0.837941 1.000000
vt 0.787059 1.000000
vt 0.806691 1.000000
vt 0.755809 1.000000
vt 0.775441 1.000000
vt 0.724559 1.000000
vt 0.744191 1.000000
vt 0.693309 1.000000
vt 0.712941 1.000000
vt 0.630809 1.000000
vt 0.650441 1.000000
vt 0.599559 1.000000
vt 0.619191 1.000000
vt 0.568309 1.000000
vt 0.587941 1.000000
vt 0.537059 1.000000
vt 0.556691 1.000000
vt 0.505809 1.000000
vt 0.525441 1.000000
vt 0.474559 1.000000
vt 0.494191 1.000000
vt 0.443309 1.000000
vt 0.462941 1.000000
vt 0.412059 1.000000
vt 0.431691 1.000000
vt 0.380809 1.000000
vt 0.400441 1.000000
vt 0.349559 1.000000
vt 0.369191 1.000000
vt 0.318309 1.000000
vt 0.337941 1.000000
vt 0.287059 1.000000
vt 0.306691 1.000000
vt 0.255809 1.000000
vt 0.275441 1.000000
vt 0.224559 1.000000
vt 0.244191 1.000000
vt 0.193309 1.000000
vt 0.212941 1.000000
vt 0.162059 1.000000
vt 0.181691 1.000000
vt 0.130809 1.000000
vt 0.150441 1.000000
vt 0.099559 1.000000
vt 0.119191 1.000000
vt 0.068309 1.000000
vt 0.087941 1.000000
vt 0.037059 1.000000
vt 0.056691 1.000000
vt 0.005809 1.000000
vt 0.025441 1.000000
vt 0.279413 0.397871
vt 0.307696 0.389292
vt 0.333762 0.375359
vt 0.356609 0.356609
vt 0.375359 0.333762
vt 0.389292 0.307696
vt 0.397871 0.279413
vt 0.400768 0.250000
vt 0.397871 0.220587
vt 0.389292 0.192304
vt 0.375359 0.166238
vt 0.356609 0.143391
vt 0.333762 0.124641
vt 0.307696 0.110708
vt 0.279413 0.102129
vt 0.250000 0.099232
vt 0.220587 0.102129
vt 0.192304 0.110708
vt 0.166238 0.124641
vt 0.143391 0.143391
vt 0.124641 0.166238
vt 0.110708 0.192304
vt 0.102129 0.220587
vt 0.099232 0.250000
vt 0.102129 0.279414
vt 0.110708 0.307697
vt 0.124641 0.333762
vt 0.143391 0.356609
vt 0.166238 0.375359
vt 0.192304 0.389292
vt 0.220587 0.397871
vt 0.250000 0.400768
vt 0.380809 1.000000
vt 0.400441 1.000000
vt 0.099559 1.000000
vt 0.119191 1.000000
vt 0.787059 1.000000
vt 0.806691 1.000000
vt 0.505809 1.000000
vt 0.525441 1.000000
vt 0.224559 1.000000
vt 0.244191 1.000000
vt 0.912059 1.000000
vt 0.931691 1.000000
vt 0.630809 1.000000
vt 0.650441 1.000000
vt 0.349559 1.000000
vt 0.369191 1.000000
vt 0.068309 1.000000
vt 0.087941 1.000000
vt 0.755809 1.000000
vt 0.775441 1.000000
vt 0.474559 1.000000
vt 0.494191 1.000000
vt 0.193309 1.000000
vt 0.212941 1.000000
vt 0.880809 1.000000
vt 0.900441 1.000000
vt 0.599559 1.000000
vt 0.619191 1.000000
vt 0.318309 1.000000
vt 0.337941 1.000000
vt 0.037059 1.000000
vt 0.056691 1.000000
vt 0.724559 1.000000
vt 0.744191 1.000000
vt 0.443309 1.000000
vt 0.462941 1.000000
vt 0.162059 1.000000
vt 0.181691 1.000000
vt 0.005809 1.000000
vt 0.025441 1.000000
vt 0.849559 1.000000
vt 0.869191 1.000000
vt 0.568309 1.000000
vt 0.587941 1.000000
vt 0.287059 1.000000
vt 0.306691 1.000000
vt 0.943309 1.000000
vt 0.962941 1.000000
vt 0.693309 1.000000
vt 0.712941 1.000000
vt 0.412059 1.000000
vt 0.431691 1.000000
vt 0.130809 1.000000
vt 0.150441 1.000000
vt 0.818309 1.000000
vt 0.837941 1.000000
vt 0.537059 1.000000
vt 0.556691 1.000000
vt 0.255809 1.000000
vt 0.275441 1.000000
vt 0.974559 1.000000
vt 0.994191 1.000000
vn 0.0980 0.0000 -0.9952
vn 0.2903 0.0000 -0.9569
vn 0.4714 0.0000 -0.8819
vn 0.6344 0.0000 -0.7730
vn 0.7730 0.0000 -0.6344
vn 0.8819 0.0000 -0.4714
vn 0.9569 0.0000 -0.2903
vn 0.9952 0.0000 -0.0980
vn 0.9952 0.0000 0.0980
vn 0.9569 0.0000 0.2903
vn 0.8819 0.0000 0.4714
vn 0.7730 0.0000 0.6344
vn 0.6344 0.0000 0.7730
vn 0.4714 0.0000 0.8819
vn 0.2903 0.0000 0.9569
vn 0.0980 0.0000 0.9952
vn -0.0980 0.0000 0.9952
vn -0.2903 0.0000 0.9569
vn -0.4714 0.0000 0.8819
vn -0.6344 0.0000 0.7730
vn -0.7730 0.0000 0.6344
vn -0.8819 0.0000 0.4714
vn -0.9569 0.0000 0.2903
vn -0.9952 0.0000 0.0980
vn -0.9952 0.0000 -0.0980
vn -0.9569 0.0000 -0.2903
vn -0.8819 0.0000 -0.4714
vn -0.7730 0.0000 -0.6344
vn -0.6344 0.0000 -0.7730
vn -0.4714 0.0000 -0.8819
vn -0.2903 0.0000 -0.9569
vn -0.0980 0.0000 -0.9952
vn 0.0000 -1.0000 0.0000
vn 0.2053 0.7071 -0.6767
vn 0.0693 0.7071 -0.7037
vn 0.3333 0.7071 -0.6236
vn 0.4486 0.7071 -0.5466
vn 0.5466 0.7071 -0.4486
vn 0.6236 0.7071 -0.3333
vn 0.6767 0.7071 -0.2053
vn 0.7037 0.7071 -0.0693
vn 0.7037 0.7071 0.0693
vn 0.6767 0.7071 0.2053
vn 0.6236 0.7071 0.3333
vn 0.5466 0.7071 0.4486
vn 0.4486 0.7071 0.5466
vn 0.3333 0.7071 0.6236
vn 0.2053 0.7071 0.6767
vn 0.0693 0.7071 0.7037
vn -0.0693 0.7071 0.7037
vn -0.2053 0.7071 0.6767
vn -0.3333 0.7071 0.6236
vn -0.4486 0.7071 0.5466
vn -0.5466 0.7071 0.4486
vn -0.6236 0.7071 0.3333
vn -0.6767 0.7071 0.2053
vn -0.7037 0.7071 0.0693
vn -0.7037 0.7071 -0.0693
vn -0.6767 0.7071 -0.2053
vn -0.6236 0.7071 -0.3333
vn -0.5466 0.7071 -0.4486
vn -0.4486 0.7071 -0.5466
vn -0.3333 0.7071 -0.6236
vn -0.2053 0.7071 -0.6767
vn -0.0693 0.7071 -0.7037
vn 0.0000 1.0000 -0.0000
vn 0.2053 -0.7071 -0.6767
vn 0.0693 -0.7071 -0.7037
vn 0.3333 -0.7071 -0.6236
vn 0.4486 -0.7071 -0.5466
vn 0.5466 -0.7071 -0.4486
vn 0.6236 -0.7071 -0.3333
vn 0.6767 -0.7071 -0.2053
vn 0.7037 -0.7071 -0.0693
vn 0.7037 -0.7071 0.0693
vn 0.6767 -0.7071 0.2053
vn 0.6236 -0.7071 0.3333
vn 0.5466 -0.7071 0.4486
vn 0.4486 -0.7071 0.5466
vn 0.3333 -0.7071 0.6236
vn 0.2053 -0.7071 0.6767
vn 0.0693 -0.7071 0.7037
vn -0.0693 -0.7071 0.7037
vn -0.2053 -0.7071 0.6767
vn -0.3333 -0.7071 0.6236
vn -0.4486 -0.7071 0.5466
vn -0.5466 -0.7071 0.4486
vn -0.6236 -0.7071 0.3333
vn -0.6767 -0.7071 0.2053
vn -0.7037 -0.7071 0.0693
vn -0.7037 -0.7071 -0.0693
vn -0.6767 -0.7071 -0.2053
vn -0.6236 -0.7071 -0.3333
vn -0.5466 -0.7071 -0.4486
vn -0.4486 -0.7071 -0.5466
vn -0.3333 -0.7071 -0.6236
vn -0.2053 -0.7071 -0.6767
vn -0.0693 -0.7071 -0.7037
usemtl Material
s off
f 6/1/1 5/2/1 3/3/1 4/4/1
f 4/4/2 3/3/2 1/5/2 2/6/2
f 2/6/3 1/5/3 8/7/3 7/8/3
f 7/8/4 8/7/4 10/9/4 9/10/4
f 9/10/5 10/9/5 12/11/5 11/12/5
f 11/12/6 12/11/6 14/13/6 13/14/6
f 13/14/7 14/13/7 16/15/7 15/16/7
f 15/16/8 16/15/8 18/17/8 17/18/8
f 17/18/9 18/17/9 20/19/9 19/20/9
f 19/20/10 20/19/10 22/21/10 21/22/10
f 21/22/11 22/21/11 24/23/11 23/24/11
f 23/24/12 24/23/12 26/25/12 25/26/12
f 25/26/13 26/25/13 28/27/13 27/28/13
f 27/28/14 28/27/14 30/29/14 29/30/14
f 29/30/15 30/29/15 32/31/15 31/32/15
f 31/32/16 32/31/16 34/33/16 33/34/16
f 33/34/17 34/33/17 36/35/17 35/36/17
f 35/36/18 36/35/18 38/37/18 37/38/18
f 37/38/19 38/37/19 40/39/19 39/40/19
f 39/40/20 40/39/20 42/41/20 41/42/20
f 41/42/21 42/41/21 44/43/21 43/44/21
f 43/44/22 44/43/22 46/45/22 45/46/22
f 45/46/23 46/45/23 48/47/23 47/48/23
f 47/48/24 48/47/24 50/49/24 49/50/24
f 49/50/25 50/49/25 52/51/25 51/52/25
f 51/52/26 52/51/26 54/53/26 53/54/26
f 53/54/27 54/53/27 56/55/27 55/56/27
f 55/56/28 56/55/28 58/57/28 57/58/28
f 57/58/29 58/57/29 60/59/29 59/60/29
f 59/60/30 60/59/30 62/61/30 61/62/30
f 40/39/19 38/37/19 102/63/19 104/64/19
f 61/62/31 62/61/31 64/65/31 63/66/31
f 63/66/32 64/65/32 5/67/32 6/68/32
f 4/69/33 2/70/33 7/71/33 9/72/33 11/73/33 13/74/33 15/75/33 17/76/33 19/77/33 21/78/33 23/79/33 25/80/33 27/81/33 29/82/33 31/83/33 33/84/33 35/85/33 37/86/33 39/87/33 41/88/33 43/89/33 45/90/33 47/91/33 49/92/33 51/93/33 53/94/33 55/95/33 57/96/33 59/97/33 61/98/33 63/99/33 6/100/33
f 8/7/3 1/5/3 66/101/3 72/102/3
f 58/57/28 56/55/28 120/103/28 122/104/28
f 14/13/6 12/11/6 76/105/6 78/106/6
f 32/31/15 30/29/15 94/107/15 96/108/15
f 50/49/24 48/47/24 112/109/24 114/110/24
f 87/111/11 85/112/11 139/113/11 140/114/11
f 10/9/4 8/7/4 72/102/4 74/115/4
f 5/67/32 64/65/32 128/116/32 69/117/32
f 24/23/11 22/21/11 86/118/11 88/119/11
f 42/41/20 40/39/20 104/64/20 106/120/20
f 60/59/29 58/57/29 122/104/29 124/121/29
f 16/15/7 14/13/7 78/106/7 80/122/7
f 34/33/16 32/31/16 96/108/16 98/123/16
f 52/51/25 50/49/25 114/110/25 116/124/25
f 26/25/12 24/23/12 88/119/12 90/125/12
f 44/43/21 42/41/21 106/120/21 108/126/21
f 62/61/30 60/59/30 124/121/30 126/127/30
f 18/17/8 16/15/8 80/122/8 82/128/8
f 36/35/17 34/33/17 98/123/17 100/129/17
f 54/53/26 52/51/26 116/124/26 118/130/26
f 3/3/1 5/2/1 69/131/1 67/132/1
f 28/27/13 26/25/13 90/125/13 92/133/13
f 46/45/22 44/43/22 108/126/22 110/134/22
f 64/65/31 62/61/31 126/127/31 128/116/31
f 20/19/9 18/17/9 82/128/9 84/135/9
f 38/37/18 36/35/18 100/129/18 102/63/18
f 56/55/27 54/53/27 118/130/27 120/103/27
f 12/11/5 10/9/5 74/115/5 76/105/5
f 30/29/14 28/27/14 92/133/14 94/107/14
f 48/47/23 46/45/23 110/134/23 112/109/23
f 22/21/10 20/19/10 84/135/10 86/118/10
f 66/101/34 67/132/34 68/136/34 65/137/34
f 67/132/35 69/131/35 70/138/35 68/139/35
f 72/102/36 66/101/36 65/140/36 71/141/36
f 74/115/37 72/102/37 71/142/37 73/143/37
f 76/105/38 74/115/38 73/144/38 75/145/38
f 78/106/39 76/105/39 75/146/39 77/147/39
f 80/122/40 78/106/40 77/148/40 79/149/40
f 82/128/41 80/122/41 79/150/41 81/151/41
f 84/135/42 82/128/42 81/152/42 83/153/42
f 86/118/43 84/135/43 83/154/43 85/155/43
f 88/119/44 86/118/44 85/112/44 87/111/44
f 90/125/45 88/119/45 87/156/45 89/157/45
f 92/133/46 90/125/46 89/158/46 91/159/46
f 94/107/47 92/133/47 91/160/47 93/161/47
f 96/108/48 94/107/48 93/162/48 95/163/48
f 98/123/49 96/108/49 95/164/49 97/165/49
f 100/129/50 98/123/50 97/166/50 99/167/50
f 102/63/51 100/129/51 99/168/51 101/169/51
f 104/64/52 102/63/52 101/170/52 103/171/52
f 106/120/53 104/64/53 103/172/53 105/173/53
f 108/126/54 106/120/54 105/174/54 107/175/54
f 110/134/55 108/126/55 107/176/55 109/177/55
f 112/109/56 110/134/56 109/178/56 111/179/56
f 114/110/57 112/109/57 111/180/57 113/181/57
f 116/124/58 114/110/58 113/182/58 115/183/58
f 118/130/59 116/124/59 115/184/59 117/185/59
f 120/103/60 118/130/60 117/186/60 119/187/60
f 122/104/61 120/103/61 119/188/61 121/189/61
f 124/121/62 122/104/62 121/190/62 123/191/62
f 126/127/63 124/121/63 123/192/63 125/193/63
f 128/116/64 126/127/64 125/194/64 127/195/64
f 69/117/65 128/116/65 127/196/65 70/197/65
f 1/5/2 3/3/2 67/132/2 66/101/2
f 129/198/66 131/199/66 160/200/66 159/201/66 158/202/66 157/203/66 156/204/66 155/205/66 154/206/66 153/207/66 152/208/66 151/209/66 150/210/66 149/211/66 148/212/66 147/213/66 146/214/66 145/215/66 144/216/66 143/217/66 142/218/66 141/219/66 140/220/66 139/221/66 138/222/66 137/223/66 136/224/66 135/225/66 134/226/66 133/227/66 132/228/66 130/229/66
f 105/173/20 103/172/20 148/230/20 149/231/20
f 123/191/29 121/190/29 157/232/29 158/233/29
f 79/149/7 77/148/7 135/234/7 136/235/7
f 97/165/16 95/164/16 144/236/16 145/237/16
f 115/183/25 113/182/25 153/238/25 154/239/25
f 71/141/3 65/140/3 130/240/3 132/241/3
f 89/157/12 87/156/12 140/242/12 141/243/12
f 107/175/21 105/174/21 149/244/21 150/245/21
f 125/193/30 123/192/30 158/246/30 159/247/30
f 81/151/8 79/150/8 136/248/8 137/249/8
f 99/167/17 97/166/17 145/250/17 146/251/17
f 117/185/26 115/184/26 154/252/26 155/253/26
f 73/143/4 71/142/4 132/254/4 133/255/4
f 91/159/13 89/158/13 141/256/13 142/257/13
f 109/177/22 107/176/22 150/258/22 151/259/22
f 127/195/31 125/194/31 159/260/31 160/261/31
f 83/153/9 81/152/9 137/262/9 138/263/9
f 101/169/18 99/168/18 146/264/18 147/265/18
f 119/187/27 117/186/27 155/266/27 156/267/27
f 70/197/32 127/196/32 160/268/32 131/269/32
f 75/145/5 73/144/5 133/270/5 134/271/5
f 93/161/14 91/160/14 142/272/14 143/273/14
f 111/179/23 109/178/23 151/274/23 152/275/23
f 65/137/2 68/136/2 129/276/2 130/277/2
f 85/155/10 83/154/10 138/278/10 139/279/10
f 103/171/19 101/170/19 147/280/19 148/281/19
f 121/189/28 119/188/28 156/282/28 157/283/28
f 77/147/6 75/146/6 134/284/6 135/285/6
f 95/163/15 93/162/15 143/286/15 144/287/15
f 113/181/24 111/180/24 152/288/24 153/289/24
f 68/139/1 70/138/1 131/290/1 129/291/1
f 166/292/1 164/293/1 163/294/1 165/295/1
f 164/293/2 162/296/2 161/297/2 163/294/2
f 162/296/3 167/298/3 168/299/3 161/297/3
f 167/298/4 169/300/4 170/301/4 168/299/4
f 169/300/5 171/302/5 172/303/5 170/301/5
f 171/302/6 173/304/6 174/305/6 172/303/6
f 173/304/7 175/306/7 176/307/7 174/305/7
f 175/306/8 177/308/8 178/309/8 176/307/8
f 177/308/9 179/310/9 180/311/9 178/309/9
f 179/310/10 181/312/10 182/313/10 180/311/10
f 181/312/11 183/314/11 184/315/11 182/313/11
f 183/314/12 185/316/12 186/317/12 184/315/12
f 185/316/13 187/318/13 188/319/13 186/317/13
f 187/318/14 189/320/14 190/321/14 188/319/14
f 189/320/15 191/322/15 192/323/15 190/321/15
f 191/322/16 193/324/16 194/325/16 192/323/16
f 193/324/17 195/326/17 196/327/17 194/325/17
f 195/326/18 197/328/18 198/329/18 196/327/18
f 197/328/19 199/330/19 200/331/19 198/329/19
f 199/330/20 201/332/20 202/333/20 200/331/20
f 201/332/21 203/334/21 204/335/21 202/333/21
f 203/334/22 205/336/22 206/337/22 204/335/22
f 205/336/23 207/338/23 208/339/23 206/337/23
f 207/338/24 209/340/24 210/341/24 208/339/24
f 209/340/25 211/342/25 212/343/25 210/341/25
f 211/342/26 213/344/26 214/345/26 212/343/26
f 213/344/27 215/346/27 216/347/27 214/345/27
f 215/346/28 217/348/28 218/349/28 216/347/28
f 217/348/29 219/350/29 220/351/29 218/349/29
f 219/350/30 221/352/30 222/353/30 220/351/30
f 200/331/19 264/354/19 262/355/19 198/329/19
f 221/352/31 223/356/31 224/357/31 222/353/31
f 223/356/32 166/358/32 165/359/32 224/357/32
f 164/360/66 166/361/66 223/362/66 221/363/66 219/364/66 217/365/66 215/366/66 213/367/66 211/368/66 209/369/66 207/370/66 205/371/66 203/372/66 201/373/66 199/374/66 197/375/66 195/376/66 193/377/66 191/378/66 189/379/66 187/380/66 185/381/66 183/382/66 181/383/66 179/384/66 177/385/66 175/386/66 173/387/66 171/388/66 169/389/66 167/390/66 162/391/66
f 168/299/3 232/392/3 226/393/3 161/297/3
f 218/349/28 282/394/28 280/395/28 216/347/28
f 174/305/6 238/396/6 236/397/6 172/303/6
f 192/323/15 256/398/15 254/399/15 190/321/15
f 210/341/24 274/400/24 272/401/24 208/339/24
f 247/402/11 300/403/11 299/404/11 245/405/11
f 170/301/4 234/406/4 232/392/4 168/299/4
f 165/359/32 229/407/32 288/408/32 224/357/32
f 184/315/11 248/409/11 246/410/11 182/313/11
f 202/333/20 266/411/20 264/354/20 200/331/20
f 220/351/29 284/412/29 282/394/29 218/349/29
f 176/307/7 240/413/7 238/396/7 174/305/7
f 194/325/16 258/414/16 256/398/16 192/323/16
f 212/343/25 276/415/25 274/400/25 210/341/25
f 186/317/12 250/416/12 248/409/12 184/315/12
f 204/335/21 268/417/21 266/411/21 202/333/21
f 222/353/30 286/418/30 284/412/30 220/351/30
f 178/309/8 242/419/8 240/413/8 176/307/8
f 196/327/17 260/420/17 258/414/17 194/325/17
f 214/345/26 278/421/26 276/415/26 212/343/26
f 163/294/1 227/422/1 229/423/1 165/295/1
f 188/319/13 252/424/13 250/416/13 186/317/13
f 206/337/22 270/425/22 268/417/22 204/335/22
f 224/357/31 288/408/31 286/418/31 222/353/31
f 180/311/9 244/426/9 242/419/9 178/309/9
f 198/329/18 262/355/18 260/420/18 196/327/18
f 216/347/27 280/395/27 278/421/27 214/345/27
f 172/303/5 236/397/5 234/406/5 170/301/5
f 190/321/14 254/399/14 252/424/14 188/319/14
f 208/339/23 272/401/23 270/425/23 206/337/23
f 182/313/10 246/410/10 244/426/10 180/311/10
f 226/393/67 225/427/67 228/428/67 227/422/67
f 227/422/68 228/429/68 230/430/68 229/423/68
f 232/392/69 231/431/69 225/432/69 226/393/69
f 234/406/70 233/433/70 231/434/70 232/392/70
f 236/397/71 235/435/71 233/436/71 234/406/71
f 238/396/72 237/437/72 235/438/72 236/397/72
f 240/413/73 239/439/73 237/440/73 238/396/73
f 242/419/74 241/441/74 239/442/74 240/413/74
f 244/426/75 243/443/75 241/444/75 242/419/75
f 246/410/76 245/445/76 243/446/76 244/426/76
f 248/409/77 247/402/77 245/405/77 246/410/77
f 250/416/78 249/447/78 247/448/78 248/409/78
f 252/424/79 251/449/79 249/450/79 250/416/79
f 254/399/80 253/451/80 251/452/80 252/424/80
f 256/398/81 255/453/81 253/454/81 254/399/81
f 258/414/82 257/455/82 255/456/82 256/398/82
f 260/420/83 259/457/83 257/458/83 258/414/83
f 262/355/84 261/459/84 259/460/84 260/420/84
f 264/354/85 263/461/85 261/462/85 262/355/85
f 266/411/86 265/463/86 263/464/86 264/354/86
f 268/417/87 267/465/87 265/466/87 266/411/87
f 270/425/88 269/467/88 267/468/88 268/417/88
f 272/401/89 271/469/89 269/470/89 270/425/89
f 274/400/90 273/471/90 271/472/90 272/401/90
f 276/415/91 275/473/91 273/474/91 274/400/91
f 278/421/92 277/475/92 275/476/92 276/415/92
f 280/395/93 279/477/93 277/478/93 278/421/93
f 282/394/94 281/479/94 279/480/94 280/395/94
f 284/412/95 283/481/95 281/482/95 282/394/95
f 286/418/96 285/483/96 283/484/96 284/412/96
f 288/408/97 287/485/97 285/486/97 286/418/97
f 229/407/98 230/487/98 287/488/98 288/408/98
f 161/297/2 226/393/2 227/422/2 163/294/2
f 289/489/33 290/490/33 292/491/33 293/492/33 294/493/33 295/494/33 296/495/33 297/496/33 298/497/33 299/498/33 300/499/33 301/500/33 302/501/33 303/502/33 304/503/33 305/504/33 306/505/33 307/506/33 308/507/33 309/508/33 310/509/33 311/510/33 312/511/33 313/512/33 314/513/33 315/514/33 316/515/33 317/516/33 318/517/33 319/518/33 320/519/33 291/520/33
f 265/463/20 309/521/20 308/522/20 263/464/20
f 283/481/29 318/523/29 317/524/29 281/482/29
f 239/439/7 296/525/7 295/526/7 237/440/7
f 257/455/16 305/527/16 304/528/16 255/456/16
f 275/473/25 314/529/25 313/530/25 273/474/25
f 231/431/3 292/531/3 290/532/3 225/432/3
f 249/447/12 301/533/12 300/534/12 247/448/12
f 267/465/21 310/535/21 309/536/21 265/466/21
f 285/483/30 319/537/30 318/538/30 283/484/30
f 241/441/8 297/539/8 296/540/8 239/442/8
f 259/457/17 306/541/17 305/542/17 257/458/17
f 277/475/26 315/543/26 314/544/26 275/476/26
f 233/433/4 293/545/4 292/546/4 231/434/4
f 251/449/13 302/547/13 301/548/13 249/450/13
f 269/467/22 311/549/22 310/550/22 267/468/22
f 287/485/31 320/551/31 319/552/31 285/486/31
f 243/443/9 298/553/9 297/554/9 241/444/9
f 261/459/18 307/555/18 306/556/18 259/460/18
f 279/477/27 316/557/27 315/558/27 277/478/27
f 230/487/32 291/559/32 320/560/32 287/488/32
f 235/435/5 294/561/5 293/562/5 233/436/5
f 253/451/14 303/563/14 302/564/14 251/452/14
f 271/469/23 312/565/23 311/566/23 269/470/23
f 225/427/2 290/567/2 289/568/2 228/428/2
f 245/445/10 299/569/10 298/570/10 243/446/10
f 263/461/19 308/571/19 307/572/19 261/462/19
f 281/479/28 317/573/28 316/574/28 279/480/28
f 237/437/6 295/575/6 294/576/6 235/438/6
f 255/453/15 304/577/15 303/578/15 253/454/15
f 273/471/24 313/579/24 312/580/24 271/472/24
f 228/429/1 289/581/1 291/582/1 230/430/1
