# MagicaVoxel @ Ephtracy

# group
o 

# material
mtllib TowerBase.mtl
usemtl palette

# normals
vn -1 0 0
vn 1 0 0
vn 0 0 1
vn 0 0 -1
vn 0 -1 0
vn 0 1 0

# texcoords
vt 0.970703 0.5
vt 0.974609 0.5
vt 0.978516 0.5

# verts
v -0.6 0.1 0.5
v -0.6 0.1 0.4
v -0.6 0.6 0.5
v -0.6 0.6 0.4
v -0.5 0.2 0.6
v -0.5 0.2 0.5
v -0.5 0.2 0.4
v -0.5 0.2 0.3
v -0.5 0.6 0.6
v -0.5 0.6 0.5
v -0.5 0.6 0.4
v -0.5 0.6 0.3
v -0.5 1.3 0.5
v -0.5 1.3 0.4
v -0.4 0.3 0.7
v -0.4 0.3 0.6
v -0.4 0.3 0.3
v -0.4 0.3 0.2
v -0.4 0.6 0.7
v -0.4 0.6 0.6
v -0.4 0.6 0.5
v -0.4 0.6 0.4
v -0.4 0.6 0.3
v -0.4 0.6 0.2
v -0.4 1.2 0.6
v -0.4 1.2 0.5
v -0.4 1.2 0.4
v -0.4 1.2 0.3
v -0.3 0.3 0.8
v -0.3 0.3 0.7
v -0.3 0.3 0.2
v -0.3 0.3 0.1
v -0.3 0.6 0.8
v -0.3 0.6 0.7
v -0.3 0.6 0.6
v -0.3 0.6 0.3
v -0.3 0.6 0.2
v -0.3 0.6 0.1
v -0.3 1.1 0.7
v -0.3 1.1 0.6
v -0.3 1.1 0.3
v -0.3 1.1 0.2
v -0.2 0.2 0.9
v -0.2 0.2 0.8
v -0.2 0.2 0.1
v -0.2 0.2 0
v -0.2 0.3 0.8
v -0.2 0.3 0.1
v -0.2 0.6 0.9
v -0.2 0.6 0.8
v -0.2 0.6 0.7
v -0.2 0.6 0.2
v -0.2 0.6 0.1
v -0.2 0.6 0
v -0.2 1.1 0.7
v -0.2 1.1 0.2
v -0.2 1.2 0.8
v -0.2 1.2 0.7
v -0.2 1.2 0.2
v -0.2 1.2 0.1
v -0.1 0.1 1
v -0.1 0.1 0.9
v -0.1 0.1 0
v -0.1 0.1 -0.1
v -0.1 0.2 0.9
v -0.1 0.2 0
v -0.1 0.6 1
v -0.1 0.6 0.9
v -0.1 0.6 0.8
v -0.1 0.6 0.1
v -0.1 0.6 0
v -0.1 0.6 -0.1
v -0.1 1.2 0.8
v -0.1 1.2 0.1
v -0.1 1.3 0.9
v -0.1 1.3 0.8
v -0.1 1.3 0.1
v -0.1 1.3 0
v -5.96046e-008 0.3 0.8
v -5.96046e-008 0.3 0.7
v -5.96046e-008 0.3 0.2
v -5.96046e-008 0.3 0.1
v -5.96046e-008 0.5 0.8
v -5.96046e-008 0.5 0.7
v -5.96046e-008 0.5 0.6
v -5.96046e-008 0.5 0.3
v -5.96046e-008 0.5 0.2
v -5.96046e-008 0.5 0.1
v -5.96046e-008 0.6 0.7
v -5.96046e-008 0.6 0.6
v -5.96046e-008 0.6 0.3
v -5.96046e-008 0.6 0.2
v -5.96046e-008 0.8 0.6
v -5.96046e-008 0.8 0.5
v -5.96046e-008 0.8 0.4
v -5.96046e-008 0.8 0.3
v -5.96046e-008 0.9 0.7
v -5.96046e-008 0.9 0.6
v -5.96046e-008 0.9 0.5
v -5.96046e-008 0.9 0.4
v -5.96046e-008 0.9 0.3
v -5.96046e-008 0.9 0.2
v -5.96046e-008 1 0.7
v -5.96046e-008 1 0.6
v -5.96046e-008 1 0.3
v -5.96046e-008 1 0.2
v -5.96046e-008 1.1 0.8
v -5.96046e-008 1.1 0.7
v -5.96046e-008 1.1 0.2
v -5.96046e-008 1.1 0.1
v -5.96046e-008 1.2 0.8
v -5.96046e-008 1.2 0.7
v -5.96046e-008 1.2 0.2
v -5.96046e-008 1.2 0.1
v 0.1 0.4 0.7
v 0.1 0.4 0.6
v 0.1 0.4 0.3
v 0.1 0.4 0.2
v 0.1 0.5 0.7
v 0.1 0.5 0.6
v 0.1 0.5 0.5
v 0.1 0.5 0.4
v 0.1 0.5 0.3
v 0.1 0.5 0.2
v 0.1 0.6 0.6
v 0.1 0.6 0.5
v 0.1 0.6 0.4
v 0.1 0.6 0.3
v 0.1 0.8 0.5
v 0.1 0.8 0.4
v 0.1 0.9 0.6
v 0.1 0.9 0.5
v 0.1 0.9 0.4
v 0.1 0.9 0.3
v 0.1 1 0.7
v 0.1 1 0.6
v 0.1 1 0.5
v 0.1 1 0.4
v 0.1 1 0.3
v 0.1 1 0.2
v 0.1 1.1 0.7
v 0.1 1.1 0.6
v 0.1 1.1 0.3
v 0.1 1.1 0.2
v 0.2 0.3 0.7
v 0.2 0.3 0.6
v 0.2 0.3 0.5
v 0.2 0.3 0.4
v 0.2 0.3 0.3
v 0.2 0.3 0.2
v 0.2 0.4 0.7
v 0.2 0.4 0.6
v 0.2 0.4 0.3
v 0.2 0.4 0.2
v 0.2 0.5 0.6
v 0.2 0.5 0.5
v 0.2 0.5 0.4
v 0.2 0.5 0.3
v 0.2 0.6 0.5
v 0.2 0.6 0.4
v 0.2 0.9 0.5
v 0.2 0.9 0.4
v 0.2 1 0.6
v 0.2 1 0.5
v 0.2 1 0.4
v 0.2 1 0.3
v 0.2 1.1 0.6
v 0.2 1.1 0.5
v 0.2 1.1 0.4
v 0.2 1.1 0.3
v 0.2 1.2 0.6
v 0.2 1.2 0.5
v 0.2 1.2 0.4
v 0.2 1.2 0.3
v 0.3 0.2 0.6
v 0.3 0.2 0.3
v 0.3 0.3 0.6
v 0.3 0.3 0.5
v 0.3 0.3 0.4
v 0.3 0.3 0.3
v 0.3 0.5 0.5
v 0.3 0.5 0.4
v 0.3 1.1 0.5
v 0.3 1.1 0.4
v 0.3 1.2 0.5
v 0.3 1.2 0.4
v 0.3 1.3 0.5
v 0.3 1.3 0.4
v 0.4 0.1 0.5
v 0.4 0.1 0.4
v 0.4 0.2 0.5
v 0.4 0.2 0.4
v -0.5 0.1 0.5
v -0.5 0.1 0.4
v -0.5 0.2 0.5
v -0.5 0.2 0.4
v -0.4 0.2 0.6
v -0.4 0.2 0.3
v -0.4 0.3 0.6
v -0.4 0.3 0.5
v -0.4 0.3 0.4
v -0.4 0.3 0.3
v -0.4 0.5 0.5
v -0.4 0.5 0.4
v -0.4 1.1 0.5
v -0.4 1.1 0.4
v -0.4 1.2 0.5
v -0.4 1.2 0.4
v -0.4 1.3 0.5
v -0.4 1.3 0.4
v -0.3 0.3 0.7
v -0.3 0.3 0.6
v -0.3 0.3 0.5
v -0.3 0.3 0.4
v -0.3 0.3 0.3
v -0.3 0.3 0.2
v -0.3 0.4 0.7
v -0.3 0.4 0.6
v -0.3 0.4 0.3
v -0.3 0.4 0.2
v -0.3 0.5 0.6
v -0.3 0.5 0.5
v -0.3 0.5 0.4
v -0.3 0.5 0.3
v -0.3 0.6 0.5
v -0.3 0.6 0.4
v -0.3 0.9 0.5
v -0.3 0.9 0.4
v -0.3 1 0.6
v -0.3 1 0.5
v -0.3 1 0.4
v -0.3 1 0.3
v -0.3 1.1 0.6
v -0.3 1.1 0.5
v -0.3 1.1 0.4
v -0.3 1.1 0.3
v -0.3 1.2 0.6
v -0.3 1.2 0.5
v -0.3 1.2 0.4
v -0.3 1.2 0.3
v -0.2 0.4 0.7
v -0.2 0.4 0.6
v -0.2 0.4 0.3
v -0.2 0.4 0.2
v -0.2 0.5 0.7
v -0.2 0.5 0.6
v -0.2 0.5 0.5
v -0.2 0.5 0.4
v -0.2 0.5 0.3
v -0.2 0.5 0.2
v -0.2 0.6 0.6
v -0.2 0.6 0.5
v -0.2 0.6 0.4
v -0.2 0.6 0.3
v -0.2 0.8 0.5
v -0.2 0.8 0.4
v -0.2 0.9 0.6
v -0.2 0.9 0.5
v -0.2 0.9 0.4
v -0.2 0.9 0.3
v -0.2 1 0.7
v -0.2 1 0.6
v -0.2 1 0.5
v -0.2 1 0.4
v -0.2 1 0.3
v -0.2 1 0.2
v -0.2 1.1 0.7
v -0.2 1.1 0.6
v -0.2 1.1 0.3
v -0.2 1.1 0.2
v -0.1 0.3 0.8
v -0.1 0.3 0.7
v -0.1 0.3 0.2
v -0.1 0.3 0.1
v -0.1 0.5 0.8
v -0.1 0.5 0.7
v -0.1 0.5 0.6
v -0.1 0.5 0.3
v -0.1 0.5 0.2
v -0.1 0.5 0.1
v -0.1 0.6 0.7
v -0.1 0.6 0.6
v -0.1 0.6 0.3
v -0.1 0.6 0.2
v -0.1 0.8 0.6
v -0.1 0.8 0.5
v -0.1 0.8 0.4
v -0.1 0.8 0.3
v -0.1 0.9 0.7
v -0.1 0.9 0.6
v -0.1 0.9 0.5
v -0.1 0.9 0.4
v -0.1 0.9 0.3
v -0.1 0.9 0.2
v -0.1 1 0.7
v -0.1 1 0.6
v -0.1 1 0.3
v -0.1 1 0.2
v -0.1 1.1 0.8
v -0.1 1.1 0.7
v -0.1 1.1 0.2
v -0.1 1.1 0.1
v -0.1 1.2 0.8
v -0.1 1.2 0.7
v -0.1 1.2 0.2
v -0.1 1.2 0.1
v -5.96046e-008 0.1 1
v -5.96046e-008 0.1 0.9
v -5.96046e-008 0.1 0
v -5.96046e-008 0.1 -0.1
v -5.96046e-008 0.2 0.9
v -5.96046e-008 0.2 0
v -5.96046e-008 0.6 1
v -5.96046e-008 0.6 0.9
v -5.96046e-008 0.6 0.8
v -5.96046e-008 0.6 0.1
v -5.96046e-008 0.6 0
v -5.96046e-008 0.6 -0.1
v -5.96046e-008 1.2 0.8
v -5.96046e-008 1.2 0.1
v -5.96046e-008 1.3 0.9
v -5.96046e-008 1.3 0.8
v -5.96046e-008 1.3 0.1
v -5.96046e-008 1.3 0
v 0.1 0.2 0.9
v 0.1 0.2 0.8
v 0.1 0.2 0.1
v 0.1 0.2 0
v 0.1 0.3 0.8
v 0.1 0.3 0.1
v 0.1 0.6 0.9
v 0.1 0.6 0.8
v 0.1 0.6 0.7
v 0.1 0.6 0.2
v 0.1 0.6 0.1
v 0.1 0.6 0
v 0.1 1.1 0.7
v 0.1 1.1 0.2
v 0.1 1.2 0.8
v 0.1 1.2 0.7
v 0.1 1.2 0.2
v 0.1 1.2 0.1
v 0.2 0.3 0.8
v 0.2 0.3 0.7
v 0.2 0.3 0.2
v 0.2 0.3 0.1
v 0.2 0.6 0.8
v 0.2 0.6 0.7
v 0.2 0.6 0.6
v 0.2 0.6 0.3
v 0.2 0.6 0.2
v 0.2 0.6 0.1
v 0.2 1.1 0.7
v 0.2 1.1 0.6
v 0.2 1.1 0.3
v 0.2 1.1 0.2
v 0.3 0.3 0.7
v 0.3 0.3 0.6
v 0.3 0.3 0.3
v 0.3 0.3 0.2
v 0.3 0.6 0.7
v 0.3 0.6 0.6
v 0.3 0.6 0.5
v 0.3 0.6 0.4
v 0.3 0.6 0.3
v 0.3 0.6 0.2
v 0.3 1.2 0.6
v 0.3 1.2 0.5
v 0.3 1.2 0.4
v 0.3 1.2 0.3
v 0.4 0.2 0.6
v 0.4 0.2 0.5
v 0.4 0.2 0.4
v 0.4 0.2 0.3
v 0.4 0.6 0.6
v 0.4 0.6 0.5
v 0.4 0.6 0.4
v 0.4 0.6 0.3
v 0.4 1.3 0.5
v 0.4 1.3 0.4
v 0.5 0.1 0.5
v 0.5 0.1 0.4
v 0.5 0.6 0.5
v 0.5 0.6 0.4
v -0.1 0.1 1
v -0.1 0.6 1
v -5.96046e-008 0.1 1
v -5.96046e-008 0.6 1
v -0.2 0.2 0.9
v -0.2 0.6 0.9
v -0.1 0.2 0.9
v -0.1 0.6 0.9
v -0.1 1.3 0.9
v -5.96046e-008 0.2 0.9
v -5.96046e-008 0.6 0.9
v -5.96046e-008 1.3 0.9
v 0.1 0.2 0.9
v 0.1 0.6 0.9
v -0.3 0.3 0.8
v -0.3 0.6 0.8
v -0.2 0.3 0.8
v -0.2 0.6 0.8
v -0.2 1.2 0.8
v -0.1 0.6 0.8
v -0.1 1.2 0.8
v -5.96046e-008 0.6 0.8
v -5.96046e-008 1.2 0.8
v 0.1 0.3 0.8
v 0.1 0.6 0.8
v 0.1 1.2 0.8
v 0.2 0.3 0.8
v 0.2 0.6 0.8
v -0.4 0.3 0.7
v -0.4 0.6 0.7
v -0.3 0.3 0.7
v -0.3 0.6 0.7
v -0.3 1.1 0.7
v -0.2 0.6 0.7
v -0.2 1.1 0.7
v 0.1 0.6 0.7
v 0.1 1.1 0.7
v 0.2 0.3 0.7
v 0.2 0.6 0.7
v 0.2 1.1 0.7
v 0.3 0.3 0.7
v 0.3 0.6 0.7
v -0.5 0.2 0.6
v -0.5 0.6 0.6
v -0.4 0.2 0.6
v -0.4 0.3 0.6
v -0.4 0.6 0.6
v -0.4 1.2 0.6
v -0.3 0.6 0.6
v -0.3 1.1 0.6
v -0.3 1.2 0.6
v 0.2 0.6 0.6
v 0.2 1.1 0.6
v 0.2 1.2 0.6
v 0.3 0.2 0.6
v 0.3 0.3 0.6
v 0.3 0.6 0.6
v 0.3 1.2 0.6
v 0.4 0.2 0.6
v 0.4 0.6 0.6
v -0.6 0.1 0.5
v -0.6 0.6 0.5
v -0.5 0.1 0.5
v -0.5 0.2 0.5
v -0.5 0.6 0.5
v -0.5 1.3 0.5
v -0.4 0.6 0.5
v -0.4 1.2 0.5
v -0.4 1.3 0.5
v 0.3 0.6 0.5
v 0.3 1.2 0.5
v 0.3 1.3 0.5
v 0.4 0.1 0.5
v 0.4 0.2 0.5
v 0.4 0.6 0.5
v 0.4 1.3 0.5
v 0.5 0.1 0.5
v 0.5 0.6 0.5
v -0.4 0.3 0.4
v -0.4 0.5 0.4
v -0.4 1.1 0.4
v -0.4 1.2 0.4
v -0.3 0.3 0.4
v -0.3 0.5 0.4
v -0.3 0.6 0.4
v -0.3 0.9 0.4
v -0.3 1 0.4
v -0.3 1.1 0.4
v -0.3 1.2 0.4
v -0.2 0.5 0.4
v -0.2 0.6 0.4
v -0.2 0.8 0.4
v -0.2 0.9 0.4
v -0.2 1 0.4
v -0.1 0.8 0.4
v -0.1 0.9 0.4
v -5.96046e-008 0.8 0.4
v -5.96046e-008 0.9 0.4
v 0.1 0.5 0.4
v 0.1 0.6 0.4
v 0.1 0.8 0.4
v 0.1 0.9 0.4
v 0.1 1 0.4
v 0.2 0.3 0.4
v 0.2 0.5 0.4
v 0.2 0.6 0.4
v 0.2 0.9 0.4
v 0.2 1 0.4
v 0.2 1.1 0.4
v 0.2 1.2 0.4
v 0.3 0.3 0.4
v 0.3 0.5 0.4
v 0.3 1.1 0.4
v 0.3 1.2 0.4
v -0.3 0.4 0.3
v -0.3 0.5 0.3
v -0.3 1 0.3
v -0.3 1.1 0.3
v -0.2 0.4 0.3
v -0.2 0.5 0.3
v -0.2 0.6 0.3
v -0.2 0.9 0.3
v -0.2 1 0.3
v -0.2 1.1 0.3
v -0.1 0.5 0.3
v -0.1 0.6 0.3
v -0.1 0.8 0.3
v -0.1 0.9 0.3
v -0.1 1 0.3
v -5.96046e-008 0.5 0.3
v -5.96046e-008 0.6 0.3
v -5.96046e-008 0.8 0.3
v -5.96046e-008 0.9 0.3
v -5.96046e-008 1 0.3
v 0.1 0.4 0.3
v 0.1 0.5 0.3
v 0.1 0.6 0.3
v 0.1 0.9 0.3
v 0.1 1 0.3
v 0.1 1.1 0.3
v 0.2 0.4 0.3
v 0.2 0.5 0.3
v 0.2 1 0.3
v 0.2 1.1 0.3
v -0.3 0.3 0.2
v -0.3 0.4 0.2
v -0.2 0.3 0.2
v -0.2 0.4 0.2
v -0.2 0.5 0.2
v -0.2 1 0.2
v -0.2 1.1 0.2
v -0.2 1.2 0.2
v -0.1 0.3 0.2
v -0.1 0.5 0.2
v -0.1 0.6 0.2
v -0.1 0.9 0.2
v -0.1 1 0.2
v -0.1 1.1 0.2
v -0.1 1.2 0.2
v -5.96046e-008 0.3 0.2
v -5.96046e-008 0.5 0.2
v -5.96046e-008 0.6 0.2
v -5.96046e-008 0.9 0.2
v -5.96046e-008 1 0.2
v -5.96046e-008 1.1 0.2
v -5.96046e-008 1.2 0.2
v 0.1 0.3 0.2
v 0.1 0.4 0.2
v 0.1 0.5 0.2
v 0.1 1 0.2
v 0.1 1.1 0.2
v 0.1 1.2 0.2
v 0.2 0.3 0.2
v 0.2 0.4 0.2
v -0.2 0.2 0.1
v -0.2 0.3 0.1
v -0.1 0.3 0.1
v -0.1 0.5 0.1
v -0.1 1.1 0.1
v -0.1 1.2 0.1
v -0.1 1.3 0.1
v -5.96046e-008 0.3 0.1
v -5.96046e-008 0.5 0.1
v -5.96046e-008 1.1 0.1
v -5.96046e-008 1.2 0.1
v -5.96046e-008 1.3 0.1
v 0.1 0.2 0.1
v 0.1 0.3 0.1
v -0.1 0.1 0
v -0.1 0.2 0
v -5.96046e-008 0.1 0
v -5.96046e-008 0.2 0
v -0.1 0.1 0.9
v -0.1 0.2 0.9
v -5.96046e-008 0.1 0.9
v -5.96046e-008 0.2 0.9
v -0.2 0.2 0.8
v -0.2 0.3 0.8
v -0.1 0.3 0.8
v -0.1 0.5 0.8
v -0.1 1.1 0.8
v -0.1 1.2 0.8
v -0.1 1.3 0.8
v -5.96046e-008 0.3 0.8
v -5.96046e-008 0.5 0.8
v -5.96046e-008 1.1 0.8
v -5.96046e-008 1.2 0.8
v -5.96046e-008 1.3 0.8
v 0.1 0.2 0.8
v 0.1 0.3 0.8
v -0.3 0.3 0.7
v -0.3 0.4 0.7
v -0.2 0.3 0.7
v -0.2 0.4 0.7
v -0.2 0.5 0.7
v -0.2 1 0.7
v -0.2 1.1 0.7
v -0.2 1.2 0.7
v -0.1 0.3 0.7
v -0.1 0.5 0.7
v -0.1 0.6 0.7
v -0.1 0.9 0.7
v -0.1 1 0.7
v -0.1 1.1 0.7
v -0.1 1.2 0.7
v -5.96046e-008 0.3 0.7
v -5.96046e-008 0.5 0.7
v -5.96046e-008 0.6 0.7
v -5.96046e-008 0.9 0.7
v -5.96046e-008 1 0.7
v -5.96046e-008 1.1 0.7
v -5.96046e-008 1.2 0.7
v 0.1 0.3 0.7
v 0.1 0.4 0.7
v 0.1 0.5 0.7
v 0.1 1 0.7
v 0.1 1.1 0.7
v 0.1 1.2 0.7
v 0.2 0.3 0.7
v 0.2 0.4 0.7
v -0.3 0.4 0.6
v -0.3 0.5 0.6
v -0.3 1 0.6
v -0.3 1.1 0.6
v -0.2 0.4 0.6
v -0.2 0.5 0.6
v -0.2 0.6 0.6
v -0.2 0.9 0.6
v -0.2 1 0.6
v -0.2 1.1 0.6
v -0.1 0.5 0.6
v -0.1 0.6 0.6
v -0.1 0.8 0.6
v -0.1 0.9 0.6
v -0.1 1 0.6
v -5.96046e-008 0.5 0.6
v -5.96046e-008 0.6 0.6
v -5.96046e-008 0.8 0.6
v -5.96046e-008 0.9 0.6
v -5.96046e-008 1 0.6
v 0.1 0.4 0.6
v 0.1 0.5 0.6
v 0.1 0.6 0.6
v 0.1 0.9 0.6
v 0.1 1 0.6
v 0.1 1.1 0.6
v 0.2 0.4 0.6
v 0.2 0.5 0.6
v 0.2 1 0.6
v 0.2 1.1 0.6
v -0.4 0.3 0.5
v -0.4 0.5 0.5
v -0.4 1.1 0.5
v -0.4 1.2 0.5
v -0.3 0.3 0.5
v -0.3 0.5 0.5
v -0.3 0.6 0.5
v -0.3 0.9 0.5
v -0.3 1 0.5
v -0.3 1.1 0.5
v -0.3 1.2 0.5
v -0.2 0.5 0.5
v -0.2 0.6 0.5
v -0.2 0.8 0.5
v -0.2 0.9 0.5
v -0.2 1 0.5
v -0.1 0.8 0.5
v -0.1 0.9 0.5
v -5.96046e-008 0.8 0.5
v -5.96046e-008 0.9 0.5
v 0.1 0.5 0.5
v 0.1 0.6 0.5
v 0.1 0.8 0.5
v 0.1 0.9 0.5
v 0.1 1 0.5
v 0.2 0.3 0.5
v 0.2 0.5 0.5
v 0.2 0.6 0.5
v 0.2 0.9 0.5
v 0.2 1 0.5
v 0.2 1.1 0.5
v 0.2 1.2 0.5
v 0.3 0.3 0.5
v 0.3 0.5 0.5
v 0.3 1.1 0.5
v 0.3 1.2 0.5
v -0.6 0.1 0.4
v -0.6 0.6 0.4
v -0.5 0.1 0.4
v -0.5 0.2 0.4
v -0.5 0.6 0.4
v -0.5 1.3 0.4
v -0.4 0.6 0.4
v -0.4 1.2 0.4
v -0.4 1.3 0.4
v 0.3 0.6 0.4
v 0.3 1.2 0.4
v 0.3 1.3 0.4
v 0.4 0.1 0.4
v 0.4 0.2 0.4
v 0.4 0.6 0.4
v 0.4 1.3 0.4
v 0.5 0.1 0.4
v 0.5 0.6 0.4
v -0.5 0.2 0.3
v -0.5 0.6 0.3
v -0.4 0.2 0.3
v -0.4 0.3 0.3
v -0.4 0.6 0.3
v -0.4 1.2 0.3
v -0.3 0.6 0.3
v -0.3 1.1 0.3
v -0.3 1.2 0.3
v 0.2 0.6 0.3
v 0.2 1.1 0.3
v 0.2 1.2 0.3
v 0.3 0.2 0.3
v 0.3 0.3 0.3
v 0.3 0.6 0.3
v 0.3 1.2 0.3
v 0.4 0.2 0.3
v 0.4 0.6 0.3
v -0.4 0.3 0.2
v -0.4 0.6 0.2
v -0.3 0.3 0.2
v -0.3 0.6 0.2
v -0.3 1.1 0.2
v -0.2 0.6 0.2
v -0.2 1.1 0.2
v 0.1 0.6 0.2
v 0.1 1.1 0.2
v 0.2 0.3 0.2
v 0.2 0.6 0.2
v 0.2 1.1 0.2
v 0.3 0.3 0.2
v 0.3 0.6 0.2
v -0.3 0.3 0.1
v -0.3 0.6 0.1
v -0.2 0.3 0.1
v -0.2 0.6 0.1
v -0.2 1.2 0.1
v -0.1 0.6 0.1
v -0.1 1.2 0.1
v -5.96046e-008 0.6 0.1
v -5.96046e-008 1.2 0.1
v 0.1 0.3 0.1
v 0.1 0.6 0.1
v 0.1 1.2 0.1
v 0.2 0.3 0.1
v 0.2 0.6 0.1
v -0.2 0.2 0
v -0.2 0.6 0
v -0.1 0.2 0
v -0.1 0.6 0
v -0.1 1.3 0
v -5.96046e-008 0.2 0
v -5.96046e-008 0.6 0
v -5.96046e-008 1.3 0
v 0.1 0.2 0
v 0.1 0.6 0
v -0.1 0.1 -0.1
v -0.1 0.6 -0.1
v -5.96046e-008 0.1 -0.1
v -5.96046e-008 0.6 -0.1
v -0.1 0.1 1
v -5.96046e-008 0.1 1
v -0.1 0.1 0.9
v -5.96046e-008 0.1 0.9
v -0.6 0.1 0.5
v -0.5 0.1 0.5
v 0.4 0.1 0.5
v 0.5 0.1 0.5
v -0.6 0.1 0.4
v -0.5 0.1 0.4
v 0.4 0.1 0.4
v 0.5 0.1 0.4
v -0.1 0.1 0
v -5.96046e-008 0.1 0
v -0.1 0.1 -0.1
v -5.96046e-008 0.1 -0.1
v -0.2 0.2 0.9
v -0.1 0.2 0.9
v -5.96046e-008 0.2 0.9
v 0.1 0.2 0.9
v -0.2 0.2 0.8
v 0.1 0.2 0.8
v -0.5 0.2 0.6
v -0.4 0.2 0.6
v 0.3 0.2 0.6
v 0.4 0.2 0.6
v -0.5 0.2 0.5
v 0.4 0.2 0.5
v -0.5 0.2 0.4
v 0.4 0.2 0.4
v -0.5 0.2 0.3
v -0.4 0.2 0.3
v 0.3 0.2 0.3
v 0.4 0.2 0.3
v -0.2 0.2 0.1
v 0.1 0.2 0.1
v -0.2 0.2 0
v -0.1 0.2 0
v -5.96046e-008 0.2 0
v 0.1 0.2 0
v -0.3 0.3 0.8
v -0.2 0.3 0.8
v -0.1 0.3 0.8
v -5.96046e-008 0.3 0.8
v 0.1 0.3 0.8
v 0.2 0.3 0.8
v -0.4 0.3 0.7
v -0.3 0.3 0.7
v -0.2 0.3 0.7
v -0.1 0.3 0.7
v -5.96046e-008 0.3 0.7
v 0.1 0.3 0.7
v 0.2 0.3 0.7
v 0.3 0.3 0.7
v -0.4 0.3 0.6
v -0.3 0.3 0.6
v 0.2 0.3 0.6
v 0.3 0.3 0.6
v -0.4 0.3 0.5
v -0.3 0.3 0.5
v 0.2 0.3 0.5
v 0.3 0.3 0.5
v -0.4 0.3 0.4
v -0.3 0.3 0.4
v 0.2 0.3 0.4
v 0.3 0.3 0.4
v -0.4 0.3 0.3
v -0.3 0.3 0.3
v 0.2 0.3 0.3
v 0.3 0.3 0.3
v -0.4 0.3 0.2
v -0.3 0.3 0.2
v -0.2 0.3 0.2
v -0.1 0.3 0.2
v -5.96046e-008 0.3 0.2
v 0.1 0.3 0.2
v 0.2 0.3 0.2
v 0.3 0.3 0.2
v -0.3 0.3 0.1
v -0.2 0.3 0.1
v -0.1 0.3 0.1
v -5.96046e-008 0.3 0.1
v 0.1 0.3 0.1
v 0.2 0.3 0.1
v -0.3 0.4 0.7
v -0.2 0.4 0.7
v 0.1 0.4 0.7
v 0.2 0.4 0.7
v -0.3 0.4 0.6
v -0.2 0.4 0.6
v 0.1 0.4 0.6
v 0.2 0.4 0.6
v -0.3 0.4 0.3
v -0.2 0.4 0.3
v 0.1 0.4 0.3
v 0.2 0.4 0.3
v -0.3 0.4 0.2
v -0.2 0.4 0.2
v 0.1 0.4 0.2
v 0.2 0.4 0.2
v -0.1 0.5 0.8
v -5.96046e-008 0.5 0.8
v -0.2 0.5 0.7
v -0.1 0.5 0.7
v -5.96046e-008 0.5 0.7
v 0.1 0.5 0.7
v -0.3 0.5 0.6
v -0.2 0.5 0.6
v -0.1 0.5 0.6
v -5.96046e-008 0.5 0.6
v 0.1 0.5 0.6
v 0.2 0.5 0.6
v -0.4 0.5 0.5
v -0.3 0.5 0.5
v -0.2 0.5 0.5
v 0.1 0.5 0.5
v 0.2 0.5 0.5
v 0.3 0.5 0.5
v -0.4 0.5 0.4
v -0.3 0.5 0.4
v -0.2 0.5 0.4
v 0.1 0.5 0.4
v 0.2 0.5 0.4
v 0.3 0.5 0.4
v -0.3 0.5 0.3
v -0.2 0.5 0.3
v -0.1 0.5 0.3
v -5.96046e-008 0.5 0.3
v 0.1 0.5 0.3
v 0.2 0.5 0.3
v -0.2 0.5 0.2
v -0.1 0.5 0.2
v -5.96046e-008 0.5 0.2
v 0.1 0.5 0.2
v -0.1 0.5 0.1
v -5.96046e-008 0.5 0.1
v -0.1 0.6 0.7
v -5.96046e-008 0.6 0.7
v -0.2 0.6 0.6
v -0.1 0.6 0.6
v -5.96046e-008 0.6 0.6
v 0.1 0.6 0.6
v -0.3 0.6 0.5
v -0.2 0.6 0.5
v 0.1 0.6 0.5
v 0.2 0.6 0.5
v -0.3 0.6 0.4
v -0.2 0.6 0.4
v 0.1 0.6 0.4
v 0.2 0.6 0.4
v -0.2 0.6 0.3
v -0.1 0.6 0.3
v -5.96046e-008 0.6 0.3
v 0.1 0.6 0.3
v -0.1 0.6 0.2
v -5.96046e-008 0.6 0.2
v -0.1 0.6 1
v -5.96046e-008 0.6 1
v -0.2 0.6 0.9
v -0.1 0.6 0.9
v -5.96046e-008 0.6 0.9
v 0.1 0.6 0.9
v -0.3 0.6 0.8
v -0.2 0.6 0.8
v -0.1 0.6 0.8
v -5.96046e-008 0.6 0.8
v 0.1 0.6 0.8
v 0.2 0.6 0.8
v -0.4 0.6 0.7
v -0.3 0.6 0.7
v -0.2 0.6 0.7
v 0.1 0.6 0.7
v 0.2 0.6 0.7
v 0.3 0.6 0.7
v -0.5 0.6 0.6
v -0.4 0.6 0.6
v -0.3 0.6 0.6
v 0.2 0.6 0.6
v 0.3 0.6 0.6
v 0.4 0.6 0.6
v -0.6 0.6 0.5
v -0.5 0.6 0.5
v -0.4 0.6 0.5
v 0.3 0.6 0.5
v 0.4 0.6 0.5
v 0.5 0.6 0.5
v -0.6 0.6 0.4
v -0.5 0.6 0.4
v -0.4 0.6 0.4
v 0.3 0.6 0.4
v 0.4 0.6 0.4
v 0.5 0.6 0.4
v -0.5 0.6 0.3
v -0.4 0.6 0.3
v -0.3 0.6 0.3
v 0.2 0.6 0.3
v 0.3 0.6 0.3
v 0.4 0.6 0.3
v -0.4 0.6 0.2
v -0.3 0.6 0.2
v -0.2 0.6 0.2
v 0.1 0.6 0.2
v 0.2 0.6 0.2
v 0.3 0.6 0.2
v -0.3 0.6 0.1
v -0.2 0.6 0.1
v -0.1 0.6 0.1
v -5.96046e-008 0.6 0.1
v 0.1 0.6 0.1
v 0.2 0.6 0.1
v -0.2 0.6 0
v -0.1 0.6 0
v -5.96046e-008 0.6 0
v 0.1 0.6 0
v -0.1 0.6 -0.1
v -5.96046e-008 0.6 -0.1
v -0.1 0.8 0.6
v -5.96046e-008 0.8 0.6
v -0.2 0.8 0.5
v -0.1 0.8 0.5
v -5.96046e-008 0.8 0.5
v 0.1 0.8 0.5
v -0.2 0.8 0.4
v -0.1 0.8 0.4
v -5.96046e-008 0.8 0.4
v 0.1 0.8 0.4
v -0.1 0.8 0.3
v -5.96046e-008 0.8 0.3
v -0.1 0.9 0.7
v -5.96046e-008 0.9 0.7
v -0.2 0.9 0.6
v -0.1 0.9 0.6
v -5.96046e-008 0.9 0.6
v 0.1 0.9 0.6
v -0.3 0.9 0.5
v -0.2 0.9 0.5
v -0.1 0.9 0.5
v -5.96046e-008 0.9 0.5
v 0.1 0.9 0.5
v 0.2 0.9 0.5
v -0.3 0.9 0.4
v -0.2 0.9 0.4
v -0.1 0.9 0.4
v -5.96046e-008 0.9 0.4
v 0.1 0.9 0.4
v 0.2 0.9 0.4
v -0.2 0.9 0.3
v -0.1 0.9 0.3
v -5.96046e-008 0.9 0.3
v 0.1 0.9 0.3
v -0.1 0.9 0.2
v -5.96046e-008 0.9 0.2
v -0.2 1 0.7
v -0.1 1 0.7
v -5.96046e-008 1 0.7
v 0.1 1 0.7
v -0.3 1 0.6
v -0.2 1 0.6
v -0.1 1 0.6
v -5.96046e-008 1 0.6
v 0.1 1 0.6
v 0.2 1 0.6
v -0.3 1 0.5
v -0.2 1 0.5
v 0.1 1 0.5
v 0.2 1 0.5
v -0.3 1 0.4
v -0.2 1 0.4
v 0.1 1 0.4
v 0.2 1 0.4
v -0.3 1 0.3
v -0.2 1 0.3
v -0.1 1 0.3
v -5.96046e-008 1 0.3
v 0.1 1 0.3
v 0.2 1 0.3
v -0.2 1 0.2
v -0.1 1 0.2
v -5.96046e-008 1 0.2
v 0.1 1 0.2
v -0.1 1.1 0.8
v -5.96046e-008 1.1 0.8
v -0.3 1.1 0.7
v -0.2 1.1 0.7
v -0.1 1.1 0.7
v -5.96046e-008 1.1 0.7
v 0.1 1.1 0.7
v 0.2 1.1 0.7
v -0.3 1.1 0.6
v -0.2 1.1 0.6
v 0.1 1.1 0.6
v 0.2 1.1 0.6
v -0.4 1.1 0.5
v -0.3 1.1 0.5
v 0.2 1.1 0.5
v 0.3 1.1 0.5
v -0.4 1.1 0.4
v -0.3 1.1 0.4
v 0.2 1.1 0.4
v 0.3 1.1 0.4
v -0.3 1.1 0.3
v -0.2 1.1 0.3
v 0.1 1.1 0.3
v 0.2 1.1 0.3
v -0.3 1.1 0.2
v -0.2 1.1 0.2
v -0.1 1.1 0.2
v -5.96046e-008 1.1 0.2
v 0.1 1.1 0.2
v 0.2 1.1 0.2
v -0.1 1.1 0.1
v -5.96046e-008 1.1 0.1
v -0.2 1.2 0.8
v -0.1 1.2 0.8
v -5.96046e-008 1.2 0.8
v 0.1 1.2 0.8
v -0.2 1.2 0.7
v -0.1 1.2 0.7
v -5.96046e-008 1.2 0.7
v 0.1 1.2 0.7
v -0.4 1.2 0.6
v -0.3 1.2 0.6
v 0.2 1.2 0.6
v 0.3 1.2 0.6
v -0.4 1.2 0.5
v -0.3 1.2 0.5
v 0.2 1.2 0.5
v 0.3 1.2 0.5
v -0.4 1.2 0.4
v -0.3 1.2 0.4
v 0.2 1.2 0.4
v 0.3 1.2 0.4
v -0.4 1.2 0.3
v -0.3 1.2 0.3
v 0.2 1.2 0.3
v 0.3 1.2 0.3
v -0.2 1.2 0.2
v -0.1 1.2 0.2
v -5.96046e-008 1.2 0.2
v 0.1 1.2 0.2
v -0.2 1.2 0.1
v -0.1 1.2 0.1
v -5.96046e-008 1.2 0.1
v 0.1 1.2 0.1
v -0.1 1.3 0.9
v -5.96046e-008 1.3 0.9
v -0.1 1.3 0.8
v -5.96046e-008 1.3 0.8
v -0.5 1.3 0.5
v -0.4 1.3 0.5
v 0.3 1.3 0.5
v 0.4 1.3 0.5
v -0.5 1.3 0.4
v -0.4 1.3 0.4
v 0.3 1.3 0.4
v 0.4 1.3 0.4
v -0.1 1.3 0.1
v -5.96046e-008 1.3 0.1
v -0.1 1.3 0
v -5.96046e-008 1.3 0

# faces
f 3/2/1 2/2/1 1/2/1
f 4/2/1 2/2/1 3/2/1
f 9/1/1 6/1/1 5/1/1
f 10/1/1 6/1/1 9/1/1
f 11/1/1 8/1/1 7/1/1
f 12/1/1 8/1/1 11/1/1
f 13/2/1 11/2/1 10/2/1
f 14/2/1 11/2/1 13/2/1
f 19/2/1 16/2/1 15/2/1
f 20/2/1 16/2/1 19/2/1
f 23/2/1 18/2/1 17/2/1
f 24/2/1 18/2/1 23/2/1
f 25/1/1 21/1/1 20/1/1
f 26/1/1 21/1/1 25/1/1
f 27/1/1 23/1/1 22/1/1
f 28/1/1 23/1/1 27/1/1
f 33/2/1 30/2/1 29/2/1
f 34/2/1 30/2/1 33/2/1
f 37/2/1 32/2/1 31/2/1
f 38/2/1 32/2/1 37/2/1
f 39/2/1 35/2/1 34/2/1
f 40/2/1 35/2/1 39/2/1
f 41/2/1 37/2/1 36/2/1
f 42/2/1 37/2/1 41/2/1
f 47/1/1 44/1/1 43/1/1
f 48/1/1 46/1/1 45/1/1
f 49/1/1 47/1/1 43/1/1
f 50/1/1 47/1/1 49/1/1
f 53/1/1 46/1/1 48/1/1
f 54/1/1 46/1/1 53/1/1
f 55/1/1 51/1/1 50/1/1
f 56/1/1 53/1/1 52/1/1
f 57/1/1 55/1/1 50/1/1
f 58/1/1 55/1/1 57/1/1
f 59/1/1 53/1/1 56/1/1
f 60/1/1 53/1/1 59/1/1
f 65/2/1 62/2/1 61/2/1
f 66/2/1 64/2/1 63/2/1
f 67/2/1 65/2/1 61/2/1
f 68/2/1 65/2/1 67/2/1
f 71/2/1 64/2/1 66/2/1
f 72/2/1 64/2/1 71/2/1
f 73/2/1 69/2/1 68/2/1
f 74/2/1 71/2/1 70/2/1
f 75/2/1 73/2/1 68/2/1
f 76/2/1 73/2/1 75/2/1
f 77/2/1 71/2/1 74/2/1
f 78/2/1 71/2/1 77/2/1
f 83/1/1 80/1/1 79/1/1
f 84/1/1 80/1/1 83/1/1
f 87/1/1 82/1/1 81/1/1
f 88/1/1 82/1/1 87/1/1
f 89/1/1 85/1/1 84/1/1
f 90/1/1 85/1/1 89/1/1
f 91/1/1 87/1/1 86/1/1
f 92/1/1 87/1/1 91/1/1
f 98/3/1 94/3/1 93/3/1
f 99/3/1 94/3/1 98/3/1
f 100/3/1 96/3/1 95/3/1
f 101/3/1 96/3/1 100/3/1
f 103/3/1 98/3/1 97/3/1
f 104/3/1 98/3/1 103/3/1
f 105/3/1 102/3/1 101/3/1
f 106/3/1 102/3/1 105/3/1
f 111/1/1 108/1/1 107/1/1
f 112/1/1 108/1/1 111/1/1
f 113/1/1 110/1/1 109/1/1
f 114/1/1 110/1/1 113/1/1
f 119/1/1 116/1/1 115/1/1
f 120/1/1 116/1/1 119/1/1
f 123/1/1 118/1/1 117/1/1
f 124/1/1 118/1/1 123/1/1
f 125/1/1 121/1/1 120/1/1
f 126/1/1 121/1/1 125/1/1
f 127/1/1 123/1/1 122/1/1
f 128/1/1 123/1/1 127/1/1
f 132/3/1 130/3/1 129/3/1
f 133/3/1 130/3/1 132/3/1
f 136/3/1 132/3/1 131/3/1
f 137/3/1 132/3/1 136/3/1
f 138/3/1 134/3/1 133/3/1
f 139/3/1 134/3/1 138/3/1
f 141/2/1 136/2/1 135/2/1
f 142/2/1 136/2/1 141/2/1
f 143/2/1 140/2/1 139/2/1
f 144/2/1 140/2/1 143/2/1
f 151/2/1 146/2/1 145/2/1
f 152/1/1 147/1/1 146/1/1
f 152/2/1 146/2/1 151/2/1
f 153/2/1 150/2/1 149/2/1
f 153/1/1 149/1/1 148/1/1
f 154/2/1 150/2/1 153/2/1
f 155/1/1 147/1/1 152/1/1
f 156/1/1 147/1/1 155/1/1
f 157/1/1 153/1/1 148/1/1
f 158/1/1 153/1/1 157/1/1
f 159/1/1 157/1/1 156/1/1
f 160/1/1 157/1/1 159/1/1
f 164/1/1 162/1/1 161/1/1
f 165/1/1 162/1/1 164/1/1
f 167/1/1 165/1/1 164/1/1
f 167/1/1 166/1/1 165/1/1
f 167/1/1 164/1/1 163/1/1
f 168/1/1 166/1/1 167/1/1
f 169/1/1 166/1/1 168/1/1
f 170/1/1 166/1/1 169/1/1
f 171/1/1 168/1/1 167/1/1
f 172/1/1 168/1/1 171/1/1
f 173/1/1 170/1/1 169/1/1
f 174/1/1 170/1/1 173/1/1
f 177/1/1 176/1/1 175/1/1
f 178/1/1 176/1/1 177/1/1
f 179/1/1 176/1/1 178/1/1
f 180/1/1 176/1/1 179/1/1
f 181/1/1 179/1/1 178/1/1
f 182/1/1 179/1/1 181/1/1
f 185/2/1 184/2/1 183/2/1
f 186/2/1 184/2/1 185/2/1
f 187/2/1 186/2/1 185/2/1
f 188/2/1 186/2/1 187/2/1
f 191/2/1 190/2/1 189/2/1
f 192/2/1 190/2/1 191/2/1
f 193/2/2 194/2/2 195/2/2
f 195/2/2 194/2/2 196/2/2
f 197/1/2 198/1/2 199/1/2
f 199/1/2 198/1/2 200/1/2
f 200/1/2 198/1/2 201/1/2
f 201/1/2 198/1/2 202/1/2
f 200/1/2 201/1/2 203/1/2
f 203/1/2 201/1/2 204/1/2
f 205/2/2 206/2/2 207/2/2
f 207/2/2 206/2/2 208/2/2
f 207/2/2 208/2/2 209/2/2
f 209/2/2 208/2/2 210/2/2
f 211/2/2 212/2/2 217/2/2
f 212/1/2 213/1/2 218/1/2
f 217/2/2 212/2/2 218/2/2
f 215/2/2 216/2/2 219/2/2
f 214/1/2 215/1/2 219/1/2
f 219/2/2 216/2/2 220/2/2
f 218/1/2 213/1/2 221/1/2
f 221/1/2 213/1/2 222/1/2
f 214/1/2 219/1/2 223/1/2
f 223/1/2 219/1/2 224/1/2
f 222/1/2 223/1/2 225/1/2
f 225/1/2 223/1/2 226/1/2
f 227/1/2 228/1/2 230/1/2
f 230/1/2 228/1/2 231/1/2
f 230/1/2 231/1/2 233/1/2
f 231/1/2 232/1/2 233/1/2
f 229/1/2 230/1/2 233/1/2
f 233/1/2 232/1/2 234/1/2
f 234/1/2 232/1/2 235/1/2
f 235/1/2 232/1/2 236/1/2
f 233/1/2 234/1/2 237/1/2
f 237/1/2 234/1/2 238/1/2
f 235/1/2 236/1/2 239/1/2
f 239/1/2 236/1/2 240/1/2
f 241/1/2 242/1/2 245/1/2
f 245/1/2 242/1/2 246/1/2
f 243/1/2 244/1/2 249/1/2
f 249/1/2 244/1/2 250/1/2
f 246/1/2 247/1/2 251/1/2
f 251/1/2 247/1/2 252/1/2
f 248/1/2 249/1/2 253/1/2
f 253/1/2 249/1/2 254/1/2
f 255/3/2 256/3/2 258/3/2
f 258/3/2 256/3/2 259/3/2
f 257/3/2 258/3/2 262/3/2
f 262/3/2 258/3/2 263/3/2
f 259/3/2 260/3/2 264/3/2
f 264/3/2 260/3/2 265/3/2
f 261/2/2 262/2/2 267/2/2
f 267/2/2 262/2/2 268/2/2
f 265/2/2 266/2/2 269/2/2
f 269/2/2 266/2/2 270/2/2
f 271/1/2 272/1/2 275/1/2
f 275/1/2 272/1/2 276/1/2
f 273/1/2 274/1/2 279/1/2
f 279/1/2 274/1/2 280/1/2
f 276/1/2 277/1/2 281/1/2
f 281/1/2 277/1/2 282/1/2
f 278/1/2 279/1/2 283/1/2
f 283/1/2 279/1/2 284/1/2
f 285/3/2 286/3/2 290/3/2
f 290/3/2 286/3/2 291/3/2
f 287/3/2 288/3/2 292/3/2
f 292/3/2 288/3/2 293/3/2
f 289/3/2 290/3/2 295/3/2
f 295/3/2 290/3/2 296/3/2
f 293/3/2 294/3/2 297/3/2
f 297/3/2 294/3/2 298/3/2
f 299/1/2 300/1/2 303/1/2
f 303/1/2 300/1/2 304/1/2
f 301/1/2 302/1/2 305/1/2
f 305/1/2 302/1/2 306/1/2
f 307/2/2 308/2/2 311/2/2
f 309/2/2 310/2/2 312/2/2
f 307/2/2 311/2/2 313/2/2
f 313/2/2 311/2/2 314/2/2
f 312/2/2 310/2/2 317/2/2
f 317/2/2 310/2/2 318/2/2
f 314/2/2 315/2/2 319/2/2
f 316/2/2 317/2/2 320/2/2
f 314/2/2 319/2/2 321/2/2
f 321/2/2 319/2/2 322/2/2
f 320/2/2 317/2/2 323/2/2
f 323/2/2 317/2/2 324/2/2
f 325/1/2 326/1/2 329/1/2
f 327/1/2 328/1/2 330/1/2
f 325/1/2 329/1/2 331/1/2
f 331/1/2 329/1/2 332/1/2
f 330/1/2 328/1/2 335/1/2
f 335/1/2 328/1/2 336/1/2
f 332/1/2 333/1/2 337/1/2
f 334/1/2 335/1/2 338/1/2
f 332/1/2 337/1/2 339/1/2
f 339/1/2 337/1/2 340/1/2
f 338/1/2 335/1/2 341/1/2
f 341/1/2 335/1/2 342/1/2
f 343/2/2 344/2/2 347/2/2
f 347/2/2 344/2/2 348/2/2
f 345/2/2 346/2/2 351/2/2
f 351/2/2 346/2/2 352/2/2
f 348/2/2 349/2/2 353/2/2
f 353/2/2 349/2/2 354/2/2
f 350/2/2 351/2/2 355/2/2
f 355/2/2 351/2/2 356/2/2
f 357/2/2 358/2/2 361/2/2
f 361/2/2 358/2/2 362/2/2
f 359/2/2 360/2/2 365/2/2
f 365/2/2 360/2/2 366/2/2
f 362/1/2 363/1/2 367/1/2
f 367/1/2 363/1/2 368/1/2
f 364/1/2 365/1/2 369/1/2
f 369/1/2 365/1/2 370/1/2
f 371/1/2 372/1/2 375/1/2
f 375/1/2 372/1/2 376/1/2
f 373/1/2 374/1/2 377/1/2
f 377/1/2 374/1/2 378/1/2
f 376/2/2 377/2/2 379/2/2
f 379/2/2 377/2/2 380/2/2
f 381/2/2 382/2/2 383/2/2
f 383/2/2 382/2/2 384/2/2
f 387/2/3 386/2/3 385/2/3
f 388/2/3 386/2/3 387/2/3
f 391/1/3 390/1/3 389/1/3
f 392/1/3 390/1/3 391/1/3
f 395/2/3 393/2/3 392/2/3
f 396/2/3 393/2/3 395/2/3
f 397/1/3 395/1/3 394/1/3
f 398/1/3 395/1/3 397/1/3
f 401/2/3 400/2/3 399/2/3
f 402/2/3 400/2/3 401/2/3
f 404/1/3 403/1/3 402/1/3
f 405/1/3 403/1/3 404/1/3
f 409/1/3 407/1/3 406/1/3
f 410/1/3 407/1/3 409/1/3
f 411/2/3 409/2/3 408/2/3
f 412/2/3 409/2/3 411/2/3
f 415/2/3 414/2/3 413/2/3
f 416/2/3 414/2/3 415/2/3
f 418/2/3 417/2/3 416/2/3
f 419/2/3 417/2/3 418/2/3
f 423/2/3 421/2/3 420/2/3
f 424/2/3 421/2/3 423/2/3
f 425/2/3 423/2/3 422/2/3
f 426/2/3 423/2/3 425/2/3
f 429/1/3 428/1/3 427/1/3
f 430/1/3 428/1/3 429/1/3
f 431/1/3 428/1/3 430/1/3
f 433/1/3 432/1/3 431/1/3
f 434/1/3 432/1/3 433/1/3
f 435/1/3 432/1/3 434/1/3
f 441/1/3 437/1/3 436/1/3
f 441/1/3 438/1/3 437/1/3
f 442/1/3 438/1/3 441/1/3
f 443/1/3 440/1/3 439/1/3
f 443/1/3 441/1/3 440/1/3
f 444/1/3 441/1/3 443/1/3
f 447/2/3 446/2/3 445/2/3
f 448/2/3 446/2/3 447/2/3
f 449/2/3 446/2/3 448/2/3
f 451/2/3 450/2/3 449/2/3
f 452/2/3 450/2/3 451/2/3
f 453/2/3 450/2/3 452/2/3
f 459/2/3 455/2/3 454/2/3
f 459/2/3 456/2/3 455/2/3
f 460/2/3 456/2/3 459/2/3
f 461/2/3 458/2/3 457/2/3
f 461/2/3 459/2/3 458/2/3
f 462/2/3 459/2/3 461/2/3
f 467/1/3 464/1/3 463/1/3
f 468/1/3 464/1/3 467/1/3
f 472/1/3 466/1/3 465/1/3
f 473/1/3 466/1/3 472/1/3
f 474/1/3 469/1/3 468/1/3
f 475/1/3 469/1/3 474/1/3
f 477/3/3 471/3/3 470/3/3
f 478/3/3 471/3/3 477/3/3
f 479/3/3 477/3/3 476/3/3
f 480/3/3 477/3/3 479/3/3
f 485/3/3 482/3/3 481/3/3
f 486/3/3 482/3/3 485/3/3
f 489/1/3 484/1/3 483/1/3
f 490/1/3 484/1/3 489/1/3
f 491/3/3 487/3/3 486/3/3
f 492/3/3 487/3/3 491/3/3
f 495/1/3 489/1/3 488/1/3
f 496/1/3 489/1/3 495/1/3
f 497/1/3 494/1/3 493/1/3
f 498/1/3 494/1/3 497/1/3
f 503/1/3 500/1/3 499/1/3
f 504/1/3 500/1/3 503/1/3
f 507/2/3 502/2/3 501/2/3
f 508/2/3 502/2/3 507/2/3
f 509/1/3 505/1/3 504/1/3
f 510/1/3 505/1/3 509/1/3
f 512/3/3 507/3/3 506/3/3
f 513/3/3 507/3/3 512/3/3
f 516/3/3 512/3/3 511/3/3
f 517/3/3 512/3/3 516/3/3
f 520/1/3 515/1/3 514/1/3
f 521/1/3 515/1/3 520/1/3
f 522/3/3 518/3/3 517/3/3
f 523/3/3 518/3/3 522/3/3
f 525/1/3 520/1/3 519/1/3
f 526/1/3 520/1/3 525/1/3
f 527/2/3 524/2/3 523/2/3
f 528/2/3 524/2/3 527/2/3
f 531/2/3 530/2/3 529/2/3
f 532/2/3 530/2/3 531/2/3
f 537/1/3 532/1/3 531/1/3
f 537/1/3 533/1/3 532/1/3
f 538/1/3 533/1/3 537/1/3
f 541/1/3 536/1/3 535/1/3
f 541/1/3 535/1/3 534/1/3
f 542/1/3 536/1/3 541/1/3
f 543/1/3 536/1/3 542/1/3
f 545/1/3 539/1/3 538/1/3
f 546/1/3 539/1/3 545/1/3
f 547/1/3 542/1/3 541/1/3
f 547/1/3 541/1/3 540/1/3
f 548/1/3 542/1/3 547/1/3
f 549/1/3 542/1/3 548/1/3
f 551/1/3 545/1/3 544/1/3
f 552/1/3 545/1/3 551/1/3
f 553/1/3 545/1/3 552/1/3
f 554/1/3 550/1/3 549/1/3
f 554/1/3 549/1/3 548/1/3
f 555/1/3 550/1/3 554/1/3
f 556/1/3 550/1/3 555/1/3
f 557/2/3 552/2/3 551/2/3
f 558/2/3 552/2/3 557/2/3
f 561/1/3 560/1/3 559/1/3
f 566/1/3 561/1/3 559/1/3
f 566/1/3 562/1/3 561/1/3
f 567/1/3 562/1/3 566/1/3
f 568/2/3 565/2/3 564/2/3
f 568/2/3 564/2/3 563/2/3
f 569/2/3 565/2/3 568/2/3
f 570/2/3 565/2/3 569/2/3
f 571/1/3 566/1/3 559/1/3
f 572/1/3 566/1/3 571/1/3
f 575/2/3 574/2/3 573/2/3
f 576/2/3 574/2/3 575/2/3
f 577/2/4 578/2/4 579/2/4
f 579/2/4 578/2/4 580/2/4
f 581/1/4 582/1/4 583/1/4
f 581/1/4 583/1/4 588/1/4
f 583/1/4 584/1/4 588/1/4
f 588/1/4 584/1/4 589/1/4
f 586/2/4 587/2/4 590/2/4
f 585/2/4 586/2/4 590/2/4
f 590/2/4 587/2/4 591/2/4
f 591/2/4 587/2/4 592/2/4
f 581/1/4 588/1/4 593/1/4
f 593/1/4 588/1/4 594/1/4
f 595/2/4 596/2/4 597/2/4
f 597/2/4 596/2/4 598/2/4
f 597/1/4 598/1/4 603/1/4
f 598/1/4 599/1/4 603/1/4
f 603/1/4 599/1/4 604/1/4
f 601/1/4 602/1/4 607/1/4
f 600/1/4 601/1/4 607/1/4
f 607/1/4 602/1/4 608/1/4
f 608/1/4 602/1/4 609/1/4
f 604/1/4 605/1/4 611/1/4
f 611/1/4 605/1/4 612/1/4
f 607/1/4 608/1/4 613/1/4
f 606/1/4 607/1/4 613/1/4
f 613/1/4 608/1/4 614/1/4
f 614/1/4 608/1/4 615/1/4
f 610/1/4 611/1/4 617/1/4
f 617/1/4 611/1/4 618/1/4
f 618/1/4 611/1/4 619/1/4
f 615/1/4 616/1/4 620/1/4
f 614/1/4 615/1/4 620/1/4
f 620/1/4 616/1/4 621/1/4
f 621/1/4 616/1/4 622/1/4
f 617/2/4 618/2/4 623/2/4
f 623/2/4 618/2/4 624/2/4
f 625/1/4 626/1/4 629/1/4
f 629/1/4 626/1/4 630/1/4
f 627/2/4 628/2/4 633/2/4
f 633/2/4 628/2/4 634/2/4
f 630/1/4 631/1/4 635/1/4
f 635/1/4 631/1/4 636/1/4
f 632/3/4 633/3/4 638/3/4
f 638/3/4 633/3/4 639/3/4
f 637/3/4 638/3/4 642/3/4
f 642/3/4 638/3/4 643/3/4
f 640/1/4 641/1/4 646/1/4
f 646/1/4 641/1/4 647/1/4
f 643/3/4 644/3/4 648/3/4
f 648/3/4 644/3/4 649/3/4
f 645/1/4 646/1/4 651/1/4
f 651/1/4 646/1/4 652/1/4
f 649/2/4 650/2/4 653/2/4
f 653/2/4 650/2/4 654/2/4
f 655/1/4 656/1/4 659/1/4
f 659/1/4 656/1/4 660/1/4
f 657/1/4 658/1/4 664/1/4
f 664/1/4 658/1/4 665/1/4
f 660/1/4 661/1/4 666/1/4
f 666/1/4 661/1/4 667/1/4
f 662/3/4 663/3/4 669/3/4
f 669/3/4 663/3/4 670/3/4
f 668/3/4 669/3/4 671/3/4
f 671/3/4 669/3/4 672/3/4
f 673/3/4 674/3/4 677/3/4
f 677/3/4 674/3/4 678/3/4
f 675/1/4 676/1/4 681/1/4
f 681/1/4 676/1/4 682/1/4
f 678/3/4 679/3/4 683/3/4
f 683/3/4 679/3/4 684/3/4
f 680/1/4 681/1/4 687/1/4
f 687/1/4 681/1/4 688/1/4
f 685/1/4 686/1/4 689/1/4
f 689/1/4 686/1/4 690/1/4
f 691/2/4 692/2/4 693/2/4
f 693/2/4 692/2/4 694/2/4
f 694/2/4 692/2/4 695/2/4
f 695/2/4 696/2/4 697/2/4
f 697/2/4 696/2/4 698/2/4
f 698/2/4 696/2/4 699/2/4
f 700/2/4 701/2/4 705/2/4
f 701/2/4 702/2/4 705/2/4
f 705/2/4 702/2/4 706/2/4
f 703/2/4 704/2/4 707/2/4
f 704/2/4 705/2/4 707/2/4
f 707/2/4 705/2/4 708/2/4
f 709/1/4 710/1/4 711/1/4
f 711/1/4 710/1/4 712/1/4
f 712/1/4 710/1/4 713/1/4
f 713/1/4 714/1/4 715/1/4
f 715/1/4 714/1/4 716/1/4
f 716/1/4 714/1/4 717/1/4
f 718/1/4 719/1/4 723/1/4
f 719/1/4 720/1/4 723/1/4
f 723/1/4 720/1/4 724/1/4
f 721/1/4 722/1/4 725/1/4
f 722/1/4 723/1/4 725/1/4
f 725/1/4 723/1/4 726/1/4
f 727/2/4 728/2/4 729/2/4
f 729/2/4 728/2/4 730/2/4
f 730/2/4 731/2/4 732/2/4
f 732/2/4 731/2/4 733/2/4
f 734/2/4 735/2/4 737/2/4
f 737/2/4 735/2/4 738/2/4
f 736/2/4 737/2/4 739/2/4
f 739/2/4 737/2/4 740/2/4
f 741/2/4 742/2/4 743/2/4
f 743/2/4 742/2/4 744/2/4
f 744/1/4 745/1/4 746/1/4
f 746/1/4 745/1/4 747/1/4
f 748/1/4 749/1/4 751/1/4
f 751/1/4 749/1/4 752/1/4
f 750/2/4 751/2/4 753/2/4
f 753/2/4 751/2/4 754/2/4
f 755/1/4 756/1/4 757/1/4
f 757/1/4 756/1/4 758/1/4
f 758/2/4 759/2/4 761/2/4
f 761/2/4 759/2/4 762/2/4
f 760/1/4 761/1/4 763/1/4
f 763/1/4 761/1/4 764/1/4
f 765/2/4 766/2/4 767/2/4
f 767/2/4 766/2/4 768/2/4
f 771/2/5 770/2/5 769/2/5
f 772/2/5 770/2/5 771/2/5
f 777/2/5 774/2/5 773/2/5
f 778/2/5 774/2/5 777/2/5
f 779/2/5 776/2/5 775/2/5
f 780/2/5 776/2/5 779/2/5
f 783/2/5 782/2/5 781/2/5
f 784/2/5 782/2/5 783/2/5
f 789/1/5 786/1/5 785/1/5
f 789/1/5 788/1/5 787/1/5
f 789/1/5 787/1/5 786/1/5
f 790/1/5 788/1/5 789/1/5
f 795/1/5 792/1/5 791/1/5
f 796/1/5 794/1/5 793/1/5
f 797/1/5 792/1/5 795/1/5
f 798/1/5 796/1/5 793/1/5
f 799/1/5 792/1/5 797/1/5
f 800/1/5 792/1/5 799/1/5
f 801/1/5 798/1/5 793/1/5
f 802/1/5 798/1/5 801/1/5
f 805/1/5 804/1/5 803/1/5
f 806/1/5 804/1/5 805/1/5
f 807/1/5 804/1/5 806/1/5
f 808/1/5 804/1/5 807/1/5
f 816/2/5 810/2/5 809/2/5
f 817/1/5 811/1/5 810/1/5
f 817/2/5 810/2/5 816/2/5
f 818/1/5 811/1/5 817/1/5
f 819/1/5 813/1/5 812/1/5
f 820/2/5 814/2/5 813/2/5
f 820/1/5 813/1/5 819/1/5
f 821/2/5 814/2/5 820/2/5
f 823/2/5 816/2/5 815/2/5
f 824/2/5 816/2/5 823/2/5
f 825/2/5 822/2/5 821/2/5
f 826/2/5 822/2/5 825/2/5
f 827/1/5 824/1/5 823/1/5
f 828/1/5 824/1/5 827/1/5
f 829/1/5 826/1/5 825/1/5
f 830/1/5 826/1/5 829/1/5
f 835/1/5 832/1/5 831/1/5
f 836/1/5 832/1/5 835/1/5
f 837/1/5 834/1/5 833/1/5
f 838/1/5 834/1/5 837/1/5
f 839/2/5 836/2/5 835/2/5
f 840/2/5 836/2/5 839/2/5
f 845/2/5 838/2/5 837/2/5
f 846/2/5 838/2/5 845/2/5
f 847/2/5 841/2/5 840/2/5
f 848/1/5 842/1/5 841/1/5
f 848/2/5 841/2/5 847/2/5
f 849/1/5 842/1/5 848/1/5
f 850/1/5 844/1/5 843/1/5
f 851/2/5 845/2/5 844/2/5
f 851/1/5 844/1/5 850/1/5
f 852/2/5 845/2/5 851/2/5
f 857/1/5 854/1/5 853/1/5
f 858/1/5 854/1/5 857/1/5
f 859/1/5 856/1/5 855/1/5
f 860/1/5 856/1/5 859/1/5
f 865/1/5 862/1/5 861/1/5
f 866/1/5 862/1/5 865/1/5
f 867/1/5 864/1/5 863/1/5
f 868/1/5 864/1/5 867/1/5
f 872/1/5 870/1/5 869/1/5
f 873/1/5 870/1/5 872/1/5
f 876/1/5 872/1/5 871/1/5
f 877/1/5 872/1/5 876/1/5
f 878/1/5 874/1/5 873/1/5
f 879/1/5 874/1/5 878/1/5
f 882/1/5 876/1/5 875/1/5
f 883/1/5 876/1/5 882/1/5
f 884/1/5 880/1/5 879/1/5
f 885/1/5 880/1/5 884/1/5
f 887/1/5 882/1/5 881/1/5
f 888/1/5 882/1/5 887/1/5
f 891/1/5 886/1/5 885/1/5
f 892/1/5 886/1/5 891/1/5
f 893/1/5 889/1/5 888/1/5
f 894/1/5 889/1/5 893/1/5
f 897/1/5 891/1/5 890/1/5
f 898/1/5 891/1/5 897/1/5
f 899/1/5 895/1/5 894/1/5
f 900/1/5 895/1/5 899/1/5
f 901/1/5 897/1/5 896/1/5
f 902/1/5 897/1/5 901/1/5
f 903/1/5 901/1/5 900/1/5
f 904/1/5 901/1/5 903/1/5
f 908/1/5 906/1/5 905/1/5
f 909/1/5 906/1/5 908/1/5
f 912/1/5 908/1/5 907/1/5
f 912/1/5 910/1/5 909/1/5
f 912/1/5 909/1/5 908/1/5
f 913/1/5 910/1/5 912/1/5
f 915/1/5 912/1/5 911/1/5
f 915/1/5 914/1/5 913/1/5
f 915/1/5 913/1/5 912/1/5
f 916/1/5 914/1/5 915/1/5
f 917/1/5 914/1/5 916/1/5
f 918/1/5 914/1/5 917/1/5
f 919/1/5 917/1/5 916/1/5
f 920/1/5 917/1/5 919/1/5
f 921/1/5 917/1/5 920/1/5
f 922/1/5 917/1/5 921/1/5
f 923/1/5 921/1/5 920/1/5
f 924/1/5 921/1/5 923/1/5
f 925/2/6 926/2/6 928/2/6
f 928/2/6 926/2/6 929/2/6
f 927/1/6 928/1/6 932/1/6
f 932/1/6 928/1/6 933/1/6
f 929/1/6 930/1/6 934/1/6
f 934/1/6 930/1/6 935/1/6
f 931/2/6 932/2/6 938/2/6
f 938/2/6 932/2/6 939/2/6
f 935/2/6 936/2/6 940/2/6
f 940/2/6 936/2/6 941/2/6
f 937/2/6 938/2/6 944/2/6
f 944/2/6 938/2/6 945/2/6
f 941/2/6 942/2/6 946/2/6
f 946/2/6 942/2/6 947/2/6
f 943/1/6 944/1/6 950/1/6
f 950/1/6 944/1/6 951/1/6
f 947/1/6 948/1/6 952/1/6
f 952/1/6 948/1/6 953/1/6
f 949/2/6 950/2/6 955/2/6
f 955/2/6 950/2/6 956/2/6
f 953/2/6 954/2/6 959/2/6
f 959/2/6 954/2/6 960/2/6
f 956/1/6 957/1/6 961/1/6
f 961/1/6 957/1/6 962/1/6
f 958/1/6 959/1/6 965/1/6
f 965/1/6 959/1/6 966/1/6
f 962/2/6 963/2/6 967/2/6
f 967/2/6 963/2/6 968/2/6
f 964/2/6 965/2/6 971/2/6
f 971/2/6 965/2/6 972/2/6
f 968/2/6 969/2/6 973/2/6
f 973/2/6 969/2/6 974/2/6
f 970/2/6 971/2/6 977/2/6
f 977/2/6 971/2/6 978/2/6
f 974/1/6 975/1/6 979/1/6
f 979/1/6 975/1/6 980/1/6
f 976/1/6 977/1/6 981/1/6
f 981/1/6 977/1/6 982/1/6
f 980/2/6 981/2/6 983/2/6
f 983/2/6 981/2/6 984/2/6
f 985/3/6 986/3/6 988/3/6
f 988/3/6 986/3/6 989/3/6
f 987/3/6 988/3/6 991/3/6
f 989/3/6 990/3/6 991/3/6
f 988/3/6 989/3/6 991/3/6
f 991/3/6 990/3/6 992/3/6
f 992/3/6 990/3/6 993/3/6
f 993/3/6 990/3/6 994/3/6
f 992/3/6 993/3/6 995/3/6
f 995/3/6 993/3/6 996/3/6
f 997/3/6 998/3/6 1000/3/6
f 1000/3/6 998/3/6 1001/3/6
f 999/3/6 1000/3/6 1004/3/6
f 1004/3/6 1000/3/6 1005/3/6
f 1001/3/6 1002/3/6 1006/3/6
f 1006/3/6 1002/3/6 1007/3/6
f 1003/3/6 1004/3/6 1009/3/6
f 1009/3/6 1004/3/6 1010/3/6
f 1007/3/6 1008/3/6 1013/3/6
f 1013/3/6 1008/3/6 1014/3/6
f 1010/3/6 1011/3/6 1015/3/6
f 1015/3/6 1011/3/6 1016/3/6
f 1012/3/6 1013/3/6 1017/3/6
f 1017/3/6 1013/3/6 1018/3/6
f 1016/3/6 1017/3/6 1019/3/6
f 1019/3/6 1017/3/6 1020/3/6
f 1021/3/6 1022/3/6 1026/3/6
f 1026/3/6 1022/3/6 1027/3/6
f 1023/3/6 1024/3/6 1028/3/6
f 1028/3/6 1024/3/6 1029/3/6
f 1025/3/6 1026/3/6 1031/3/6
f 1031/3/6 1026/3/6 1032/3/6
f 1029/3/6 1030/3/6 1033/3/6
f 1033/3/6 1030/3/6 1034/3/6
f 1035/3/6 1036/3/6 1039/3/6
f 1039/3/6 1036/3/6 1040/3/6
f 1037/3/6 1038/3/6 1043/3/6
f 1043/3/6 1038/3/6 1044/3/6
f 1040/3/6 1041/3/6 1045/3/6
f 1045/3/6 1041/3/6 1046/3/6
f 1042/3/6 1043/3/6 1047/3/6
f 1047/3/6 1043/3/6 1048/3/6
f 1049/1/6 1050/1/6 1053/1/6
f 1053/1/6 1050/1/6 1054/1/6
f 1051/2/6 1052/2/6 1057/2/6
f 1057/2/6 1052/2/6 1058/2/6
f 1055/2/6 1056/2/6 1059/2/6
f 1059/2/6 1056/2/6 1060/2/6
f 1061/1/6 1062/1/6 1065/1/6
f 1065/1/6 1062/1/6 1066/1/6
f 1063/1/6 1064/1/6 1067/1/6
f 1067/1/6 1064/1/6 1068/1/6
f 1069/2/6 1070/2/6 1073/2/6
f 1073/2/6 1070/2/6 1074/2/6
f 1071/2/6 1072/2/6 1077/2/6
f 1077/2/6 1072/2/6 1078/2/6
f 1075/1/6 1076/1/6 1079/1/6
f 1079/1/6 1076/1/6 1080/1/6
f 1081/1/6 1082/1/6 1085/1/6
f 1085/1/6 1082/1/6 1086/1/6
f 1083/1/6 1084/1/6 1087/1/6
f 1087/1/6 1084/1/6 1088/1/6
f 1089/1/6 1090/1/6 1093/1/6
f 1093/1/6 1090/1/6 1094/1/6
f 1091/1/6 1092/1/6 1095/1/6
f 1095/1/6 1092/1/6 1096/1/6
f 1097/1/6 1098/1/6 1101/1/6
f 1101/1/6 1098/1/6 1102/1/6
f 1099/1/6 1100/1/6 1103/1/6
f 1103/1/6 1100/1/6 1104/1/6
f 1105/1/6 1106/1/6 1109/1/6
f 1109/1/6 1106/1/6 1110/1/6
f 1107/1/6 1108/1/6 1111/1/6
f 1111/1/6 1108/1/6 1112/1/6
f 1113/2/6 1114/2/6 1115/2/6
f 1115/2/6 1114/2/6 1116/2/6
f 1117/2/6 1118/2/6 1121/2/6
f 1121/2/6 1118/2/6 1122/2/6
f 1119/2/6 1120/2/6 1123/2/6
f 1123/2/6 1120/2/6 1124/2/6
f 1125/2/6 1126/2/6 1127/2/6
f 1127/2/6 1126/2/6 1128/2/6
