# Blender v2.90.1 OBJ File: 'plasma_launcher.blend'
# www.blender.org
mtllib plasma_launcher.mtl
o Cube
v 0.388160 0.017872 -0.073430
v 0.598665 -0.017872 -0.200254
v 0.388160 0.017872 0.072922
v 0.598665 -0.017872 0.199746
v 0.117761 0.017872 -0.073430
v -0.601335 -0.017872 -0.200254
v 0.117761 0.017872 0.072922
v -0.601335 -0.017872 0.199746
v 0.598665 0.017872 0.199746
v -0.601335 0.017872 0.199746
v 0.598665 0.017872 -0.200254
v -0.601335 0.017872 -0.200254
v 0.556459 0.183462 0.072922
v 0.286060 0.183462 0.072922
v 0.556459 0.183462 -0.073430
v 0.286060 0.183462 -0.073430
v 0.615870 0.240413 0.119991
v -0.093788 0.286784 0.049073
v 0.615870 0.240413 -0.120499
v -0.093788 0.286784 -0.049580
v 0.650598 0.432631 0.065488
v -0.025467 0.386261 0.020866
v 0.650598 0.432631 -0.065996
v -0.025467 0.386261 -0.021374
v -0.125636 0.240413 0.119991
v -0.125636 0.240413 -0.120499
v 0.006381 0.432631 0.065488
v 0.006381 0.432631 -0.065996
v -0.249822 0.240978 0.093006
v -0.249822 0.240978 -0.093514
v -0.217974 0.287349 0.049073
v -0.217974 0.287349 -0.049580
v -0.323065 0.300976 0.028663
v -0.323065 0.300976 -0.029171
v -0.273074 0.373764 0.008025
v -0.273074 0.373764 -0.008533
v -0.332230 0.287632 0.049073
v -0.332230 0.287632 -0.049580
v -0.263909 0.387108 0.020866
v -0.263909 0.387108 -0.021374
v -0.740077 0.311411 0.022003
v -0.740077 0.311411 -0.022510
v -0.701601 0.367432 0.006118
v -0.701601 0.367432 -0.006626
vt 0.848578 0.579265
vt 0.848578 0.670735
vt 0.848578 0.670735
vt 0.848578 0.579265
vt 0.375000 0.750000
vt 0.625000 0.750000
vt 0.625000 1.000000
vt 0.375000 1.000000
vt 0.375000 0.000000
vt 0.625000 0.000000
vt 0.625000 0.250000
vt 0.375000 0.250000
vt 0.125000 0.500000
vt 0.375000 0.500000
vt 0.125000 0.750000
vt 0.625000 0.500000
vt 0.651422 0.670735
vt 0.875000 0.750000
vt 0.651422 0.579265
vt 0.875000 0.500000
vt 0.651422 0.670735
vt 0.651422 0.670735
vt 0.848578 0.670735
vt 0.651422 0.579265
vt 0.651422 0.579265
vt 0.848578 0.579265
vt 0.848578 0.579265
vt 0.651422 0.579265
vt 0.848578 0.670735
vt 0.651422 0.670735
vt 0.848578 0.645757
vt 0.848578 0.637772
vt 0.848578 0.637772
vt 0.848578 0.645757
vt 0.848578 0.604243
vt 0.848578 0.579265
vt 0.848578 0.604243
vt 0.848578 0.612228
vt 0.848578 0.645757
vt 0.848578 0.670735
vt 0.848578 0.637417
vt 0.848578 0.629727
vt 0.848578 0.629727
vt 0.848578 0.637417
vt 0.848578 0.612228
vt 0.848578 0.604243
vt 0.848578 0.612584
vt 0.848578 0.620273
vt 0.848578 0.612584
vt 0.848578 0.620273
vn -0.7013 0.7128 0.0000
vn 0.0000 0.0000 1.0000
vn -1.0000 0.0000 0.0000
vn 0.0000 -1.0000 0.0000
vn 1.0000 0.0000 0.0000
vn 0.0000 0.0000 -1.0000
vn 0.0000 1.0000 0.0000
vn 0.0000 -0.6371 0.7708
vn 0.7013 -0.7128 0.0000
vn 0.0000 0.2728 -0.9621
vn 0.0000 -0.6371 -0.7708
vn 0.6920 -0.7219 0.0000
vn -0.1370 -0.9906 0.0000
vn 0.9841 -0.1778 0.0000
vn 0.0010 0.2722 0.9622
vn 0.0000 0.2728 0.9621
vn -0.0622 0.7931 -0.6059
vn -0.8243 0.5661 0.0000
vn -0.0045 -1.0000 0.0000
vn -0.0622 0.7931 0.6059
vn 0.0045 1.0000 0.0000
vn -0.0084 0.2781 0.9605
vn 0.0036 1.0000 0.0000
vn 0.0010 0.2722 -0.9622
vn -0.0036 -1.0000 0.0000
vn -0.0148 0.9999 0.0000
vn -0.0084 0.2781 -0.9605
vn -0.0250 -0.9997 0.0000
usemtl Material
s off
f 5/1/1 7/2/1 14/3/1 16/4/1
f 4/5/2 9/6/2 10/7/2 8/8/2
f 8/9/3 10/10/3 12/11/3 6/12/3
f 6/13/4 2/14/4 4/5/4 8/15/4
f 2/14/5 11/16/5 9/6/5 4/5/5
f 6/12/6 12/11/6 11/16/6 2/14/6
f 3/17/7 7/2/7 10/18/7 9/6/7
f 1/19/7 3/17/7 9/6/7 11/16/7
f 7/2/7 5/1/7 12/20/7 10/18/7
f 5/1/7 1/19/7 11/16/7 12/20/7
f 14/3/8 13/21/8 17/22/8 25/23/8
f 7/2/2 3/17/2 13/21/2 14/3/2
f 1/19/6 5/1/6 16/4/6 15/24/6
f 3/17/9 1/19/9 15/24/9 13/21/9
f 19/25/10 26/26/10 28/27/10 23/28/10
f 15/24/11 16/4/11 26/26/11 19/25/11
f 13/21/12 15/24/12 19/25/12 17/22/12
f 16/4/13 14/3/13 25/23/13 26/26/13
f 23/28/7 28/27/7 27/29/7 21/30/7
f 17/22/14 19/25/14 23/28/14 21/30/14
f 18/31/15 22/32/15 39/33/15 37/34/15
f 25/23/16 17/22/16 21/30/16 27/29/16
f 20/35/17 26/26/17 30/36/17 32/37/17
f 24/38/18 22/32/18 27/29/18 28/27/18
f 20/35/18 24/38/18 28/27/18 26/26/18
f 22/32/18 18/31/18 25/23/18 27/29/18
f 31/39/18 32/37/18 30/36/18 29/40/18
f 26/26/19 25/23/19 29/40/19 30/36/19
f 25/23/20 18/31/20 31/39/20 29/40/20
f 18/31/21 20/35/21 32/37/21 31/39/21
f 33/41/22 35/42/22 43/43/22 41/44/22
f 22/32/23 24/38/23 40/45/23 39/33/23
f 24/38/24 20/35/24 38/46/24 40/45/24
f 20/35/25 18/31/25 37/34/25 38/46/25
f 33/41/18 34/47/18 38/46/18 37/34/18
f 36/48/18 35/42/18 39/33/18 40/45/18
f 34/47/18 36/48/18 40/45/18 38/46/18
f 35/42/18 33/41/18 37/34/18 39/33/18
f 42/49/18 41/44/18 43/43/18 44/50/18
f 35/42/26 36/48/26 44/50/26 43/43/26
f 36/48/27 34/47/27 42/49/27 44/50/27
f 34/47/28 33/41/28 41/44/28 42/49/28
