# Blender v2.90.1 OBJ File: 'wasp.blend'
# www.blender.org
mtllib wasp.mtl
o Cube
v -0.130362 0.017872 -0.045960
v 0.600000 -0.017872 -0.200000
v -0.130362 0.017872 0.045960
v 0.600000 -0.017872 0.200000
v -0.405771 0.017872 -0.045960
v -0.600000 -0.017872 -0.200000
v -0.405771 0.017872 0.045960
v -0.600000 -0.017872 0.200000
v -0.244972 0.236345 -0.038136
v -0.507386 0.236345 -0.038175
v -0.507386 0.236345 0.038175
v -0.244972 0.236345 0.038136
v 0.024572 0.289985 -0.055465
v -0.804538 0.250821 -0.121265
v -0.804538 0.250821 0.121265
v 0.024572 0.289985 0.055464
v 0.125559 0.420215 -0.008449
v -0.642812 0.459378 -0.045894
v -0.642812 0.459378 0.045894
v 0.125559 0.420215 0.008449
v -0.005797 0.250821 -0.121140
v -0.005797 0.250821 0.121140
v 0.155928 0.459378 -0.045846
v 0.155928 0.459378 0.045846
v 0.258443 0.460294 -0.045846
v 0.258443 0.460294 0.045846
v 0.228074 0.421130 -0.008449
v 0.228074 0.421130 0.008449
v 1.422501 0.373155 -0.008127
v 1.422552 0.357266 -0.013289
v 1.422552 0.357266 0.013289
v 1.422501 0.373155 0.008127
v 0.600000 0.017872 0.200000
v -0.600000 0.017872 0.200000
v 0.600000 0.017872 -0.200000
v -0.600000 0.017872 -0.200000
vt 0.375000 0.750000
vt 0.625000 0.750000
vt 0.625000 1.000000
vt 0.375000 1.000000
vt 0.375000 0.000000
vt 0.625000 0.000000
vt 0.625000 0.250000
vt 0.375000 0.250000
vt 0.125000 0.500000
vt 0.375000 0.500000
vt 0.125000 0.750000
vt 0.625000 0.500000
vt 0.651083 0.671752
vt 0.848917 0.671752
vt 0.875000 0.750000
vt 0.651083 0.578248
vt 0.848917 0.578248
vt 0.875000 0.500000
vt 0.686175 0.605057
vt 0.813825 0.605037
vt 0.813825 0.644963
vt 0.686175 0.644943
vt 0.813825 0.605037
vt 0.813825 0.605037
vt 0.686175 0.605057
vt 0.686175 0.605057
vt 0.813825 0.644963
vt 0.813825 0.644963
vt 0.686175 0.644943
vt 0.686175 0.644943
vt 0.813825 0.605037
vt 0.686175 0.605057
vt 0.813825 0.644963
vt 0.686175 0.644943
vt 0.686175 0.628011
vt 0.686175 0.635112
vt 0.686175 0.635112
vt 0.686175 0.634144
vt 0.686175 0.628011
vt 0.686175 0.614888
vt 0.686175 0.614888
vt 0.686175 0.621990
vt 0.686175 0.621990
vt 0.686175 0.615856
vt 0.686175 0.605057
vt 0.686175 0.644943
vn 0.0000 0.0000 1.0000
vn -1.0000 0.0000 0.0000
vn 0.0000 -1.0000 0.0000
vn 1.0000 0.0000 0.0000
vn 0.0000 0.0000 -1.0000
vn 0.0000 1.0000 0.0000
vn 0.0001 0.0357 -0.9994
vn -0.9067 -0.4217 0.0000
vn 0.0001 0.0357 0.9994
vn 0.8855 0.4646 0.0000
vn 0.0000 -0.9851 -0.1717
vn -0.0487 -0.9988 0.0000
vn 0.0000 -0.9851 0.1717
vn 0.0604 -0.9982 0.0000
vn 0.0001 0.3397 -0.9405
vn -0.7902 0.6128 0.0000
vn 0.0001 0.3397 0.9405
vn 0.0121 0.3197 0.9474
vn 0.7902 -0.6128 0.0000
vn 0.0481 -0.9988 0.0000
vn 0.0121 0.3197 -0.9474
vn 0.0062 -0.6931 -0.7208
vn 0.0062 -0.6931 0.7208
vn -0.0089 1.0000 0.0000
vn 1.0000 0.0032 0.0000
vn 0.0401 0.9992 0.0000
usemtl Material
s off
f 4/1/1 33/2/1 34/3/1 8/4/1
f 8/5/2 34/6/2 36/7/2 6/8/2
f 6/9/3 2/10/3 4/1/3 8/11/3
f 2/10/4 35/12/4 33/2/4 4/1/4
f 6/8/5 36/7/5 35/12/5 2/10/5
f 3/13/6 7/14/6 34/15/6 33/2/6
f 1/16/6 3/13/6 33/2/6 35/12/6
f 7/14/6 5/17/6 36/18/6 34/15/6
f 5/17/6 1/16/6 35/12/6 36/18/6
usemtl main
f 23/19/6 18/20/6 19/21/6 24/22/6
f 5/23/7 10/24/7 9/25/7 1/26/7
f 7/27/8 11/28/8 10/24/8 5/23/8
f 3/29/9 12/30/9 11/28/9 7/27/9
f 1/26/10 9/25/10 12/30/10 3/29/10
f 10/24/11 14/31/11 21/32/11 9/25/11
f 11/28/12 15/33/12 14/31/12 10/24/12
f 12/30/13 22/34/13 15/33/13 11/28/13
f 9/25/14 21/32/14 22/34/14 12/30/14
f 14/31/15 18/20/15 23/19/15 21/32/15
f 15/33/16 19/21/16 18/20/16 14/31/16
f 22/34/17 24/22/17 19/21/17 15/33/17
f 20/35/18 16/36/18 31/37/18 32/38/18 28/39/18
f 13/40/19 16/36/19 22/34/19 21/32/19
f 16/36/20 13/40/20 30/41/20 31/37/20
f 17/42/19 13/40/19 21/32/19 23/19/19
f 16/36/19 20/35/19 24/22/19 22/34/19
f 13/40/21 17/42/21 27/43/21 29/44/21 30/41/21
f 28/39/19 27/43/19 25/45/19 26/46/19
f 17/42/22 23/19/22 25/45/22 27/43/22
f 24/22/23 20/35/23 28/39/23 26/46/23
f 23/19/24 24/22/24 26/46/24 25/45/24
f 29/44/25 32/38/25 31/37/25 30/41/25
f 29/44/26 27/43/26 28/39/26 32/38/26
